<mxfile host="65bd71144e">
    <diagram id="wm_3DI7z6d3ztLv1EI7-" name="Page-1">
        <mxGraphModel dx="1970" dy="693" grid="1" gridSize="10" guides="1" tooltips="1" connect="1" arrows="1" fold="1" page="1" pageScale="1" pageWidth="850" pageHeight="1100" math="0" shadow="0">
            <root>
                <mxCell id="0"/>
                <mxCell id="1" parent="0"/>
                <mxCell id="3" value="" style="shape=image;verticalLabelPosition=bottom;labelBackgroundColor=default;verticalAlign=top;aspect=fixed;imageAspect=0;image=data:image/png,iVBORw0KGgoAAAANSUhEUgAAAuEAAAGfCAYAAADxgAy+AAAAAXNSR0IArs4c6QAAAARnQU1BAACxjwv8YQUAAAAJcEhZcwAAEnQAABJ0Ad5mH3gAAP+lSURBVHhe7N0FfFbVG8Dx37q7B2NjdI3ubpBSUP4YYICJjdgYCIqFgYEBojSIdHeOHozYiBXr7q7/PZd3iDSKI3y+fu7H7dy7+96N95zznHyNgHLtEEIIIYQQQlSCuXPnYkRnCcKFuO3laMcp7WiqfyeEEEKIW9j7A9/XgvD3JAgX4rYXrx0rtWOU/p0QQgghbmHve72PseFrIYQQQgghRCWRIFwIIYQQQohKJtNRbpC+NfvS3Ls5LlYuWJtZY2RkREFxAVlFWSTkJPDN3m8MVwrxL5DpKEII8a8Z1nAYBSUFbI7cTGZBpiFViL9PTUeRIPwfauLZhLvr3k2/Wv3wtvPmdNpp5h2dR05RDiObjqSxZ2P96/Vh61kbtpb5x+YbflKIG0iC8L+wMLHgkSaPUMW+Cu9sfseQKoQQf8+cIXNo6N6QkyknySvJM6ReXVZhFs+uetbwnRB/UkG4CV20MFz8LSoAf639azzQ6AE9AP9g2wfMODSD1adXczD+ICEpIXjZedGqSiv92gbuDUjLT+No0lHDHYS4QSp2R2mmf/efZm5izhe9v+Cxpo/R3Ku5nt/C0sMMZ28/baq24aU2L3F/w/upal9VH1lTFfuNpEbwXm3/KqOajaJllZakF6QTn6NadtdnYJ2BvNDmBYbUG4KthS3RmdF676EQt7NOvp14KOAh6rrUpUz7z8zEDFtzW71e7+DTQf9/Y4/GpOen6+l2FnZ6wN7Fr4uet77e+7XhTkL8qatdV5kT/k/8r8H/6F2zN85WzgTGBLI0dCm7Y3ZTWFKon98Tu4dxm8YRkhyCsZEx9VzrMabtGP3c7cDD1oPeNXobvhPi1mek/aemhj3c5GF8HX1xsnLirlp3Gc7enlRDQo2qPRjwoN6wqO9W33DmxlF/p6daPKUH+g83fvhv/81UeTGi8Qg9YFHP7GnraTgjxO2rmVcz3G3c9Q62Nze+yctrX+aVda/oDfyS8hLDVfDWprf0dHU8teIpfdpKYenZeECIS5Eg/G8a2mCo3uvjYOGg9/R8v/974nLiDGf/pHrDFx5fqH+t5omr1vG4TuP0729lqsdNPaeaaiPE7ULlscH1B2NjZqN/r3rFVS/V7Uz1uqnfw8z47P9NjE0MZ24c1Umg1rKoe6upPKbGpoYz10f9rHpO9czqa9UoEuJ2V8WuChkFGfpI98bwjRxKOKQfaqrp+RN6jyQeOXdu+5ntHEs+ZjgjxKVJEP43ta3aFh8HH73yUpkzLC3sXA/4hX48+KM+vKuoSrRvrb761xU8bDz0KS030j317sHN2s3w3fVRBc6H3T/Ue/pdrF0MqX+faqx42XoZvhPi39XSuyW5Rbn61yqYrOlckwG1B+jf347USNqWyC36FLefD/6sj7r9E293epthDYYZvjtLTW9ZdmKZHkSsOLWC6UHTDWeuj3o2NRq4L24fnwd+TlRmlOHMn15u87Le2/53A30hKpvKe6+tf41NkZuuuWe7uKyY51c/r68RE+JyZGHm3zTznpn6amlVkZxIOcG9C++94lzvoCeDzvXIxWbHUmdKHX3ItoV3Cxq4NcDS1JLjKcepZl9N781Tldf8o/NZfnK5/jMV9KF2rQJTc81VAyA+O57JuyfrFZ+aO9qtejf9nn6OfgQnBuNj70NSbpK+MCQ1P5X+tfvrh5rbZm5qTkpuiv4aPx38CTtzO324W/XyB3gE6L2JaQVpnEw9qb/Or4d/1Stq9TqPN3tcfw0rMyuKSouIzYrlxwM/sjVqq/6cal5p9+rd9YCoumN1jiYfxdvWm5S8FF5a+5I+3/Sznp/pIwP2FvbqnUhOYY7ee6Dm1ovrJAszdY81eYwpd03R39OqEamo3qppB6fx4toX9e9vNypfqqlhqgGv5oOrdSV/17OtntVHuGYGz9SHzCuockw1vtU87uzCbM5knjGcuT5qap5q/KuySZVhecV/XcCmFsu+1/k9fZH6c6uf08sOIW51jpaO5BfnXxSAzx0yl3vq3oOFqYX+vf1H9mQXZetfK6oud7V2JTk32ZAixJ/kw3r+AZXpKnpySstL9f9fyfmLk1RlqoZ+VYV0f6P7aV21td5b18yzmb6bSvtq7fWFTWPajaFnjZ6Gn4LB9QYzqcckPQhWc9OOJx+nR40efNT9I33x56A6g3imxTP6Ti2N3Btxb/179YUhvWr0wtLMkidbPMmErhO4u87d5Jfk6735ak67CrwVteJb9bjlFufqi0vKysv0wFgFzCqg3xm9Uw/yv+7ztf58aqj5QNwBvYBSzza1/1Te6/KePhdXPcMzLZ/RA/5GHo30812qn30WG3MbpvSdwqNNH9W3ddwevZ3NEZup4VxDL9CE+LsG1R2kNzrf3/r+ud5w1cBVjcrblarUVUNVNTDe6viWXkb8Hd/c9Y0egKugQJVB5yspK9EbK31r9GV81/F6/v47VAOhmkM1fSHpax1e0wP7CuO7jOfdzu/qI4jq30SI24Ua7f47c7vLy8v/cQCu1lmMbjlarx/FnUd6wv+mhfct1INc5VTqKYYsGMKRpCP695cSODJQD56VuOw4fL/0pWO1jmx6eJNeAe48s5ORy0bq16gAVS2UUhn/6z1f8+6Wd/XgV1WObaq04YvdXzBh2wQ9Y77S7hW9QfDQHw/pveHz7p2nr+RWPVDrw9frK7bVtokPLHqApfcv1XvJVeA8dOFQDj11SO+5UkGLx2ce+rOphoUK3NcPX09xaTFrTq/hyZVP6o0ItbBU9V6rXm4VmH+661PmHpnLE82f0BecOlk6cSL1BC+ueZFDiYeYefdMvRGhehA2RGzQe/wjMyIZsWQEG0dspLZLbbIKspgcOJlv933LGx3eoLNvZ1r+3FJ/FnEdpCdcFz8mXp8K8eAfD7JpxCb9/a5EZ0Xz0pqXWBSySP/+fK2rtOblti9Ty7mWnpdUAzUoPkgfHdobu1e/Ro1aqSljKqhUeUT1Fm+J2qLnT5WfKzzU6CGG1B+i30v1gilq5EvtLfzR9o/078+npnupqSE9/XtS1aEqVqZWerrKv2pqhxphUmVCHdc6VLWryuHEw7y9+W22Rp4dcVJUQ35w3cF6Q14F12rUamHIQuYEz9EDeLXrycDaA/XgXTWuFRUsq1511VCZfWS2nqdVfqzhVEMPxhccW0BpWSkD6lw8jWda0DQOxB/g+VbPU9e1rp6mrg3PCNdfv45LHb3nXs2dHbNujF52Da0/VF/cphrs6u+iFqypNTQqSFFlyYXT1VTHhpoCoP5mPw38Sd9hooLqgDi/F1+Im+VqPeGKes8v/t9ifWHn+dR0lQ3hG/gj5A8+7fmpfl0FVZer9WTtfdrrdXhMdoxed6qRbdWIViNNqt5WI9Mq/6qvz6fKM1WmqOtVflOdaZujNvP6htcNV4hbgfSE/wOqoqoYSlWBrFqIdCUVGUxVOmpKhgq8VWBQQfU+q23UghKC9F1VFLXoU007UVQFqzKjWjileq4PPHlA7ym3t7TXp4SowEBVZhXDv+rZVHDbeUZnhi8erle6aruwtafXMmzRMP211TMo5y/0Umnq+SoUlBbolbraekkFIGpKTUUQkpCdoF+rAm/12iqzq+d0s3EjMSeRnGK1bx56D8KUvVPo8msXPThSlb8KzNXfQm3l9GKbF1n94Gq9t/7uBbIQVPw9artQVUGpiq2k9GzDtoIK4u6qefGOH+182vFFny/0USSVR8PTw/VRKhU4qoBUUVOvVA9yj+o99HylrvFz8tNHdc6vOCd2m6iPVKmdRVQeUdPT1Pmufl0Z23Yss+6ZZbjyLLVziOoZ/qDrB3rDV1FTv8q1/1TA2qlaJ/351IiVCmxVXlH3rVjs2NanLT8N+IlJ3Sfp+U71Lqtn7uzXmdEtRv+lzInMjNTLiYrvVQWvOg0OJhzU/16qIaJ2YVFlmQqkVaWuprmped2qDFI7sqhDvb7Kv/ti9+lzx1UwoO771Z6v9PJFPWt1p+r6VLZz5Ur52UaQ+r6iYaJ+TzX/XD3DE8ufwMTI5NxrqAaMKj/ULhQRGRF8uvNTfd2M6phQn7OgvhfidqHqyrHrx+oLlSve42qKZmhyqP5eVnW+WuuhtjlWeVg1/lXH2evtX9fLEjXtU41096nZh6aeTannVk+/R4dqHfSOK9UJpsq9ChO6TWBsu7F6nj6TdUYvr1pUacHTLZ7m4x4fG64StwoJwv8mVanoK6M1qnJQiw9VBXY5qhJR1BQP1aK9HFU5qbnXiqqwVCWnqMBATeNQQbaq8Dr/0pmA7wPw/cIXn8k+rDi5Qr+ugqpoVU+6mtupKk3Vs/TUyqcIjA7k4+4fc/yZ43/JuNdCVcAVFbn6PdR/igrcVU+Yoq5RFeqFVI+3qqT1Z9GuVc+rFoOp30/9/dS0FDXX/Z3O8sEq4u9RgbRqbKr532rkRu3NW5FHVeVWy6WW/vX5VMNSrVtQPVmqt0nlrc93fa73ZlXkZzWVRQW5qqGtgka1Ddms4Fn6XO2KaRWqglPTq7ztvfXv+87py5MrnuTLPV/qeUK9x/vX6c+bHd/Uz6tGgZqyMarpKH0etupV7zurL48te0wfEVsculgP+NVuDKrnuaIcOJ9qVKheOBXMT9w+UT9UY1i9nqqkK3rn1M5Nak2IapgoKshXAbDaQk0tNgtNDeXRpY/+5TVUL50KxNVIwPao7YbUsx0OqixT5ZCtma0e6H+/73u9N079XdR0tgt3RJl1ZJa+DuT83rqTaSf1OeHqGVR5WFHmKeo51N9VjTCov4H6N1W/05LQJXqjIDE30XClELc+VfeqdWMVu6QpqkFqamKqv5dVh5Qqp1Q9OufIHH448IPeMFYjeqpBrOIANdquFnnW/64+3+79Vq87VZ5wtXFleMBwPYBX1Ii0KlPUSJTqTX982eM8vORhvSdcNeLvrXd29F7cOiQI/5vUG1z1ECuq0lC7L5w/ZHq+F1q/cK5XSgXGqmf6clRGrOjNVrutVAQRqmJT/6kgWE0TUUPc5x9qCP1qVAtZDU2r+dlqeFxVbqpCVi31a1HRi/VPqZ1b1FC0WoC5KWKTXgipv6EaKlfz1YX4O5p6NdUblpEvRpI0Nol9j+87t1When+pOZUjm43Uv6+g0lVlpqg1GW92eFNfwNxlRhc9+FVUhamuU9T7UwXSs4Nn0+rnVvpaCUWtrVD5X+VRlR9VwKny+jd7vjk3sqSCVrWwWnG0OruOQuVndd3+uP0k5yXrI077Y/fz6JJH6TWrl97bXFEGXEjlF7WOY2PERn00Sk0hUY1cRe911v5T1M+r11B5vYIKslVaZmGm3ihOzUs1nPkr1WOuFnFWBNDqd1TD6mpqSw//Hvo91GurRo8KDM5f+1JBlWfquvPXzqjXVGnqUA36qQem6r3einp21Rs+ImAE/k7+vNXpLXZF72LsurHn5vkLcTtRefCXQ7/oHVGKCq4D3AP0aWRqBOrplk/rHVMf7vhQrw9V77h6z1dQI+VqdEg1TN/Y+AYrT67UYwWVx30dfM9NY1N50tnaWU/v7t+dw08d5sSzJ/QAXKWpoF3cWiQI/5vWha3TK+mK+aBqmoZaiHThvC/lyeZP6gGsqoSmH5quV1aXo3YLUXMtlZT8FCLSz1ZMqrJSFaXKSGqHAzVvvGJI6re7f9MDbLUg6krUois1fUUF7GpOpar81P1UgXApqudPTYmpoIL1ispY/Z5qjqqi7w1smI6j5rBWbMd4OWpazcgmI5l7dC795/bXh+pUwaNUzFkV4nr8ds9v+vtQza9Ugas61A4pak1DBdUQble1neG7s5LykghNCdW/ViNNnfw66QuM1RxNNUdaUb1QFcGtCp7VosU//veHnk8restrOp2dj63ojdvyswGvCkrVtC1FBZcVedTSxFIPMBVVmZ4faKtyQvXEqzyvGtyX8/rG16n3bT2GzB9Cfdf6zB48Wx+qvpFUsKx68VSng6LKMfXZAWp6jpqnrnqwV51apZ/7J1RwrcrUCmohajf/bnr5o/62qtNABSJC3I5UA1iVCxW7hymqDm1XrZ3+f9V5oILuinpQlQnqqKDKk4pGtGrUqtGjijJDjXhVdBKoe5kane1UUGVD9a+q4/+VPw6THPT56lUm/7lQWtwaJAj/m1QG0YeuAz8/t53Xo00eZfaQ2focZ1Whq6kVoc+G6pWV6tVWc7Tf2PCGfu35VE+c6llSc0pVxa4WYqkMprYoVHOpFbVIaUf0Dv1rNfSkdh7Z8dgOfS61WoiphowrWtmKCoorMmaFiikjqoLb/uj2cw0G9X/Vazj/3vn69+p3qwik1ULJU8+dYsOIDfr8NNVaVwWF+hm1IOz1Dq/rWxqqOW4q4FDDaKpn7HzqwzvO70VX01VUgKMWtagCo6K3UhUyRxPlI/3F9VON0ZisGH29w6ilo/RDTet4euXTeuWnqCkO6n16PjV9Ql2zJ2aP/r5X70013ULt7qN6xhWVzz/Y+oH+WQCqMlT5Vc3TfLDRg+emmZ3//q4IwCuo3uoK519XkT/Njc3PjZRdD1WmvNj6RY48fYRf7/713HoNRf3O5/c8/xNqbruaflPRAFdTc/rV7Kc/typzzg8W/i417eStjW+d65FX/1a9/HvpHRuqPFHlrBC3MzUipnq61WiXonqn1cia2rVMTfuqGHm7Fmoq6IXljKIC8ooy5qW2L+kjXqpBX3Gc39gXtwYJwv8B1ZOsAmu104mqJFRl0dq7tb6DSNbrWfqcT9XTvPLUSiwnWvLq+lcvWzGqwFoFtOqjqdV+4WpXAXWo11DUrgjvbXlPX7ShWsGqAlaVuNrp5KHFD+mLIdVe5GpBmfoZazNrNgzfcG73AmXmkZl6pameQQUb6tkr5leqHj01BKaoClwF2+o1VIZWPYwqSFHByie7PuH7A9/rvYdqG0TVcFCVpfpe7cDyyNJH9GBg/+P79Tmr6lnUkPuKB1bo6cq4zePYG7dXH4bLeD2Dj3p8pI8OqI/9bz2ttX6NENdKzYNUc7tVHlENTfX+1g/ta9UwrGgUqvyiGsTq49kV9X78of8Peo90m2lteGTJI+e2E1OLEdW8SrXXuLomOCmYmlNq8s3eb85VZGqOuWpsK2oKS0UjVwXo56+LqBgqVs+kRooqvlbzNBU1X1xVxupDvFR5oah8p5634vtL+aTnJ3qQqqbZqJ7qQfMGcTjh8NmTV3Gl+15INY7VFBu1XkVRgb5aRK3+Jlf6bIQrusTLqwXc++P361+r31/9G3Tz68a2qG3nykEhbmdqxEflG0Xlb5V31ciw2ozhWt/jKu+qOlmNrCmqTq+YjqoasRXlkKp/9Tnlhsym8u1r7V7Tvxa3DgnCbxAVYNf/tj72k+wx/cAUk/EmOH3sRJ1v6jBw7kDDVZemMs2GsA36z9h8aEOrn1rpH3xzIfVRuGonATXEZP2hNY6THPUdR3ac2aH3VDX5oQkWE7TMqd1HHa6fup4balfGbx2vNxhMx5vS9MemepDv+ZknZh+YUePrGkzaMUm/Tk2xGbF4hN5wUPer9mU1fdGVooamx6wdow91qWdVr6N+56Y/NNUXkymqB7/FTy30nz/3LJ+46s9focdvPbD7yO7cec/PPblnvuwRLq6PqljUgkz1f7V13YVU5bTrzJ9zK1VjU237pa5XI0Jqm9CRTUfqcynVR0xXjDapaSCqF0ktelTzuNUOBGr6l/qQmYq5y6qRWlFxqpGqih5vNbSserdUb67qmVL75ivq+oppHaoy3hO3R+/NUpVxA/cGTO41mdGtRuuNWzXd7MATB/StxtT5Cio4rahU1bOpxaGKukZVzBXXqmldKvhXz6B+V6ViOFv9vNq6UZ1Thxo1q6jQK1T0plVQQ+VqB4eK9SNqPczyE8v1hk8F1fC48FnPd37PXQvPFnpHgXrGiqlsqnGj5sJXXKd62NVWiGorVCFuNRe+35XLTe2soEbNX1778rn3uGp4qtG4nw78pH9/OSqfqPyi7t+rZi99vrcqv1RjXk0Hq+g8OL8cUp0Lux7bpW9trDrClt2/TO8dF7cWCcJvAapyVBW+EOLaqUpIVTBqj2sV1KpKSqVVUEGgylvzjv35sdEq6FQBt9pfXwXQqodXbQf4ea/P9eljqldKNYpVQH4q7ZQ+UpRRmKHPA1eB8XOtntM/+VXlV/XprhVTXdTe+GpfbDVvWd1XTUn7ccCPrHto3dkFlMV5+lQttUuIonZXUjuWqIWP6l6qQlejVuo11P79aqcg1RhWAap63grq0yjVqJkKuFWvlwpc1e+oprCpzwFQwbx6ffVz64av4+CTB/U1KaryjsuK08+pv4v6gDC1p3rUi1F8e9e3PNvyWcMraBW+VmGraTsXrs9Qfyv1N1EBhNol5ljSMcOZs3/X+xrcp69pqeBj53N2jqqhEaD+lhXlXH33+kS+EEniK4l/2TZNna/oXVfD9uqzDoS41aipJMMbD9cbsxWNSGX6oOl6HlVl0eWo6ZwVo3OqMVvR8L8Sla9VWaemcH7Z+0v9MzvUKJ/aTeXjnR/reVNR5YsqZ1R5o/K6ymfqA76y38jWtzydcXiGfp24dZjQhfcMX4tKpnrlnm/9vJ5Z1B7hKkMJ8beomQ2ntOPsNOb/BPWBT12rd9V7mFXwpvbUVnvpql0IFDXPWi1WVAG3ClYrDkUFrSpg/3L3l3oFp3qV1S4DKqBVO5WouZtqB4KKgFAFpapHW02RUAG/2pFkzPox+n6+FdQe1qpnWgW86rXVULP6MB61BaDapk+NYp1PzRFVC0dVoKp61FQ5oBZjqnuq6WDqw2/U1qeqR6vi2VWFr/YnV0G86lVX02FUsKymc6mRANUTptZgqDnWaoqM+lAfNVVOjQiowEFNsVGvo6bCqDJnTdgafX2GWldS8RqqB1p9sJZa5FkxuqWo/YZVL7qaxqP+xn+E/mE4gz7FR/Xaq91TKu6jnk1N51GBtFrYqp5T/a6qEaAaK6pXUH14khqRq6B65Ou61dVfQ31Y0ehVow1nhLh1qA/fUVsDqvyo3ssV7/kq9lX0nU5Uvl8fdukGpBodU8Gx2vtf5dl3Nl96W141Sqd6vBXV463WTqkGuCrrQpJD9DnkKm+rsuB8qhxS01NVmaI6FNSuS2oqmfpgMbWNqbh1dLXrqpWo8omZN41a4KQWPapKT2XYu+Zc/GEiQlwT+cRMUQmaeDTRRx7UHNaK7RlvJBW4q20i1fSfCdsn8NXurwxnhLgzqMXcb3d6m/61+zN+23h+CTrbaXAh9UE8H3b/UP9aNa7Vp13KyNCdRT4x8yZRLVSVEVXPW8X3qldOLS4TQohb1aHEQ/ri8H8jAFc95J42nnpwotaPSAAu7jRq2pkaUVOfkKvWWVwuAL+QGtmqmMol7iwShN8Eajjq8eaP63t7q8pMDXmreZhq2FwIIf5L1BQWNTSv5uOrz0BQQ+5LTiwxnBXi9qY62dQ8cbUzk/r4+cebPa5PzVKLvIWQ6ShC3AlkOoq4Td1b/17ub3i/PmddfTiP2oFpxJIRhrNC3N7UIs2x7cYyqtko/T2uFlWr7XjVZxpcjvoZ9cm8alGloqZ/qU/K3ByxWf9e3BlkOooQQoib6vfjvzNkwRB6zexF659bSwAu7ihqCor67AA13VQt3FYLktWn+V6O2uJUbbuqFktXcLZ0pqlnU30BubizyO4oQtwJ/oO7owghxK1OTUdRO6GpXZNOpp1kcchiph6Yajh7MfUhdurTqNW2n2pHInVkFmZSy7mW/kF95+/IJG5vsjuKEHcKmY4ihBBC3DbUdBQjhkoQLsRtL0M7DmjH2W1l/321tePsZ7AIIW5n6kNf1We9nP0wVCFEJXm/vQrC1Qc2CiHE9einHZZnvxRC3MZKtWO3diTo3wkhKsn770sQLoQQQgghRKU6G4S3kCBciNteHrgkutCrVy9DghBCCCFuVW3btpWFmULcEeKh8e7GzJ8/35AghBBCiFtVcHCw7BMuhBBCCCFEZZMgXAghhBBCiEomQbgQQgghhBCVTIJwIYQQQgghKpkE4UIIIYQQQlQyCcKFEEIIIYSoZBKECyGEEEIIUckkCBdCCCGEEKKSSRAuhBBCCCFEJZMgXAghhBBCiEomQbgQQgghhBCVTIJwIYQQQgghKpkE4UIIIYQQQlQyCcKFEKJSlJCTsolP+g3l0WfmcNyQenMVk5Wwno/7/Y9Rz80jxJB6ZTnE7fuDj59/mH79xvDtrGCS8wynhBC3mWJyEw7w+/hntPz8MC+/uZKwdMMp8a+TIFwIIS4pi+DFn/Li0J707Pnn8dgbX7D0YBLZheqa48x5egT39JzAmrhMivSfu5xySkuySQwLJ+pMOgWG1JurjNLibBLCIoiKvsZnij/OupVLmL9lP2FhRziVlkhmmeGcELeMErLi9/DDkwMY/sxX7EgxJGvSTm7hh1d6MvLNL9gSZUj8r8pLJ3LrQj5dvF3Lz6GcjtvLts3TGdvzEV7/bD2RhsvEv+MagvA6jLxrPYeeX8IYVx/sDal/asa7D5/hzIsz+J8hRQghbn+lFGankRQXTXT0n8felb8x4dNfCYxK1oLuIrIS4omNTiW3pFQLs/+5lJD1THmhMw+//uUVA4Sw1RN57v7OjJ2+g8gMQ2IliIs8zsnQIOyaD+Gdn37g/cc6Ur7zM15+qDMv/7BJC8oNFwpxU6lGbz4ZCbEkJKaTX2pI1pQW5ZGRHE1Ccjp5xYbEO1x5aTHbPu5Mz7sG8sNBQ6ImVyvjDu1eTYlzTe6b8Au/fPEYTawySY6OJzk9l//In+emuYYg3BRbSw887dywNzbByJD6J3McbKpQxc4FG0OKEELcOarQ8+nPmLcxkMAVn/O/Rl6UB+/k4OlUsosa8sivv7MucAIDqjpppeE/V1acT3ZaIqkZWRScFzhcqCQ/k/SURNJzCim5EdH/NSotLaGkpBg3dy+q+fnhYGsJhVmGZymgRHrFhbglFWQlkpSUTM55kXV5WTnFxYVYW9tSo1ZdXJyqEdD9KaYELuSrt+7C33Cd+HfIdBQhhLgiY8ytbHFwdMLJwRZLMxOMSt1xcbXEzPw4s58azt3dx7M6LuNsr9HeL3i6XSuaN2tGM/1oQdsOz/BHrH4zXXFmMru/HMtQ7Xyn3oOYOHczyeRzZt88vn77beYchPDtC3htSG+envg7RzINP6hLZ88vrzH+q1UcjIHAn17m3m738vGqUFL0KTIJrPrxNbp3amt4/eGMeG8z4dcaHWsBdcKWBUwYMuTsz3cfxMNfr2Bfeg4n1n3LZxO+YtVxOL7yO0YPHMCAAb146os/2HtG+9VnvMH9PQczcXEwibfGfBshriKe3TPHM/yBZxj33Qd88VQfemvv+4EjX2Pp4XByDVeFbP2Kt+/pTEc9T2nHsLEsOphCQYk6u48vunWi1fu/snXiYzRr3pyRs7YwY0Qz2nbuwZT9+i20fB/L5i+G0bH/A3y8Mels4jnJHFryGY/d9wLvfzOP2S+MoK/2Ov1GvMD8PaHkGK6CVHb+8RlD+3Ux5O/7GDpmMXsScs71WsctncKzHdrSUj//MHN2nGH2yNaMXapl79wMZjzZmm53vcycA7v4+cX7mbwZUsIOMPnhfox48QeWb5vO2O4jePXTdRw9tZlvX+lPs/tf5fttWibPPMz88U/Sa8BYft56+tzfR/w9lw3C6zScwvbRGRSNO8TnDRviYdqWt588RfK4Ioq0f4x+3feT+kaBdn47L7gZY2zcjx/VuTfTOaO9wYQQ4s4Qw6ovRzOgdUMadn2GX/acxv1/vWlfzRN7yijOzycvr4iSsnLKY//g6RdmsT0ti9y8PC3dcOSf31udQ3LyAr75cQVHtHNJUSdZNns6M7ckUV5WQlGhdq9SKCstoVC7d2FRCdqtz1NOWXEhhcVn00u1rwu064q0ILtcBeDjnuLjqcuITUo3vP5+9i14loEfbKH8qj3m2UQd/Z3xo99jzvHjZ38+9iR7p37MVx/9wt6UYoqKivXe7rKSYgqdbLCztcBCe5ZSLe3cs2jfSIe4uD2o/FREQdBmFn0zl5+2RhKlve9P7VrG97M2cjhChZkhHFqwi52hiSTreUo7Dq/gnQ9ncTgth1Lt3V6Ur6XN/5hnZgeSl5tHcbkPg+/vRXpmJou379XuUUJudjj7t57E3LwmTRq466/+Jy3PlBRReHQd878bz8R1+4jQXid83zre/2ouy/fFa9doAfjU95n8+XSOhCcY8vdRjqx6m8cmLSVKrZDeP4URn/7KRs+OdO/bj351ilkZHklxQR6FqsGgFQLqa71MKiuluFCL47TyprxM+x3MwKiKC46l2t8j72zZY12zOV26dqdV4nI2Lp/JrCVL2XVwGy7NAmhSq4bMgPiHLt8TbqQCaxNM1P+N1CQUI4y0r02MzqYZaT/659dnGevfmxiuvzp3r8F8/GAi5e9qlZd2pD06g4+7fcaskWnn0hLvn8gAD1fDTwghRGXTItfyMkpLSynVomO/e5/hwye7Ud/T0nD+PDERHNIC0vpj/iD46HGOTR2KsakpLca+x9Cqhms0Dt7VeGHWJg5tX86nD9UkMyeP03E5+LZ+iFc+/YQRLaFmlwf4ctU2pr8/jMaOhh/UOdP2iS+Z+MpAWvhAh2e+ZUXgSsYNrI9byAqm7U0k0bcPE+bs5PCxUDbMeIw2FsaUzd/ENvW7XEl2JkmH9rPJ2pcWj37DNi0Q3zr/J4Y3tyIjMxXX1i/y5vhXGNgQGt39ItN/m8+cucv56tWhtPWDto9PZvGO1bx/bxO8LvHnEeJmuWr7UwtO6/d/iB/X7SVw5pv0a+pCZGIKqdkqCHel+9Ov8MvOXQRpeeL4ps+5u7o7ZkejiC3UGqVn76DF0Y145duVhIaG8Nvw6ph36MrdWqM6f+l29hbnkRO+lx2Jbrj3G0xvT8PPXKjclRZ3v8nswBD2rJ3K//rUpezgCU6diibh5A6W7j7BMfs2jP5iKYFBoWxd8BqDqjtisWYP+zNzyNd+jzItoC7X4rAuw4fz7qxZzBrRiUdmH+HrIWBh68Tjvx5h9+ZvtXKmI09/v5jXe4Bb7Za8OX01v47txl+aB0b2NGjSlhZtAziqBeETPprDWst76XdXd1p4X1usJy7vskH4iSOjaT/FDpPxAbx05AiJJbv4YGoNnMdrgfacSazY2AzHD8208+35MllrwZWtZJQ6N9GeqstnG+5yZeXlWiusJJ887c2pH6WFWousmKLz0vK1FlnpVXOPEEL8W3y466XvWbV2KR90aUnh79/xzeIjRGRcomCq4keAsQnHPh9MQMP6NHjqd0zNLanrp0XL59hiYz2Als28sLCwxMPjvOj8H0pMiKGoqJA67QbSvqY9FibaI7Vqh7/WELiW6rKosIAk7R7kRLL/t5fo1awZvR9+lgVHkijQ7pueIXuXiduF0dn/jLQ4ouAkMXGGhdN6g7qEkjItR2iB6p99hvXx92uPr489Ts5u2Nmd1/Itc6Y4LoSf37mP7h2b0azvGyyP0PKE4fSfauLbwdfwtTFm5u3pPLiUvNzFzJgVwond20m2d6BnyyaGay7FAXt7VxwdwL6aH+2q+lJLPaR2pKUmaffKxjegM23q++BkBe4Nm1Bdu+e59Sgtn+fjV7vQJW4jbw4dTMMGw5h+quSfjUx516NVy2Z08FJ/Ly8C/FtQo8rlWhHietzUOeHJCUt5e74fNh/a6EfV355k3NY3eOzXKufS/Ba8z6qk8/YWEkKIm8GlNl2Ht6Z6bUd2rljP4djEiyrhslJ3LWQ3xcrWXqtI7XFwaM/wN/5gbBvDBddBDU3n52STm3/ljoiSwjxysnIoKC7FXWsE2GhB/8ntgRxLTCItK4vQzZtZXFwClhaYXSUUN7e0wrOKL6Y21Wg67EP+2LaNbfqxnaXfvcfQZk6GKy9NPUtudg75RaUXTKERorKZYm7hTdXqZqQkJLJ6yQrCtfyQEHmQpSsXMvOAFug6VsfD2XD5lYT+zoSfZ3AgfyBf/7CCbb+/Sx9fVywMpy/HxMyC9sNeoF5xJjuWfMhXv8Rj59SLlgGGCy4pnfTUaGKis4g5fowtEeGE+bjh6uaAr7sX9rYORAcd4WhkFEna7xO2O5CVGRlkW5hhqgXq5cV51O05kS82bGfBlGGYmx3j03fmEG24e3l5OYW5WWRn51F8TZF5GSVRwezceYBIs2pUq2bC8d0rCTwcIluT3gDXEISXkFuYQnJOKjlll9qCq5jsvAQSctKRz2sQQtzJXNr3oo+/P55nDrAvNJHM/L/WQomHl7KuxI/hU/5gzbp1rF37KU/0ctQD5GtlbGKKhRYwRwf+zhvDBvL8Z8s4lm04eR4TLdi2MDdl3/SxDLvrIT5fd5KUOi25y9sLj6h5PDewB+1ateKe0fMoM7Glw2sP0fZq3eFaBe/RpA29jVM5Mvc17tJ+vpV+9OHxcbMIusxWiCbmFlhYmHJw1ts81P8BPll5jKQrb5ouxL/O2taRZm3742CUxonfX6Of9l7u0nc4X885gm39xjTq0YmrtCvPMjXH2tJcy5NTeeheLV8NeZ8NsakUXS0/GZtg4duWHg2NKTpxktMOjrj1aU0jw+lLyyB4zbc8178dvYeMYcmWM/gH1KO+nzc2NerTobo/tZI38MmTg+mk/T79H/uGyMRSmo+6m/ZujmStfY+Bz43jjXHv8dOqYIyMzbG3s8REu7O5lQ3GhRn89kwHeg1+l7XJZ1/xSsqKo9m5fgUb15TTcvDzvPxkd1ob7SJw+26OxRTL2o9/yIQuvGf4+jJSOXjqV77fM5ddeVnoi+//Ip4thyYzefdijhpShBCVLAc8Yzy57777DAninysiNewYJyJzcW3SjqZ1q+Jg5oKHfSqhCWEczPOia4ADafuOc6akKm3vbUtdO3Pilixl8YYlhBwNZtOmdSxbvJdUSy/q1XCFwhgOrwshv2pTugxqjHtxHilRRwmMMaJO8w50q+OiBQ4W2FuXkJ6cSoFLU5r07kX7APeLPqPB2c0O08JkkjJLMK7Vmx53t6GBux8t2zXEJK+UhJw8LG1ssLdvzuBnP+eDodUxMb4waiijKC+G4A2hFPhozzSgBTWdqlMvoBqZidlkl5frPfpqeLx6/Wa0bN0Au6yTnDh5ilLPNrRsGoC3HTi52mFWnEZyRhFG/j3oOqgtjbxsr9pTKMS/ykx7//s1p62fGSU5sWSVqfdyFWo3HcCTzz/GfR39sSSPpFOnOHmyEI/WLWjWuCp22XEcPn6aeHN/urVqhH8dP6ob5xOTnEWJiSUBvXvTuVopeSX+tLunDf52WYSsOkCseR16Dm+Lj3FF/6YRpsY2eFvFM3t9BC4+3Xj+lWHUuORqxlzijwcRuCmHqu360L2ZM2VZRXi1uIfhDw+jYwNnzHGiVkBd7LVGb3JmLsYWWllh35BeD43j7Yda4ulgprWjywg/vpZDhyKJicmnRYshvP7W49R3MMK7miM5cadILnfHo/0wBvWriUt+JlFHtnKmzJ9mnXpTz7WIjLgIQg6mYNuwOf4Osexds5i4ut0YePc99PW3IiE1lf2BaTjWqEaN2h5YG34DcX0SExO1d8h7V1+vIIS4xcVD492NmT9/viFBVL4SdkzqzotzHGj36kvc52euFbCxLPzsPbZEd+K9lVO5R6ZRCvHfUppPQuAUHn92KUYD32Xa+F64GU79VSIHf5/G52/vwvmRZ3n59T5UN5wRd6bg4OCbOydcCCHuHGnkF7pjZxnD+glP8/iokYwa9Q7bzjjhU70FNSQAF+I/ppySwgyObtxOjI0DzTo2vUwALv6rJAgXQogbwp2eT7/Lo4PuoUmTJgQEBOjHwIGP8eG3o7jiWiwhxB2ojOLicI4fs6NZ4550a3qlENwMaydvagTUxtfLUaZy/UfIdBQh7gQyHUUIIYS4bajpKBKEC3En0ILwZvuasWTJEkOCEEIIIW5Ve/fulSBciDuCFoS3OdyGwMBAQ4IQQgghblXLli2TOeFCCCGEEEJUNgnChRBCCCGEqGQShAshhBBCCFHJJAgXQgghhBCikkkQLoQQQgghRCWTIFwIIYQQQohKJkG4EEIIIYQQlUyCcCGEEEIIISqZBOFCCCGEEEJUMgnChRBCCCGEqGQShAshhBBCCFHJJAgXQgghhBCikkkQLoQQQgghRCWTIPyfsu3LmN7T+X3YJzzo5ImtIfnSjDAzbcIz/Rcz/+5JDLU3JN8MjiP5YdgSFvZ+mFqGJCHEv6mEnJTNfDbofkY9O5cQQ+rNVUxWwgY+GfQAT7y4gFBD6pXlEL9/CZ++9BiDBo3l+zlHSMkznBJC3AZKKcwKZc0nL2p5+CGeeXERJ1MNp0SlkiD8nzLzo1m1XvSrWht7M3PKDcmXZoy589082qgv3d1syMg3JN8MeWnYeQ1kYMAI+jkY0oQQ58niyOLPeHlYb3r3/vMY9daXLAtKIrtIXRPCnGceYUjviayNz0RPuqwyivOjObBsFRu2nCTNkHpzlVKUp55pNRu3niTdkHpF8UdZMX8ak6fNZdmyZWw/EU5KieGcELesQhJD1jB51L2MHvcbBzIMyZqEg7/z6XO9efaT2eyPNyTeyYrySNn2C2MmT9fz8Nqtq9m8dwHjej/I8+8s47ThMvHvu4Yg3I97O01n8fBveNTJExtD6p/qM/ruzWwa8RF3GVJujjo83m8lGx7+jEHGJoa0SpCdSHJJAUXFBeSXlV0xCDcyNqZhrf7UNy4kMmIFu4rBzsaPkb23sGLwtzzpZbiwMhRtZNHpOEwsmnBXzbqGRCHEn4pJP3OMvVvXsW7dn8fcqZ8w5r1p7IxI1oLuDMJ372DzusPE5hVpYfY/lxKynm9e6MIjb3zJlihD4iWErf6Q5x/owthfdhKZaUisBHGnDrB/71bKGwxk3I/f8faj7SjZ+RljHurCyz9u4vQ1RfJCVLYy8jNiObZzM4FBYaQWGpI1+amRHNuzjj1HtPSb2TlWSYoKctmzegZhxfb0GTeDOT8/QSPTSA6u28beQ9FkG64T/75rCMJtqOLagrbVmuJnZompIfVP9tTw7kRn34Z4GlJuDjv8PNvTybcR3hgZ0iqBFoAXlpdeU+VrrP0X4FUf45JItp/YQY6WZmpiQ3WPzrSv0pTqVmevqxxZbDq2iQRjWwLq9qeeIVUIcaEq9HzmM+ZtDCRwxecM1jJqwvplbDueSGZRIx799XfWBU5kQBVHzA0/8U8UZSUSdngr+4+eJvkKAUFuQiiH9mzlSGQKuVfugr+hCvJzyMvLxsu/Pm26dKa+nxukniJ431aCw5PIqcRnEUJcv7KyUjLTkrC0tqdFl/60bt6cZq0f4vPApfz86b3UNlwn/n0yHaUSGRvdQ++aZpSUneZIfBGOtr14deDvjKqiNSEcAni0/25W3T2ZsXUeYcpDQawbNJEH3c/+rJvnIN4csIWtg97jPu9u3NP2e1bd+xHPd3iT8fetY+eTQay/+yvuda3+57x0h2482u83tj2+jyDtfNCwH3jLwwpTQxslOzaI00bG2HgE0OBskhDiIha4+tSlScs2tGleBy8HLQ/l22JjZ4qJWTirJo7j5ad/YmdKDvqsjD2f81SbljRr2pSm+tGMNu2f5o9Y/Wa6osxkdn/xCvdp5zv2GsiEOZtJIZ8z++bx1dtvM/sAhG2bz6v39OKpib9z5C893ensmf4q73+1goMxsOvHl7i32xAmrQohRe/dS2TlD6/SrWMbw+s/xPB3NxNRco399IVZJGxewAeDB5/9+a4DGfH1cval53Bi3bd8OuFrVh6Hk2t+4Pm7B9G/f0+enLyIPVGw95fXGdb9HiYsDiahwHA/IW4rkaz79GWGPPYqn/3wFhMe6EYXLR8MHv0Bm8MTqOhAP7T6HV7s0YbWeh7TjofGsfF0EeVqOLx8B+83b0HbCb+xZtxDtOrUjWd+XsLXw5rSdeD9zAg+e4+C+CP8Pv4eug57jh8DL5yUHcO2qW8xbPi7fPP9r3z/2BC6a68z6Im3WH38jFZaKMeY+fhQur/0GfMmPM9dndty/7d7Scsrhdi9LHzqCVo0a6Y/X4uRH7EgppzC7GPMeKo3762FnKQIpmlf3zPiWzaeWse3T7/Bx99t4eSZfcx8exBN73maD1eHacHCCVZ9+QJ9+zzD58uPSU/5DXTZILx67XeY+9BBjo9exhu1a+Ni0pRnhq1n7+jjHO//OF3aLmbfk0e183N52NkYY+MuTFDnnjrA1q4DDHf599Vr/BNbRwVrz7GQJz3ttACzPe88fYTjzxwjqNcQw1W3CmfsLbT8SRGFJUaYmjhS1bkuHuZgYmKDu1MA9Z1dyCuK4nC2BV19O9KuSkvt51yp6dqO7jUDsCOP3JwCXOxqUL/OM7zT7hWer92VNp5N6FL/MaZ0e5hGzipy78abfSfxTsC9tPNuThPtfJOaDzJm2HLecDfXxwrKi49yKsNYCyRqUMdJPZ8Q4mLRrPziafq1rE/9Tk8zfc9p3IcNoHONKjgY5ZJ4MoSjhyJJKyyhLHYRT476kjl7DxB06BCH9OMwh4+Ek3quhziH5ITZTJr4I8u187s2r+Wnb75i2uZECnOSiYuKIjlHq6CzUogMPUZYTAq5Wp36pxKyk6I4E5eu94BnJ0QQejSUmLR8isu1APztR3lr4g9s27XX8PqLWPTVCHq8t+VsgHBF2UQFz+ftES8wedWqsz+/fa0WKLzJhx/8zLaIeGKj40jPU8tK4gnLTCIlOYaUuFSytehEPdeJY6FEp+Vqz2K4pRC3lUIy4rQ8Nf8HPnr7Wz5fvI0dWj5Y+etkxk/fTniiCsMPsenzxSzcupd9eh7Tjj+m8MjYXwkvVdNSs4gOOsjez8cyasoigo+EkFTgSosmHmzfc5C52w5r9yggJTaYrUt3kpJuiYf3hYuzCslM1PLToq94751XeWf+SrZpr7Nm9reMmjCXXSdU0J5H0ulQjk37iBc//4UNO/dyMiGbktI9fDr4McbMms3BoCD9+Q7O+4yxdz3GvDPaz4Qd40w6lBYVEB9zkggjY8xzkgg/dJxTESmUeVanfuPGVDk6k8UztbJpyVJWL5tOvJUtvn7+WJ99QHEDXDYIt7DwxM+5DvVc/fGwsNCCWytcnWpS27Ue9RxcsbWpTh31tasfzvoUbFu89O/rUMvu2lb6ubj15rVBewl7Pkw/Dt73Ca+2fZPJQ4POpe0dMIburs6Gn7iYpVU1arnU1Z/DxdRYCy5t8HTVvnerR52rPIedQ1NG9gk891rBD05nTI1qhrM3npFrTaqVl1GacYZwNd80eyXvL+rDt9GQlRHED4sb0GnhK/wWHcXpiL2ccvClvncLWljWoIZ7M+qXHGZD1E42ZxefvaFpCSeC3+XhaXXo9ftnBKUX4FmrO3fZueNaTfu/m/Z6BWt56ZdW1Pu6BmNOnMLKviOt3SvmzBdSpFXuRphjfvE8IyGErpispGjCToQQcioax/5PMvmNu2nlY8tFq0/Ctco6OoUary7nxKnTnJ42DGNTU1q+9gHDfAzXUIaNhyMjvl9N0O7VfPaAHzGxsew7mY5fm4d57fPJPNoKanV7iG/WBfLbBw/Q1NHwozpn2j/1NZNevZuWWnHV8bkfWLNvLe/d3QD344uYvPQgR+3bM2HeHo6fDGPrzIdoWpRI5NdL2HqVpeNkpREbuJ65WdbUHfE1u8PCCFz4E8Nq5nH69GlsW77MuImvcncjCBg8hl8XLOWPxev57o1htK8O7Z76iuV71jFxaFO8LA33FOJ2lJdFrQFPMH1zEDt/fobmVcrZdTSC1GzVB+1In+feZk5QMKFaHgnb+hFdzIuJX72fU2WGPFZuhFlhTZ75Zi0hQbv5bkRDqvXsQ4/UDGKXbuVwQRoJofvYka7FMH3vplfVy1TC+bY0u+8tft11nF2rP6NzYyfilmxnT1jCn4u7s90Y8ML37A46zrKX2+FyZD1TT0YQU/NZVoeeJEx7xh/6+xJ/egXHkwJ48rddfDwAHLxr8vJvgaz4/B6qGm6lGJs7E9CyB327NSR46S+8+vJH/JrekZ5D7+euulYXl3vib7tsEH469A0GTKtJlcndeCc0hJSS/XzxWxvqTa5CFa3Ft2F7T+p85aOdH8BPqWWUlW1gjDr3VS2arltkuMuVmZja4Gzri7+Tv3742brjYuWMu92fab62zlibXH7WzNGDWgX1ra/2HHcxJT6b4vKtvPFlNe37qtRYOc9w1aUZG1vgYFPtz9e398LZzMxw9jplRXO8tMAwRHQZJmbody8t1qr1ckrLcrUMHUNGiZqjVUBGTgRnspPJLokiNmMD+5Oq0Mi7Ow+26EwTz4bkpx3gWOJe8s/Vo0lEppwmNDGcraGbWJ8RT5qpJdZaq7aBS3VczKwwtu3N+0OXs+nR7YyrVR8LY3NquTWrzFnzQtzmfLn7jV/ZtnM9H3dtRenyX5i5MYyYnEvkIu+q1DM2IfT7R+nSuROdxi7TF2QHNG+O3bk61g57h6H0H9SGurVr0bhuDS3/l1FcWoaZlT3O7m44WIG5tQPuPtXwcrXX8q3hR3UmWDl64OZih6V2T2snD6r6VsXV1oKkiGMkZeZSt+dI7u0aQN1a/rS/7x6ampthlJ3H1XYSLMzPIybiJHk5Zwia+waDOnbk7ideZkHQGdIyMkjVbuDi6oz2UljYOeHl5Y239jt7uNhjpRVuVg7u2rP44GpneW7amxC3lgxycsNJSDZ8e1mtaNGmLy1aNqRF4wa4ONpTVFJCWbma1uWDXUEUv310H316avl86Mfs1oLz0sKzdftZRlqV34QW97Wnup8v7vYO2Ht0pmevFGIjFjB9VjAhe7eS4eZF13atsLpsZOtJNf+61G/kT/PuXbm7ui+++YVnn8VwhdZkp0GfdtRqWJsqTlbEnTpKphZnlIdMZUS3rnTq1Ik3Vh7Tnj2f0PBEHLyq4WajxUCm5jhpX1d1tbkgsDbGzKcR7Xv1pZdbDmkpFvhU70WbJo2w/pshkri0y0a3JcWZpOTGE5edRFZxidrIiuzcROKz44jLz6GgMJn4HO3r7BRy9HeCFkSqc9nxJBZc2/LilMQVvP97XVw/cdWPmnOe5f3t7/DUrJrn0ur+MZG1yZffzKu4KJXEHPWcWvCqVWL6EI72DHHas8QXXLnKycrYz3fLG557Lb9f/sfEU5GGs9dqPe/PbU2NOe9yMCP1iv1M5cknidQCZBMnP2oa0i6tlPDkEJaHbqXMqYsWhD/LMP9CTieFEpJo6AXXOWsZyVavEP28GtLG1g1H7feOKsknODuRvFI1Vr2CsbM60/z7AGp+4Y2b9nu23r73huziIMR/gxb02rvg3qArw0Z3wbeaCX/MXMr+M/FaaXMBkxo00K4vzdLKxzitPExvyCMf7ODj7udXcUYYG1ljbm6CkZH29Q3czcnDsyrmFpac2HmI6IICrSSB2D07mK9V2H+Z0XIZ5hYWuGv3wNaPlo98zebgYI6FniAqLoGjy6cyqvVfuuSFuI1YYm3rgWeVMsJDQlm1Sq3DUP1nO/h1yXLmBXnj6lwF53NvcXPMtCDVxEQLpk1UXj0vXNr3DQ9O+JrDxU+yfM1uDq9+jw72F/cQGxmZYWJRkWqEnasPvR95miopx5g79R2+/CkNd48etG12pcg2VW8AZ+dA2ulQtiQlEFPTGw8nW/7cy8EEE3NTvTxRqlT1w0SVK41e5I/9Bzl8+DAnouJIjD3DrAfP7/O+guRwgrWy41CRO9WqWXHy4Dp27j2kNWHEjXT5LuZKUFZWRF5hOqn5qfqRVphDXnEeOYVp59LSC/MoKvt3Qsby8hIKis57/YIsLXC9lqrqPI4PM+WBPZwc+R1vuHhxxSqqrPRsRahljgszq4NTK166P4njI77nYQctDM8/Q2TCLo6UOuNqXxXvrDAOJR1l/1/+FG506/gb217K5vCICXT28iAxejv7c5PJCN9OYL7W4re/h28eO8jJFyOJ1I8tjHNV03ZUkVCPGs7llJZHcFqVRkKIy9Pyrc+ge7mnRi3cD29i1/Ek0i9YfBi15UfmFtfnnV1JZGZlk521hW9faorN3+g9ClnzIyOa12bgi9PYd4Vt/zZMGkar6i0ZM/8QSU07McjeEbsDn9CvbhWc7Oyo1+czUnOLaDXxWXoZKunLMXJwxrt1B3pnhxP4wyha+vnhpx8tGfryNPZnXbnK2PLFo7Sv0ZwXft1LzLX1xQhRSYxw86hGs9bdKE06yKJx/fDT8od33V589NNOChu0p3W3DjS/lvVRJflk5xUQtPh1Wjeti1+H19icmX/Vhq6RpR3uAd3oWjWTlKADHHJxxbNnO5pdcTpoFMs/fZg23nb4tRjJ4s2n8G/blAbeHpfYMvos4y69uV9rUJsfmkSv2jUMebg6deo/wsKEawn7Etm/ZRG/fRlDw/5v8v6E/9GTdezYuIo9EYZLxA1xDf8ax5mypBk+H3VmfFIUF29Hu4exUy2xnHg3MwwpN8cB3vnFDZsJ/fihrBI/OUJr6Vqa2miVrKXWbj4b3F5OWfkvrDppioVJN3rVOZuWnpfGr3vnsSfLBPPyIsozgknQ/8jJ7E/awtyTx7TWbRaHYzazI3zPBT3YoWyN2ML+jCzKzMxJjv2BCTsWcDw9g/KyJbzwxxjmRBygzNgcW3Nbw2GNhbHhKT3qU1O7Y0nqaUKvMlVUCKFld9MW3DuqM361opkybz1R8X/tF6rW+UkeMAthYqcq9LvrLvr160OfPi/y48Zrr7m86jVn8EP/o41PMQUO3ljVqYvjJQKDRn0f4MEBjalqW0BetWa41XTBwrodby+axnOD+2BWWkpOTg55+Y0ZPvEAW14JuMQWsxcwcqRWq1F8tvBLutfwI1f7eXWPnJxc8guKtTLMcN0FGvS8j/sHtsDXXnuWqo1xqeWGVaVuuSrE1Rm5N6LXs9+zeNKDtK+Wr7+/c/McqNP+OX6aMp5nB9amonq8ojYP8NXDPahia0xubi51Bg1mRHsLzK46qGWBu1dzhj3SX6ujbant34nHhrS4SiDWgrv6PMTgJtWw0QJ/v44vMu7ZoTTzv8Lnc5t053MtFniyczsK8/IMeVgd+ZRcQ12fELSD36d9zNGmDej2v2GM6NCDTl2bs3/2cubNW8P1zhcQl2fEe1dbqSNuFGMtGO7W/ThrWroQuLUXnXbuu/If37IF97X5iG9bu7Npx7u8unMJZ/QTLRnVayJvt63CtuVj+ODgGk7p6dfDiM49TrGpjRcHtnah1fZ9hnRxW4rX6oXDbQgMDDQkiJth82s+3P21F4Nn/sSrjSy1yvUUnzwyiDnHevD14bU8Xt1woRDiv6kwiSNLP+T+J1bhMvJT5n0+iEt/Tl8Yy99/l3feO0XLzyfy1ss98DWcEXcG9WmlN3U6yn+NWtCxO2Ql4cYW1Kk1kBZXbHEb4eFUjRZVAjBLO8XhxCBDAH6DGHVgaF1/SktPsCZEAnAh/rkznIkwxqj8IDPua0L9unWpW3cAM/aaYW3dmFoSgAvxn1eQkcrRbRuJdXejVedWlwnAxX+FBOGVqbyEwoS3+Sokl0Lb5nS+4twzX2o7d6V91QKOJu4nOOH8z68upag4h0x9Dnvx31tk6dqHNtZpJMctY4nMBxfiBqjGw5/N4tn+A3B3dcXJyUk/+t71PIt2f0IXw1VCiP+qXFISd7ByTiY1/DrQtdWVQnATzC1tsHeyw9rS9KJ1ZOLOINNRhLgTxEPrQ63ZsWOHIUEIIYQQt6pVq1ZJEC7EHUELwhvvbsz8+fMNCUIIIYS4VQUHB8t0FCGEEEIIISqbBOFCCCGEEEJUMgnChRBCCCGEqGQShAshhBBCCFHJJAgXQgghhBCikkkQLoQQQgghRCWTIFwIIYQQQohKJkG4EEIIIYQQlUyCcCGEEEIIISqZBOFCCCGEEEJUMgnChRBCCCGEqGQShAshhBBCCFHJrj0Id+7DU21e592ATjiYmRsShRBCCCGEENfrmoPwBjWe4pUO7/NwVSdsTAyJ18QMR9sWPNBqDCOr1zWkCSHEnS6DiA3zmDz5S6Z8s4UzmYbk20ouCaHbWTB5Bos3hpJmSBXivymB/Qt+Y+rkZRxKzqbYkPrP5RIfsk3PZ0s2ST77LzGhC+8Zvr6ChjzS8Wl6eOSxausnrE5JpaDccOoKrCzc6dLgJQa52tCgzot0tUgizb4pjSyzCclINVx1Ldxo5TeER5o8wN2121PPOo/wrFTySkr1s1X9nuGV5s0oizlKTFkp1/BoQtxZcsAzxpP77rvPkCD+uXyi969j+aJNRJY74erujPX1dECEr2Tc+G9YuG47R46VETC4N7XsDeduorLS06z+ZBorDhbi3bo6job0S8siYvdKZny0nCiHmjTvUhtnwxkhbk1lFOVGs3P298xdu4O9wSfIsqtFTVcLw3lNTjzhO1awYP5KNhyKItvEiareDpgZTl9eBGs+msKM5an4DWxLbTfby/xMGKsn/cyyfQVUaet/lTymZBIeuIIZk1ZyRuWzzh6kB25k6exdxJrY4+HjhKXhyhujhLyMo6z6ci5bT5Xh1dSHW6Bo+s9JTEy8xp5w1150cnWmJG4+vydlkFNmSL8KE2MLqrl1pF+jB2jt7Ead6kN5vm4Halpf3z+3u9cARrbW7mFeirlNJ4a3eoy+dq7Y6Cfv580OYxnokEeBUbkE4EKIG6SAhOM7WDV/EVuDo8m6zm6vsM2z2HAiCb++o3njtX74W+cSvHg8H3/xDdvOGC66hOzYI6z9dTzfz1vN8RRD4g1UXnaGnTN+ZfbcfSQY0v6ppCMrmPXteGZtPEZCriFRiJuinOL8RA4un8GMGTOY/vNs5i/YS6zhrJKTeIrty6byk3Z+xrQ/2Lg7nAzDuesVtXkKn00az9JjeZQYYqPy8hg9j82as5e4s0nXKZvYIztYPmM5O47Eat/9M6dXfsAHEyayNtyQQCmF2afZMmMOvy8LJtmQKirfNQXhTfw7UsuynCPHVnCk4NqHYErLCknLTcTIqSstXByo6taAmkYZJOde31vK0bkhdVxtiIpYwg/Hj1Bi3YKOTo7Y2vfhpY6v0KtsOR8FLuVgcZHWBhZCiJsvLvY0GBnRqPfD/G9oN/wtCojYNYeFi5dxJMlw0SXkp0ZwYMMcVm7Zx5ksQ+INZGxSj3smjGfcm33xN6T9U5kRe9m4fA4bD0WRnm9IFOKmMsXMzAtX+1QiD60mKMaQXJRGVOhBNkeVYuXnh29+EUW5BRQaTl+vxMPL+H3+HAKjCik19AIaGdXR8tgHvPv2XdQ4m3SdnKjVeQjPTHiGIZ1rad/9M3H75jB33jwOxBsStL+NtXMzhk14mzGju+BjSBWV7+rTUWx68GK7R+hse5pfA2eyMzODIsOpq7GydKZT3ftoULiVgwVVKE3ewsEyO8pzg9mcEG246upc3HszwM+bpLB1hJi1pH8NNyJCgrCr9wIve8by8c5PWBibQFG59IOL/yiZjvIvKCDu8E52H4jDrnEnWgX44XT+mvTMMxxespxp8xawYs0a1h9Phio1qWaXzd6fJjJt/XGi08spzkjkSGAoIaGLWbs9jLj0EtJjzxB+OhWHBg3wPDfOXETK6d2s/O0XVh+KJyktm7hTkaQWmePmWxUHszwigrcyd9ZsFi5Zyfr1QQRFlmLr5YKznblWmF8onNUTv+aX+FLcTqzjy18XcsKyKS18Utn12yqCUhyoq6aXFOeSvm8BU7+exeL167X7qmM7weF5ONWpSlnUIXati6DU1RWztP2snP07245HgaMb7q6mnNn+Bwt/X8GesEzSUlIIOxJOkUtVvN0dsbyu9UNC3AhansuL5+DyFZwq8qdNG0eORqRi4deeHnUcKEo5ze4189iaYk/92rUxOpGCddNWtG3vRNy6Jcz+YQuxli54+zpjGX+AuXNmMjMohyrenrjZZRD0x0aC4hxpOSyAvPXTmLt6H6eTislKjuXo7lNYNW6Br00cu35dwYFk7TW61sQqI4iFE6exOtsRdy2O+fXn2azec5B0EyeqVHPHgjwST2j5bH0k5o1a0b6zF3lHDrBrazglnj74VnfFKieRUxvXM3vOAhatWsWhqHJ8qnjiYGtO1OFFLJs2hwUr1rBW5d/jKbj51MbdLpPAHz7g5w0hxKRDduIZQoLOYNu4Ma6lYeycv5VT+fZ4Vc/TrvucRfsiMa3aHB97yIoOYt3cL1genI1tlXp4GKdxZtcWFsxewPwVK1h/4BRJZq54ujlhY2r404vrck3TUXyq9KeDqydF8RvZlp1J3nXEuQWFaWwM/oqvD+8hrTSb+MQVfLjra/6IPm244trERa9ja2I5zdp8xKftWlMetY6kqqMY1ciN3Xu/Z8mZcArKpA9cCFFZzrD5x6lM+fFnFi5ezLJly1g2+ye+GvcVG6NTCdu1kj2RZ8ukiD3LWXnkFKcD1+q9cSUFuZzYqQXRmw8R95de41JyUyM4fvAg4amqwoxk/+Z1BB6OJL1IC8B3LmbWt18yc+7vZ19v2Tzmz/icD2dv4FSC1gq7SCoh69ew8ocv+XDqbyzVfmZHRA7lZQkcWraC1WuPkVpWSGbYBqZ8+jNz9HtWHKvZvOs4iQWGW5HEycPLmTltJgu18wtnz+CXRZsIjskkNSyIYC0oT9YeIfn0Abau1dLPpJN/dsmOEDeNqa091Vt3pFZqJuHbDxJNDvERhwnckIaTVwABdR0MVypqEfJBtizboTVAU9CzZnY0B3dtYllgCIlZF/aV5xNzcCP7wvIo0t7r0Qe0vLZiB2E5alpsop7HVq0+RrKao14Qw4HFvzPvuw8Z/40WuGt56I+F8/n+51+ZueNSHZJ5JJ0KYtuybQSdSlIhOgeXzWHqlO+ZvUgLuLWfnzdjHmuPxpFRHMX+uYuZt3AxSyryr1YWffTjJmKLsgjXyqLdkWqKTBnhu5drz7SHM3ml+rz5A1o+37A1jIzSMrJj97Fw5UZWH1bPk0XCyb2s+W03wSdzKbdOI3TrYn6ePIUZCxeefY35M/npkyks2hpC8t8dRhBXC8J9aO/XhCrWBRwK20FsQY5WTVy74pJcQmI3skILmr/b8iTjDq/lSPR2glITDVdcm5ys7fy87Q3eCfyKz7a+xsunymhRpx5ZRxcR5DiEb+7R3hT3L+Onps2xML7mDV+EEOLviQzSKubd7DVqwKPvfMSU77/n5fZeJAQtZW+4He2f/4rRnVT3kBFdnv2Obyc8w5MvfsLDrcDKwY3+Y77iw3dG0Pwv48zmuNfuwj2PPkq3WuDVqDOPvzuJ5x/oRPW8ULZtWMdKrewLGPgMH37xPR+/dS+tnVI5vVirqLXA/7JTseOK8OvzDFO+/Zax3dwNiQYlReSE72dNdCkNHpvI95Mn8PLgAKw8vGnYrRuNzsUouVhW8aTXU28x4fVHaedTStDx05yOK6V290d4cEgH6npA3d4jefPj93igfXWcZSdbcbOZ2uDq355+7cyJP7GRjTvDiD5+gCBjdwI6dqSOreG6v8WJ1o+N54kertho7/U2Iz/l629fpYfnZYZ/Ssowzbeg0ePvMfHzDxjetwbRBw+xe22w1ji4ioRT7Ni7i83Z7nR/8g2+/P5jnu/hj4lxGQWlRtRs0ZtRH32mpX/P9xMeprFRBkdX7SWi2InOL03h2Y5GGJmY0vX57/jy82dp72q4r84YawcP6jZvhlNiKhG7DhOdlUT0yaMcMPOhSsNG1Co8w6H9O1idZEmT/73A59rrvPNAd1xSD3DwWDipsg7kb7tyxGrblvZeVXEpPsSGuBgyi/9O10Yp+do/4IGoTey+zuD7T7lEJ+1i4+nlLI+zpGO9gdTO/oMpaa70adQFm/gFTE+0YUC7d3jKxfzaJroLIcTflHEmjPi8XIrSQ9iy9HfmzprFuqNnKCzJIOxMFl4BHWlUxUjF4FRp3IXOzepSt0l76muBqomFFdWbdqZdq7q4n7dhg5odaOVUlRr161HVEWxcqtCgdTua1PHGJD2GM7GxmPq2okffQfTr1ZW7Bvemta83dmlZZBcUX2GtTh3aDu1P167daFbV2pBmYGyMiY0t9vnZhO9YzKz5i1l/MAZbRydqN2qEVpwaeOJbuye9B/Whd+dW1PF1p6CoWPt9jXD0qUedGt44WWlhSbUGtGzfmjpeDlhIQSxuOhOsHX1o0llrWCaHs2HZVvYEH8Hcpz5NW1TnH8XgWOJZvw0Nfaww0+JuzwYd6NylOT42Wqa/JHOs7QLo2K8rPXp3566ebWhUWESxln8vNY51vpzEWOLTU7Ct14zO3XrTs2tfhjz5KP2a+miNXU88nM2IDlnJogWzmLVkFzH5RZRl55NfbkkVrawJqKLmqRvho5VFnToG4HXBVivGVvZ41m1OU5ckUiJ3sWNfLCeO7cXSx4tGjWpDWjIJSfFk58URsmsNC7TybvmOA8RlppGQnEp27rkhM3GdrlhM+lZtS2N7N/JiN7MzO53cmz7luhWPd3qBkXbHmLR3LjHm/tS0y+LQiS2sj4/H1L4OtbWS/3JZQAghbgRrGztMTE3BJYA+9z/M4089xWsffsH0Gb/xWq8qmJvc2FLIwtIKCy14z07JISs/nzKt0s9LTea41hBIN1xzedZYOmq17qUeycgUc4tqVC8uIOnkfnbuOUZ0XkMGDH6K/nXO78pWr++MtbUZpqZmmGmHELcDFWB61G1BY9sYjm1ZyJJgMzxqN6GB1+XewxlkZWeTlwdZmenk52tf3BCllJVmkqNF3KWFhSQlJnDG2hILL2fOnxRzKZaW1pibW5CZnEZadq7W4M4j+dghQmLSyTmxkSlzFxIYXo27732Epx7sip/1dXZGGlvh7tOYbt3rEZdykqVr9nBsryU+Xo1pWNsaC3NL/Rmw8SGg62Ae1cq7l98ez9c/TmfiqJ7UcZPy4O+6wr+TL+2rNaaqTRQrD20mMif7uqai/BvaNnmSR7yLmL97KqujT3M6O5XiMntcbIy5wXWeEEIYJLJz7se8+PBQhg7Vjg8XEmrvRyt7BxyS97N42ndM/vRTPtWPPziRa3TFXZry0xNZ8O5wnh7zHYFX+LiEmINr+eKlp5jw03oiHH2pW8UHj6jt/DbxBYZrz/Hos5+zKTga124taVTFDTvDz12PUi34jj6+g3CP9jz/3QIWLJjF9B/H8djdzXHX94C9PkeWfslrT7zET5tOknqtK/iF+DcZWeLoXodmTVzJz0zGyNGH9l07cHEMbou9qy12zvHsWvAZL40YyiPv/sreU1dv5ipbvxrFQ/e/xYqYy0VKhaTFb+DTUUN5YMTTfPzTVkpcHanZpC4XTBK7iKlfDRp4euMatoEf332Wh4Y+xvMfzWVPRDpF2QmExSYQum8tU7/9ik9/XM3p3MKLyqCy0hJWTRzGiMc+YtNFuzMZY+7iSc1WLakff5rjW5awx7oKXk0CqG0FJl5VqVGtOjWyIzmwehZTzpV3M9l6NIHcSywLF9fm8kG4XRvaePjgmhrI72kxJJXe3BDcr+YbjG3RmozQH1kYeYDUEq0tGDGXZWG59LtrFTt6NuFEyMdMTpFtCoUQN1IRGfERnDgaTHCwdkQkkm3ckOGvvMDgNrVJiwzjiErXj1Mk5pdyqY2aTC2saNFvGO18CkmMCeN0mQuml/jIBOeqNbUgoSPVrVKJSs4gycwWE0c/ut73KA8P6YxFVjJHtdc6frIE/9ajeeuJQTT3sftb1aCxiTkefs3xSz/Cim8/ZM6cWfw2Yxo/T1/G3rBr/9y+ak060Ll1LWwLznAy04g8GwvVyS7ELcAIK/eqNO7Rm2a44uHRmmaN7bj47elAg47dGDCgLo7FUZxMLsGlXRca1/C9YgO3Yc+h9GxoTW7MMY4UuGJ22U+zssLOuhXt6tiQdSyUlEJnOg14nKFdqlziWS5gUZM+w+/jwQEeGKWe0PJ/Bvn1W9G2rhuuDTvwaLemOJanEnr8KDmufrSobaZPkanQbNBIetYuJyXyGMeL3TG71J6HJo64+jSmeYMCLbAvxqNGE7p1rHv2Q4LMq9JuwHAefbAXdnlpHDtX3oVwJimbwpvdQ3sbM+K9S3++TfsWv/Flh2GYhdzL8J2rOJJTYjhzc5hbeOJtbUNJfhyJhfkU609tiYutB65a5WZsVEJufjzRubmX/oWEuJPFQ+PdjZk/f74hQfxzpRRkppKakU3B+cWftTPeLvZYGZeQkZZBRm4eped2Z7LQgmhvHC2MyU8JJz5Tq9q9/HHVp2KXU1aYQXJyGjnFppjZuODubnvxJ+GVFVOQm0Zaeg755VbYOjnjbG+JWWkxuVlZpGXlUFSiHsgMaztnXJysMTe7VH9KPmlRiWSWWONe3Q0bY8NwYXkuyeGJ5Jg44OJazq7P/8dHG/zoPuYx+lYxIiX2AEt/W0ae33089/ZIAswzSE3Mw9jBCWdXW8yL80hP156v2BwXZyccrcy0P1U+2RlppGcXUGxij7ObE/aWptI/Jm6KMu39mBGfQHa5DS5e7tiallGcn0VKXCZlNk64etprObWEgiztvZ2cj6mjlsdcbLQ8VqDlMe29nZVPkZGW9+ytIC+XfCMtD7k4YG2u5fm4JDLyzXDyccXO3BTjkmx9a86MvDLKLVzw9HbExiiP5LAEcowd8KxuT1HCKsZ3+YCD/sOZMHMY1TJyKDG1wNbRDWcHCy2faGVNdgZpSRX5zJISLT+lpRZh7qI9m6M1piqPZWp5LEvLY6XmmNvb4+5ki4VpOQXatUkZuVp6GRa2WlppHjkFNrj7GfJ9cSbJSSlkFRphbOWKp5edlo9zSDmTSqGFA+5Vz34iZ2lRPlmpcaTlmWBho5UPWj62qsjEWrmUl6X9rpla0K2XP4oZdi6uONlbc8kiSFyRashcJghvx9ghX/JyfUv+mPcwE08HESeRrRC3LgnCxXUrIz/9CNOfGsa3Ry2xddaCDJNySksKtMregprtRvHudyNoJJG0EP9AMZmGIDyo5qN8tmI0zQxnxH+bCsIv03Y5wNRV/Wj6ZXfeCD9KggTgQghxhzHG0rYmd48eRxf/qmQlJ5CQkEhevikd+zzAK6/eRz0JwIUQ4l9z2ekoQojbiPSEi7+pvKRIC7wLKTas+zEyMsbMzAILSwtMZIhZiH+svKyI/Kx8SkwssLazvPoccPGfcIXpKEKI24oWhLc+1Jpdu3YZEoQQQghxq1qxYoUE4ULcEbQgvM3hNgQGBhoShBBCCHGrUh//L4ONQgghhBBCVDIJwoUQQgghhKhkEoQLIYQQQghRySQIF0IIIYQQopJJEC6EEEIIIUQlkyBcCCGEEEKISiZBuBBCCCGEEJVMgnAhhBBCCCEqmQThQgghhBBCVDIJwoUQQgghhKhkEoQLIYQQQghRySQIF0IIIYQQopJJEC6EEP+KHOL2rGP27DnMX3CAhBxD8m2lgNTIIDbMXs6WfZFkGlKFEFdWGrOb2XPns+hggiHlAoVZxB/dzOyla9lxOt2QKP5rJAgXQohLKiTh+HZWzl3IluBoMosNydcqdiOfvjaahx4awWOjprA72ZB+k5WXnWH79BnMmrOXeEPa5WUQtmseEx4ay2e/7CLOkCrEf03emX2sXDSL6dOns/FYMrlXLA/KKT7wMw89MpJn5hwzpF0gJ57DSz7loRfeY8qmKC0hj8STe1g5fTEb916pwZvGic2rWDB9HYdjM7RSStzOriEIdybA/3880vweWlrZYW5IFUKIO1sOJ9dP56OXX+fHVcEkFBiSr9GZ5V/y5dbTVOl4P4+Pao6zZT4nNnzHz7/OZt8Vot/cxJPsXPId81ZtJ+xf6CArLTnMLyOfYPQL8wk1pP1TaSe3sGzOdyzbfZqUPEOiEHeMFILmfsWbo59g5MiRjPlVa5BmFhnO3SjpnNo2l49GjuPb+ftI1FIyI/exbsF3/LHlMHHZZ6+CGLZOncSrIyez4mgcuYZUcXu6hiDci65N3mJSn1fob+eClSFVCCHE5YUc2QVGRrR5UgvGJz9HG9ts9vwymjFvvseq04aLLiEzci+/fzmaCd/P56CqiW8wYxN/er30PKOf6oSPIe2fits7lynvj+brJfuJORcsCHGHSNrH0vWHyfFoRqsaLkRs3M6p9Cyud3Dsymyp0rAL/3tpOAM61cZRS0k6soppH43mszkbOZl29ipwpdFdQxn50j208nXG0pAqbk8mdOE9w9eX4U6bevfS0a2IAwf/IDBXhj+EuOXkQNXEqowaNcqQIP65fKL2rGPjjigc2vSlS6vauFoYTinZcYSs38iCFavYtHUrO06nYeThi7dtDofnf8eMpesIii7H0dGZ1BPhnD69mtWrt3E80QjKTchJzMCuVq3z7llMetQhNsybwdIdx4jJMqUou0BLNcO5qhd2pvlEh+5lxZJlrFq3iR07jhMSU4qNuyMONuZaYX6haLZ89yuLEktxCd/OL3+sIsKiAY28iog+HE2+ox8NW1fHsTiPTK2ynztjCWt37NDuq479nIjOx8HfjfwTu1n/xwnKfKvjaRrBzqWr2Xc6DuydcXEyJW7fWpYuXMDGw7FkFpmTm6D9HVw8cXe1x0ImPIo7QOLW6Xyz+DDu/3uVIa6hHNkZilWngbSq7oJVRcbL0PLu4ln8vmobOyJzMc87zvQVR7FpfT9je/lDWSE50TtZuWgeS7cEcTwujaToI6w+VkCDjv25r7krualJJMYXYedfBavcEDYvmM2a/eEk55uRn5JFuY0jrh5W5MXEkZZvg09jD7L2L2PxstXEmNfCx9UWc+15zmz5jl8WbSTVpSU1XUwxyghn7+8rmLl6NTsCd7Nfew2bKn54SAR/U504ceLyQbirRz/ub3gfg2p2p0v1ltSy0f5xje3x825LR/sS9qfFU1RWZrhaCHFTSRD+L7hSEB7Lrh++4+vPv+fbeQu0oFi7bu9RwrXYtHozdw688wCTthdSrl0Zc2gTW08WUXBiGksPQklhPuEHdhAcZkST++6mgf3ZO6pFkDFBy5g26TNWhkFuSgxHAg+RaVuD5p0aUH5sBb989Qmfff8bf2iV7saNu9gVdIJIc3ca16yKm42Z4T4VDjN1yLNMCjxG3JZFTJm1iPh6I3mkRSgfd3mS7/c70fuVrrhGbOT7199g4vdzWbpxo3ZfdewhLM2OpgPaYROhgvBdhOXGcXT7chbO/4MNe4NIMvOmZh0vklZ9zTczVhOcDGlRR9mz/RQ2LbrQuoEPDhc+khC3nQS2/PwDS4860/+xh+ntEclKraEaYt2FIVoj1kmPwiNYO34c7339LTMWrWfDvlBiEuIIi0w1BOHVtAD7AAvefIMJP/zCvJXb2XXkNGdi44nLszYE4SYEr5jBpBfmEObqgzOBLPxuNjtjITP2FAd3hoB/C1o2N2XXxA+Y9PVRnPu2xC54GuM/+ZFNRm0Z1NofJ+sYFo5+mNd+iKD2I4/QzjOaVa+/y6RvpvPj4sVa3t7M1qAwUnJsqdWsgQTiN5EKwi/bT+Hq3o9Rrd/i3S7P0MfdAxtjHzq3eJHXu7zLuwEdsTW9eulqZuZM03qv8WH3D/Xj/XajGezlbjgrhBC3qZhAps+ax++Jjgx6biwffPghj9c1Yu+vn7LsmCXNH32fh1urytmINo9+yIQPnuaJUW9xXxOwtHOh+xPv8/qL99LI4eztzjLH1b8dfYYOpX11cK/bhgdeeoORg1pTLS+UdQtmMG19GN7t7+e1dz/kzee7UrdsPyu++4Ndp5O47FTswyfJrDOI8R9M5Kn2roZEg5IC0o+s4pst8Xj/Tyur3xnLE33rYenqQZ32Hahra7iOFAqsSqjZ92GeHz2URvaprNm8l4NhRfh3GMo9d7WipnbrGp2H8dybL3FPi2oSgIs7Q/xBth6Oo7BmW5pW96Bel940c3QlasUiAqMyKCjVrglfx6Spa9hT0pjhL07kw6eHUN809ezPKyX5pGkN7E9nHyDJsxdPv/QmL97dFl+Tyy2/tKJq07sYMKg7jbygWst+PP7qKwzrWg+380fjsKN+pw7UcnEibOVWQjKyKY7YwKKgfAoa3cddtcwxOb2cd6bMYaNZU17RyqkP3nmTgTaRrP75Szar9aDiprpsEJ4Uv4ivt7/OmHWfsCQ+nuyySNbtmsBb68Yw5uBGskuuvijB1MyBhjWf4Y0Ob+jHKy0foa+7i+GsEELcnjJDjxCSnUmuVrlmpaWSkpJCRl4h5eXxhJ4upsnQlxnaTAvCjaD50Nd4dXg/7rr/efrX10JtOyc6PvQKo0f1o56d4YY6M5x8m9N1wABaVgO3ms25+4lnGdanKY6poRwJOUVOtc7878mxvPXmG7z19pP0b+CLY0Qc8Vm55BvucrHG3Pvaa7z2xusMb+lkSDuPiQkmZWUUZKWRkppGRk4h9p5etOjRgxrngnB3are4l6fffpM3n7mfTo28ycrLJzvfSAsQ+tO3WxP8nMGvzSAee/4J+jSugr2p4UeFuI3FHdhOcFwUabE7mDX5fV77/A9OJWZRfmIVvwdGkV2oReFR4RwtLaWs6TAtb77GG1pee21oM8MdNCUlFJ6JJNTKEc9ujzHuLS0mevFJ7u9Sy3DBhSzwatiNnr06Us8DqjTpxgPPPM2gtjVxuWB3DLv6nehUyxmHiBVsPp5B8KrFHMrPpcl9valhbkra3h0copzy4hzStHIqJSWVrMJCiopjORUhWyPebJcNwtNSNjI3aAqTA39ji/YPl1cWx+7D0/g2cDKTQ/ZqlU+J4crLKy5KZe+Rtxm9arR+vLT5Y2bHXGbPTCGEuE2YmpphZKQVnxaOeFWrTo0aNegy4gU++/JrRrVxxKxinugNYqIFysbaUVxoiomZKWZaRVxaVEiMVg5ffftxZxx9HbXn1VoEFzI2w8K+BnXyMji++icmfzuLNSEe9B34mNZgsDFcpDjhYO+Pq7MVFpZWWFpaG9KFuJPFcWD7EeKiMkk7soE5P2sx0eS57EhI1xq9yWxft4eY3ALOTcwtyiVPrajUlBRfoqOyvIyysnwKtMZteXm5FptfPY66Ktt63H13e1xd41myaRt/zDxEfm4T7u1dA3NTY8xUYaExsnLDVyunaterz4Bn3+GLSeO5u54MV91s/+qymZKSLE5EzuS7fd/px4/Bv7MlVVpeQojbSTJ7Fn3FW8+O0ufcj/piGZHONWnu4Ih9fhKnjx3m4MGDhiMVS2e7Swe8BgUZSSz9+BnGvvML+65QHMYe3sTUt8fw+cwtxLr4U6+qLw6hm/jlozE8oT3HU899wtLDkdh2bEp9L1fOdVpfh9LiQuJDD5Po3prHP/mZn3/+kanffczYJ4bQyM1w0XUIWf0j77/8Nr9tDyPtRu/gJkRliwli27EYoqr247n3vtDyh8oj6niDu33cyNuxjt3RuRTWakg7U62BfGA2rz7xOKNGjuKFn/YbbqIxM8OqTn1a5GcQu+obXtDy7+MvjePblScMF1xZ2LYFfPra6/yw8jDxF22VakPNfnfR3tmZhKVfMi8oldxm99C7uiVaDI59+650wojy7GiOniunDnMsJBcb179Taogb6RqC8BjW7n+DZ5eOZ1FW8uXnHQohxB0pm/D961n02zSmTdOOtQeJNW3KUy+N5p76NuxZvogZKl0/lnE4pYhStSLzAqbmljTtPZhm7lkErV/AokPpZP1lfudZTlX8adWhLe6FIWzatIUdMbnku9Shz7CRPNq7PkkHNjNTe605i0/hUGs4b73yIJ1qunCJW12VkbEptk5eOOYnEnYwkNjYSE6F7GLDqg0cjMgwXHV1VRu1pl1zf0oiNrNkczAhuUUU3+DRACEqW3TQDo5Hh+PbcRD3P/KUvkf42eMlHurjjkP+TlYHRmv5szvvfPAgPd0i2TjjF6btiMRqsJYvDffBxAqXhncz7rVe1Ck8wPLZv7MmvhzPjj1oZLjkUjxrB9C2dUMskvawavM+gtIKKLpUvnLvSN92DjgkBRNe5MnAJ/rib21xNsCr0p+PP3uFTrbJLDxXTs1g9vxNnL4tP8X3zmLEe/oCfiHE7Swe2hxuQ2BgoCFB/HNFpJwO5mhoJCnn9z551qdjQA08zHI5cfQkJ2MTKDw3rOxEw+6dqO1oRvKhP9geXk6NDkNo6qGdKi+lKP0EQUHHic62xLZqY1q28OGiVTIl2aTGHOdISDQpZW741GtIA38XbIuyiQkL53hYNFkF6oFs8fCrT0A9bxxsLjUBO4UjqwI5nedJq0HN8DYzUVPUKS+L58AfWsBtUZMWXb048tEgXvyxnCYvPMygGtakxgWz7o/tWLccxavvDccv+xRH9sRhWqMeAU2rYZebSMjxoxzLtiegQX1qe9hAYRKRJ48SGplGjnl1GrSoSw0XG/lwN3Fby4zaz+GQSIyqtiWgVhUczmvppoZsYM+pDCxqdKZDHVcsCiM4dOAwYcml4OJPQDNPMjfsJaFmO/oHuENZMQWpWv4/HEpsrsr/fvi5mJAckoBZ3aa0qW5BSsRJjh5IxKJ2fRoGVMWuKI248GMcC0sk07gqtZpo+c2rnITdQYTGmOLXMYAaHvZ6PksN3ciek+nkFTlRv0sH6rhYYFIxIJeTwIF9IUSkViwWNcbC2pvGXdpQTWaW3TTLli2TIFyIO4IE4eK6lZGbepgpg1vwzj4P/JrUw8eqlPycJMJC0vFp/zJTloyl7d/pYhdCCHFFKgj/V+eECyGEuFUZYWlThV4Pv0pbb2tOBW5i06atHD6aSMOOw3jxlWE0lABcCCH+NdITLsSdQHrCxd9RXkZxdgqnT8eQnHN2gqipqTnObj5U9a2CrcwnEUKIf4VMRxHiTqEF4U33NmXx4sWGBCGEEELcqvbv3y9BuBB3BC0Ib7y7MfPnzzckCCGEEOJWFRwcLHPChRBCCCGEqGwShAshhBBCCFHJJAgXQgghhBCikkkQLoQQQgghRCWTIFwIIYQQQohKJkG4EEIIIYQQlUyCcCGEEEIIISqZBOFCCCGEEEJUMgnChRBCCCGEqGQShAshhBBCCFHJJAgXQgghhBCikkkQLoQQQgghRCWTIFwIIf4VReQkRBESEsqJk4nkFhuSbysl5GclcSYknOiELAoNqUKIC+WSePIEoSHx5BhSbg9lFOenERNymojoNAoMqaJySBAuhBCXVEJuSjSnj4dyJkkLQMsMydcq+wi/T3iOe+4ZzLD7v2N/oiH9JisvzyI6+AhHj8VdQ7CQweltv/H2PaOZ8MM2YgypQtxZSslLjyM8JJjg4D+P0LAzJGcVUnJNeT+Yaff/j8H3fMdBQ8r1KyYnNZbTwSeJSsispEZvntZ4WMaH9zzKmPdWEGZIFZXjuoJwWysf6no2o6alOSZGhsTrZGpijadjPeq51MDdxJB4I5j50tSzATVtHfibj3aWsT3u9nVo5OKLs7mFIVEI8d+TzfFV3/HOE8/x1ZKDxOUbkq9R5tYZTNpwErtqDWnazJpS02JSw/cTdPgIcdmGiy6hODeV6BP7OXrqDOn/QrdUWcl+pg69n0dGzeSYIe2fyk+N4uSR/ZyMSSPvtuzxF/9tuYRt/Y0Pnx7K0KF/Hk++8i7fLt5PeGoh19sGv5qSgmziTu0nOOQ0yXmGRFI5vnYabw8dy5dz9pFgSBV3rmsKwm2tqtHAuwv3t9DekIN/Y4y3G9bXGemamljh5dSYLrUeYGy3b/i807P0cHShqls7etXoddHRzr0armaGH74Wjo/x4+Cf+Kzd4/Su1pw6to6GE9fJogG9Gr/Pj33H80yDfrRyq/7XYNzSl0ZVOl/ymVs52WEpYwtCCE3wwS1gZETzJ79h+k+v0dEuix3fP8Tjz41h8QnDRZeQHraTmRMe4vXPZ7AnzpB4AxkZOVOzfTvatKqOgyHtn4rZOY2Pxj7ER/N3E5VpSBTitmOBc5XaNGndnvatGmKZdJRF02ez+egZsksNl9wgOfHHWfrZQ7z0/hdsjjIkYo6Dpz8B7ZtQx9cFS0OquHOZ0IX3DF9fxNbMnTqerejXcDQvdRzPCL9qGOXuZkPoCvZm51NiuO5KTIzM8bStRRv/AQxv8TYvtnyE1rbpnI5dy8YMK9q1+ob5vccwPGD4X452FlEci9/DqWvtfTL1pl61RjT2f4Cn6rWnpoWFlmmKKciPI+t6Mo+xLS5OtQio3o1+tfvT29MXa2MjcgvTyCnKocjjUSb3nswnHZ+56Jnr5y5kTUICmTc4swpxVTngGePJfffdZ0gQ/1wBcYd3svtAHHaNO9EqwA8nc8MppTCLpFOnORwSyunwcCJT8zGydcLevFD7uUC2bVrJnshy/Bq0wjYvjZTkY+zdup6jieY4edfAtrQAC1dXbEwN96OU/PQ4QnZvYse+Q8QVO+Nk74K1uQnWDnZYmBSTkRTN8WPHCD0ZRmRkIkmZ5ZjbWmGpXXNx+z+D8F37Cc4pxyYtgn1HQ0kz9cDL3gorBw+qN6qDfzVnrMq0cjI+lKD9xzgZGandVx0xJGeWYOlsSXbYIXati8Coem38vUuIOxZKdGqWFq9YY2NtTFb0SYJ2rmOXFqgUWFXFwdQUS+157WwsMf1Hw5JCVJZCkkL3sWd3HN53jea1ca8yspcveadCOX44HY82bWhcyxu70iyST58m+Lghz6fkaYGSlucttPxnFMP2H1cSXFyH/s92o1p5GSnRBwk5eIITKk+diSEhtxx7e3uMC5M5uWcL2wJ3E5Ftj5OzFzbGZVg5OWNrpcUgVXzxr+uLp5M1Zlwt32dx5sAhjqQVYloQTcSRE4SGRZBSYIy9iz3mRmczYWr0gfOeJZo4rVVh7+CEpWkRWYnH2f57EDnVmtNtUGPc9Z8Q/7bExMQrBOHW9Rhc+2Fe7TKOwVWrUJRxiK0nZjF154fMTcqgoNxw3ZUYW+Hm1pOxLV5idNvHaGiWQuiZtSwK+oafghext9AWZ0t7rEpiOZ58/C/HoeiN7Ew4RXyR4V5XU3iEtVG7OFlgQoGREw2rDWRUgw7YFieSmnWC2Gu9T2kKkWl72ZUcQ1Kp9nwOjelXqzetnJ0oyQsnrsgYJzNjcnMjLnrmA5HL2Z6aQd6NHrcS4mokCP8XXCkIzyRy80rmf/MTk3/5lUXLlrFy7ylSy13wr2HGrvFaY31nEaqYjNy3mjW74ok7Pp2VQVBSmMfJwA3sOZKHf6/u1LI9e0cVCMQFr+a3L75mTbj2T5oUxcGtgcSVu1OneR0skw+xZsE0vpjyE7Pm/8HKlTvZdSSBHCd3alZxwU6rkP/qCL8Mf5lJwXGUBC7kox9mEVblHu5pEMpX/Z7j2+1mtBnZFreko2yc+hEffPwzc1eu1O6rji0ciTamZuemWMeqIPwoSSWZRAQuZdb0WazZd5QcGy/8/ByJXvU9P87WGhfJkBIWxPYNhymv1ZwGNTyxO9fAEOJWVhGEHyPN3BFL43ySw4+wb28wCcb16X53ZxpXNyZh6yoWfPszX2h5/velS1m57xQpZc74+VfFxSqeHecF4T6lCSz78Dk+nzybOSpPrV3PtpMZ2HvXxq0smAUfvcfvoZCfkciR7ds4mWZN7fbVSd/4K5+9Op9TNr40ausD0ZfJ984e1KrirOX7Uyx8eRwfbw0h/eQKFn4/i98WL2NveDpOjVpTx9kKI6MUVnz0LJ99PpvZ6llWr2VLaCp23o2o62dBngThN4UKwi8/ecJtCCPaP0vvqpbExSzks+UjeWHr1yxJyqLgWoNMMxc8a7/GmHb98eYYa/d9xGvLR/Ph0U1o9Q/kBrN+/8vct/C+i44X967i4PUuMc46zebdL/P8wrf4MeQQKQ4tearHr7xY1XD+WhVmEBU+j+/WvsIHW2ezPceExo3G8nLj3jQuXMnXm5645DO/HaK1PmU+pBB3voxDzJ32G3NOZFG7Q1f6DxxIO+sENn41iRUnoGrrfrT2O1u8Vm8zgAEP9qF329401coiU0sb6rTvR8+uTfC20i8xMMHGpTr1mzXD3wXsPPxo0bUXbRtrwX9xDIFLZzFzSSBl7g3p2XcgvTtXwTZlPbOnLedARBqX7WfYpzUkiqpyV7/+dKh+LuI/q7SAtJDVfLnkJMbNejKwbw/a1/fEzNYOD39/PM6NhyeRnBtFvkttWnVqhnNhFKs37uZgeAEuNZoSUN8XN+3WbjWb07l3NwKqOWF1I9f8CFEp0jm6cSafvv4CL7z1DZuTTWj9QE/a1/bCLkMLnH+Zyezj6fi366zn+fY2SWz55hNWhGRTdGFcVB5NYYo3tbTrBva/i54tqlEWvI2583aSbu9NnRbtqKtFu9ZOnjTu3IdOrWrjeuEytNwr5Pufl3Eg8rx8f3gTOyLtqdqpN12aeJIQtJqpK8MoKVNdAVreTfCkpnqWAf3o3aY6Rsd2MHv2Vv6FGW/iOlw+CM85pLWkthGSUYyDY1O6NxzEkJqN8bO7jkWZpblkJW1gU8QxMvGinm83BjXsTVevKjioHiULb+pWG8zIpiMvOob4NsDnetdFWtaipd8QHmvan/ae2hs1/ww7T2gtvgzD+Wtl6oSXawf617ubQbVaUsOijNi4PWyKjSTWtAFdat9/yWfu7+GCrVQ8Qtzx8k+GcCQ7ixwrT2o3bkbLVq2o7+2MqUks4dFmtBn1AY+21QoDIyPajfyYj0YP5d4n32FYU62Ysneh19MTeWvMUBr/ZVK2Oa4123PX/cPo4A8e9drx0Ni3eXxwGzwzTnA45BQJLi24+/HXmTDpEya+/wR31dPK0hNniMnI4dzarovUZ+gr45j0ySeM7uhqSDMoL6e8sIACMwvttZvQqnlj6lVzxFYrP5v16kU9O8N12FG92V08M/5DPnrlYboFeJCRk0dWnjE1Og7j3v6tqandumbXB3lx3FiGtPLF8XrW9AhxS7DGq3YrevTpRSsfT1xdPKnnXwUXWwsKTodyNCuDbGtPajUy5PkqLpibxBERnUlp6V+nBxibVKfzfVq806cVrVq1oGk9b6yLSymJz6LMszG9RjxJ73rgpMU6Q158j+cf7nHeqNhZRXGXz/f2Wr6P/ku+r0KPJ8Yw/uOP+eCRtthYmnAmOVXL4uq5/Og8tI/hWVrSvH5VbEq0Z4lN5XrDI3FjXT4IT13B1B3vMn77L+zOc6JLm/f5tNd43mz/CN0cbDC/lkC8JJ2405/xyroP+Pn4fkrd+jG61xd82u1lHq3bnlqO9enc5H1+HvjzRccHzXrQyMZwn2th1Yp7W2lv0p7f8HPPh2hscooFgR/xxrrX+THecM21MNUqVZ//8XznSXzV802eqOlNUsxivtj0Jh8F7+CYRU9Gdfjsks/8eu1qOMvwqxB3vJLiIsrLyqAwlTOnTujzNXO9GjFoyFCaehphfIPnQpeWllBWWoqZpQvOTvZYW6gedSuKTE2vYW2OO841XLT2wCUeytgEc8dqVM9JI2jBp7w94Stm7yiicdOOtPI9F4FrXHFyrIOHmw1WVjZYW18QLQhxR3Cgbsd7Gf36Ozw/uBPOsQdZuHQnh2OzyS8pokzl+YJUosPO5vkcjwb0H3wfzbxNMTH+axBeFnua5WtXsGTRJo4dD+FkZPJ178F9pXx/8dKzBvj7eWJuZoKTk5tWBp0X3sWFa8+ynMW/b+TYseOERibJfuC3iMsH4ZqEvGPMOzietza+yfvbf2ZFshMd6o/hXhdHLK6xkikqyyUoYSmfb3mB1zZN4tvgvaRa9mRInXtpaXSG4LDfmBw4+aLj19MHibied4ltP15r2gG3/O18tWsi72wYw/Pbp7I7O9JwwTUyq06ran0Z6GFMcPhvfLjlLV7ZPJFpYZuIL8qC7IOsPvrjJZ95fmzSDV9BLYS42bKJOLCBP2bPYMYM7Vh/iGxnLXC1tcPSzB4376pU8/XFVz+a0aqem1YhX76ALM7LJmj1TBYs2UFEriHxEjJiQtmyeAFrA0+Q4+iNj7snRlq5uG7Rb0zXnmPajwvZEBZHudb493a05XoHDpWy0jKyEpIptvOn032P8MgjjzHy8WcZNfx+WnobLroO8Ue2smz+YnadTCb3WlbuC3Ersnal/l3tad7Qh9R9uzl0OpryqrXwt7PHytwON6+/5vmWdd0xMzk/nCqn5ORKfthwmPRsd3yr+VDF3YHz13VXyEk6w65lc1mx6TBxF8Q8Vh5Xyve+eDtcY74/vZLv1gWRmqWepRpVPRwv+Syi8l0xCK8Qn7qd+fvfZdzmcby37VtWpmVT9NdG31UVFKVyMHwGX21/lbc2f8R3RzdwLOMkgcc+Zcy6MRcdHx/ZTsjlx1cvlredGVrw/d7G13l5x08sjb/O4LtCSSzHImdqjYZxvLFlEl8f38SpnPP23Mrcxuy971/ymaeEx5IuFY8Qd5gMjm/9nZ8mT2LSJO1YoAXP5nUYcldv2jimsnL6d3yq0vXjV3bFF3LByLTO2NSMag2bU9UynR3zp/DDssPEXGJ9jbWjG/61a2CaeJAls2eyZH8UaY7+tO3Uiz61LDi2dh5faK81ZfpOCq2aMfThfrTydeEv08uvVXk5pSWFlJiY4+jqTr16NfDxLCctJoyoPzcvviqnqjWo5edG2qGl/DJzGduj068wPUaIW5+1bwu6tm5MdeMItu0PJcasFoP69qGdcwZrfp16Xp7/hZ0xeZT8Jc8bYVItgO41nQjbO49Pv5jC4qBEbFwMpzWWtg741amHXd4p1sydxpytp0i6sDxwulK+v4vW15rvfQLoVceNyP3z+eTzL1i4LwHbC2amiZvjilsUXignL4pjcXs4UaBVMoa061VSmktc+lGOppwi8UYGrMXh7Is7zImcdEPC31SWSULmcYKSI0gpkgEbcZuQ3VH+BUbaf6bYefpTv6maS3neUacu9QLq4F3FF5/adWjWosV55xtQxdYUYyMjHLSKvLWW5uugZn6Y4Ozli4dHFWoGtKVNl660rOvChRM7zNUWZZ5V8fapSf2WnWnXvjl1vd3w9q5G1er+VPWrQaOmTbXX6Uyv/kMY0KEuHg6Xm4Btj0+TZrRo7Y+zifG5DzIzMnbCX3uupgFuZOxfybY9KZRqr+FqUUpSXCg7N2whMseWalpQ7mhmhq1LNeq1CqCOn1bpq5tYOFClRgNaNfDHy8FCazi44qr9Xj7VG9C4fQ86tq6Nj72F9tcT4nZhqgWm1ajbpAm1qqmtQ621hqk9DlU8cPTW8pyW7+oF1D6b52vW/kueb926Id52Wp7HAV89vTpOTl7U9nDD2b8Bbdq2pXvf3nRoWIOaWkO8cUNvHC0stXxeDa8qftRp1kELtttor+GANebYe/hSv1Ujavp4XT7fd6yLu73K9ypD2uJVP4BmrWrhYWV+djqcvQ/Nmmvlj78zxs5VqOvuilP1+rRu04Yed/WlY6Ozz9KkURXstFDQwlZ73tZNaVDHk+uZCSz+PrU7ipEWgl9nn7YQ4pYTD413N2b+/PmGBCGuppyCjNPMffluvgyuRoMurahlU0puZjTBe05j02AEb339JC2sDZcLIYS4YYKDg69tOooQQog7j6m5DXVa9cPfJo+DK+ZrjbjfWb/5GHa+7ek3oDPVJQAXQoh/jfSEC3EnkJ5w8XeUl1KYGsP+/SGcST87lc/U1JKqvvWp06gOzn9rorkQQoirUT3hEoQLcSfQgvAWB1qwYcMGQ4IQQgghblWbNm2SIFyIO4IWhLc53IbAwEBDghBCCCFuVcuWLZM54UIIIYQQQlQ2CcKFEEIIIYSoZBKECyGEEEIIUckkCBdCCCGEEKKSSRAuhBBCCCFEJZMgXAghhBBCiEomQbgQQgghhBCVTIJwIYQQQgghKpkE4UIIIYQQQlQyCcKFEEIIIYSoZBKECyGEEEIIUckkCBdCCCGEEKKS3QJBuBFGRiaYGptgYqR9bUgVQojbWznlZaWUlJRoRxnl5Ybk20x5eRmlJaWUlmm/jyFNCFGZzpYlKh+W3a4Fibikmx+EW7VlePeNxI87ydIuD9HEkCyEEDdXOaXFhRTk5VNYrCo/Q/K1Kj3B4lHtMTOzxNH5RTZGGtJvulIKc3PJyyvSvrqaBPbNfYPuZg0Y9OxcQg2pQvx3aOVAUQH5ebnkavnmz6OQkusuFP6uE8x7/m4amnXjtVl7iKeM4oJ88nILKC7VGviGq8Tt5xboCddaeOXamyg/nZS8VJINqUIIcXOlsfO7p+hRoyGPfr6GUzmG5GtUvOpThvyyBzMbBy0IjyPOuIzCnFTS0jPILzZcdAllJYXkZqWSkZ1L0dWj5OtWUrSKp22d8PJ9g22GtH+qtDCXrIxUsvJUYGJIFOKOkMSa8ffQsqottrbnHw8y/UQCeYarKlcwP/2vK3VshzB5+2kytZSS/EzS01LJKSy9bUfd/osuH4Sb2OFi44m3nfdFh4u5CcZmTnjael10zsvWEydTwz2uRX4GmTlJpBq+xdgKeyv3i+6rDjcLS8zM7HG93HOZGct0FiHELWHTmllgZETnzw4SE/k7w5xTmP+kK9UbtuST3YaLLiHhwELeHuhKhwdeY+kpQ+INZGRkiaO3VlZ72mNuSPunQha+zJDWrgwev5ij0pMi7kim2Di64eGlxRta/vH2dsLa1OQmxRymWDtrz+LtjJ2Fqf4MeyZ3o2lNVx6fFUFG4dmrxK3v8kF41ReYOTyY2JdjLzp+b1oVh7rfcPz5qIvORT13jCm1DPf4O9zu5a27Ay+6rzpWdepOg7qv88cjxy95fl6AE5a3QN++EOI/QPVYJycRHRVFREQEEXFJWuWnhoZLyEqIIiHrbHeUl3UZkZFxxCWcISVX9XQXkx4fSXRsCrkl+iUG5RQXZJGWnExmPhTlZZEUc4aElGy022rKKMjNID72zNnXi4ghJiGT3KLSywxHF5AefYbI5AxyU+K1Z4ggPqsYE9P2vLljC2tXPkdzdVl5KSXZScTq96w4tLI9IY2883riy4oKyEqKJ1o7Hx2XoD1jofZEpRRkJpOSlq337udrX8eeiSElu5AS6Y0Td5RajPhyJQfCtHgjVh0/8VAtd6zUqZIC0rQ8r/JYRFwKWcV5pERGEpWqZWQtd5aV5JCk5ano2AwtV2rKSrR8k0hEdByJWWcj5tLifDKSYvT8pefB6FiSM/MuM7JUm8GTfmDxjs94sKk3xinatVrkra7NSYkhSitvMgqL9HIoUrtXSkV3fXk5hRlxREadISnnL4WPuEkuH7IWpxCdfoqQlJCLjiittC0tjONkSuhF50JTTxL3T1phJZkkZYVddF91RObmUFiYRFT6yUueP1NQqlUKQgjxb9Mq3YOrmTZqBC3r1cPf3x//no8ybukR4nIjmTW8ASNna1GpVunNfLgmtRoN46EHWzJmqVZJJkXx1f8a0K73WFYmGG6nyyMy8Fc+fvllftkLpzbN5NmebRk+bjZBGaXka+Xeql/eYUCX5mdfz78DHQd/yI9bT5FaeKl5K3v5uH0L6o96j59HD6J2zZrcOz2SkuKNvOpfm4DmEwksL6MkLYzdkx+mh37PiqMJvR/4iM3nerWLSAxay1cP3kUb7Xyrnvfx2R87iCtIZff0Mbz54Vx2RsCuqc/Tv1VP3lpwkHg92hDiTlFIelwkp09o8UZICBFJORSXqpZmHkk7FvLKvQ2pVUPLO/2eZtLGmTxVsw6NP9ihnS8mM/4PXvAPoGPvrzigbpUZReDUUfi3H8iTs45pCSXEHF3Np4+2p11FHmzZg8c+/p3DsQWXWLtxnFlPDNaufYypuwOZ89YAnvv+GLGZsOL1rjStN5BvD51gyQsdtXxfg2dWZOs/VVacSeDHfanXpDOvrUrS08TNdfkgPG4qT85vT/1v6190PBIcR9bJsbT5MeCicwE/tuXVcMM9/o7UZXy+stdF91XHfbu2EnLyS4bPaXPJ8yOPZRh6jIQQ4l+Ut5svX36T99cdxNqvBo2bNKFm6i6m3v8gPwQVYl89AH/XswPVrjWb0HRIVzrXaEg1JzAxs8CzZgAN6lbD0Uy/xMAYC1s3vH19cbMFS3tX/Oo2oEZVV2xK49gy7UM+mjSdqAJH6jdqQsM65eQGf8nYd39mW0jS5RdZLvuJj/dmUb9hALXcLAyJBiW5JOyfxhMTNpPkW58mjepT09seEwtL7N3csT83tTCC46fXExhTgkttX0pj9vLzzGVsCs7G1s0XH28X7LRb27n7UqdBXXycbTCTuYHijhLOvDeH0qWpFm/Ur889n23Wgl6toZ2zibcfeJHZQeZUrR1AY06zZNQYFhl+6tqkkR4VypkwKxy1sqRJozpUK49j7S8zmbX+EBmGqy7NDCef2vh5WGFuAo4+9WgUUAcPa1/uf+ER3ExNWLhgBdlqjC73KKtXhmLl1YN7Onobfl7cTJcPwi2qUMe9Ga2rtL7oqGdrgal1DZp7t7roXCvv5tTQx2euU1kJReowc6WaS5OL7quOhg6OWFv7UN+j+SXP17UxvcIvJIQQN0ZR0F62ZKSRVrU7z4z/jG+nTmXMXc2xtThJaJgj9363iyn3aRG2kRH/++YAe2e8z7s/buSDvmDj5sNT0wNZ8/v79PIw3FBnRbWWw3hhwgQebA41Ov2PTxavY+pb91IvZT+bA4M44tCBUZPm6F9vXfEpo1r74xx4lOMJaVeoqFvw6o/LOHDwIDMerGZIMygroyQ1iUR7N9o+9hFTv5jAK4Mb4+Bfi26PPkpHV8N1WFKv+/1MWb2dnfM/ZkTnqiSkZZKUaUyLhz5g3MtDaO0LrR6dxLyNi3n7ngA8LQ0/KsQdwQoP/wY0banFG61b06iaIxamWkvzQCCrigopavEQPy/fS9DBINaOa2P4mWtlS43mvXnpu8+Y8stULR++yaM9A3BOSCcjMYMsw1WX5k6vt+cx6bF6eNlDn3eXsXXPbEY1ssesXX8e9dCiokUL+D0+j5wjK1h12gqf4U8x0Mvw4+KmunzM6vkoXwxew+5Ruy86vmvgiV2N8ax/ZMdF53Y8vI73/Qz3uCZ5pGYdZ1/4DvaknCHJuS+jey266L7q+KVVe2rXeJqp966/5PkpdR2wkChcCPEvy8pMp7i4COJ38Osn43njtdeYF15C41btcDZRQ783dkJ0Xl6OvkWak3dd6teshouNVm17VcHO3gETwzWX50vVVj4YGV+ia9rEFAuvWtRNi2Hlu4No0+M+np92itp1GtO8+rkIXOOLt2d7avg5aq/piL2DsyFdiP8KPwa/8wv/Z+8u4LQo+gCO/667u+/gijyOODqP7lZBQRQbFAUUFRU7EEVUEEEp6e7uOOKA6+7u7nznOR4QKfEVT8X5ft595WZnd+fZZ2f2P7uz++w+KeKN8+dZM627CHpvupVl6Ymbvaqi342ZubUy8Wb1os9bTmWlou9bR1XlTeO1qmrJiYli28oFvDNzGm+8t4iNJ8N/5wr4/fBhxIuuGKns4Jvvj3B03R7itOyZMLDhaRDpH+DuIWt5HFeST3Ao9tBtk39hOdUlwRyPO3LbvCPxxwn+I6/yUiskPmsfP1/ZwpW8HAyr0onOOHPbehXThdxsikuiuZR8/I7zLxdV38d7byVJkv6IcjKir3D2mGhnDonpSiwq1k2w1zdA09KHcS/MYM5bb/FWw/QZbwxzRVPt7mMxairLiL10lFPnQsm4x7jpkuwkgs6e5HJ4CvXmdthZ2VISfInDe3ewW5Rjx5ptbI9JotjOUgTlOv/Xm07q66Airw49XWta9ehP//5DGT1+Fq/PmscoD2WmPyAvIRi/E2cJUzyAJhtj6aFSQnLIBU4dVbYDh/yIzi2nxtgMG1VVVIO38dPhQxwU8zYeuapcRkFFdIB10DVUvHpU1N8th9h3+DjHL9/06qPcKM7sW8b3J0po3vFZ3pr5FMM7uWKonP1HZISd4fiR88QVVjf8tkGHye/ga6xC0LY3effHaDQdJzLQW5lZ+tvdPQjPWsfcveMZ8MuA26bZEVmUxH/GmA2Db5s3eMNYPk9WruN+aDanr/eXbB7/HR95+uCaf4Tlxyfftl7FNO3KRWLjVzBz15g7zp8TXUSVHBMuSdIDlc7xn9/l6ZGinRkgprfWcFm7JRN6dKdt9Xk+fuYxhijSG6bprI8qveObQVTV1LFq4o5xTRprXh/NE6+v4tIdLlhoGxhjY29HcfBuPpr2DO+sPEWsqSe9uvVhgHEGO754hVFiW4+8sJT4QhtGTh9PHw87DJTL/xF1tVXkpoSSauTB4Kdn8O67s5n2TFccdPPILLz/JysNLGyxszYmavsnvDh1Nj+eiSdPvnxBeqgks+fL6UwYdr2uv8AK/0xKm/fnpd5euOcd56MRQxn46DMsOF2qXEZBDS1dD7qOdEK75BifTR7GIzM/Z1u0yq91VlsPcxsHTMrC+fHTZxnx5JusPhNJ1R8Y2mtq3xQHCy3OLJzCmMc/ZGdKGQ1V0KYXT45wpD48nChNC1pOHYxXwxLSP4EavZin/PffQ1UXY20DtOuSCEi6gH9e+gO4BSNJ/zEimLPPtGfq1KnKBOnPq6U0L4eSej2smragRQvl5NOLQR270Ktve8yNzNE2McfVw0M5vx29hvXB01SDsvRw8rQ86TZ4HG2tFUG4GtZOduiogKFTe9oNHs/gno6YKbd2nY6+HmYWJmiLdtGqlS89h/anSzMXPN08cHByQFvfFIemTcW2ujP88Vm8OqE7rla3PHDZoJTMqFw0XNrTd0wH7DSU7zSuLyYtogCD1t3oN6Q5apHnObXDj9DCdEqzkrl88RT7d58mU8USt2b2qJcWUlSiS5NunfFp64hhVQnZBWVg0Yw+ndrgYaWHsaUZxvpaaBna4NRpBIOGd6K5SL9TqSTp36WGkqwsytTNsHe7qR1o0ZYeg3vTwsqFDr2cMdSoQcvCg2YDJjFrkB7r9gSg7TOBOQNd0dA0omkLG7RVVTFy7kDXMU8weWx3rFWNadalK11bOmBmbom1thaalk506tOHwf070cLRheYdO9GmmQm16flUatnjrUh30qMsOZ86E1c6DfbBzdIAWwcbDNRBy6wp7r4TGTOiJY6K33RBHw/zVL5bcZ56u1F89c3zeOopP5r0t4qMjBRt8rwHPHhRkqTGlw6dAjvh5+enTJCk31NPeV40yye1ZM55b/o9O57uZtXkpQeyb8MR6ptP46tN79HHWJldkqT7Ur/vOVSHr8Ro2h4KFvZTpv59ik/OpF2fRVRP3szFn0dioUyX/l67du2SLxORJEn6b6pHVb0eC+euWBHLzk9nMWvWm8xftIti/fb07tMdVxmAS9K/XCpHlu4iVtWKviO7ygD8H+bvH44iSdKfJ4ejSH+YCuoaxjg3b42pkTUOnp74+PjQtWtPxj02iccm9MFRvmZQkv64qhJyVKzx6eFL/+Y3v2Xo75BKwPE8bDoOZcLjvjjpKpOlv50cjiJJD4t0aH+5fcNT+5IkSZIk/bOdOHFCBuGS9FAQQbjXeS82btyoTJAkSZIk6Z8qKChIjgmXJEmSJEmSpMYmg3BJkiRJkiRJamQyCJckSZIkSZKkRiaDcEmSJEmSJElqZDIIlyRJkiRJkqRGJoNwSZIkSZIkSWpkMgiXJEmSJEmSpEYmg3BJkiRJkiRJamQyCJckSZIkSZKkRiaDcEmSJEmSJElqZDIIlyRJkiRJkqRGJoNwSZIkSZIkSWpkMgiXJEmSJEmSpEb2u0G4u8MkPhl1gaBp8cS/IqYnN/KFgxn6MnyXJEm6hzQufP0yvr79GDJ0MVfSlcn/KnlEHPuR13yf5K1vjpKoTJWkf49S0kI28bbvI7z41g6ilanSrYpJ9F/LHN8JvPL+HmKVqdJf696htNETvNr7TZ5v0Y6WZs44G4vJYSQvPbaMSTpGaCqzSZIkPXwKCdj8CS+OeIT3fzlHUpky+X5dWMvLq46TmppKSnoA8bXK9L9ZbfVZPuvem4FDv+eKMu3u6qguKyInNZPcgnJqlKmS9OcVEbLrK14Z1Z3u3a9PjzFhxnqORudRocz159VRU1lCbmoG2TklVCtTG08dZfmBLH/al5GPfciRTGXyAxPGuucfZ2j3ueyMz/kT+02xn4ob9lNOXuk991Nh0DY+mjay4Tt7+bsDROQqZzTI5viXUxnTX/F9vsvu5HwqlXPw/5Z+vr14YVNSw581VbGsefbm7787/foN5Y13fuZ4aHZDnofdPYNwD8dutDV2wDhtD6/82Br75e+zpqQcVR0vWptroKaizChJkvTQEQFoeTEFuXkUlVVRW69Mvk/nj22gsKKGtrM2c+r41ww0zmffex3xHTKG5QHKTHeQHXqAr1/oyGMz53M0QZn4QFVSnJ1NTu6DC0hiD3zKtHEdmfb9YaLylImSdE/11FSUUJibTbY4Hq9NgQQc+ZzZCzdyOTZfme/frp76umpK83NEcFtERZ0y+YGppqwgj9zsIspr68TW/mpJ+B89g/+JyIbv7NiVEBIzc5TzFOqoLM4nL0fxfW5n7e5ISkqVVyCqShuWyS9X/l1fI8p+8/efTUpKLPt2LOLdt2bx1YmHPxC/ZxAeXZJFaU0lKgZVlNYW4KBjQXdVdbTzT3Mgp4rqv/7bliRJ+leqrq4CFfD0aI6RoR6aKoqryoUUFhdTeY9LyvW1VZSXFFJcWk71Az9hg5pGT+YF+HPm+Gt0UKb9WXVV5ZQWF1JaUY2IAyTpD7DF95n5bD4TwNEl8+jmZkFZfCrpxWUP8Gr4w6wVT67azvGALxnX1AIdZepfJjGGqwnxlPQcy2NDuuIZFUJYUia/uRiu4OZLPy9d4n7aytnCEkRreBdq6Jn05P29AQQEXOLMgaXM6O5AdlQYR3/6mYc9Dr9nEF4Xv55taQmk641l2fPxnJ3wAs7VWxm3cib7SovkrUlJkv67MoPYP+c1+rRvT4sWLWgxdjaLg4uoqE1hw9PteXFDtYio61n/XCtatXqUx5/qzpt7oCQrie8mtaPP8Lc5kKFcV4NyEi+s5as35rDGH2JOrue1ob2Y+v5GggoV8wvwP7iEJ4b3vLa9FoMYMnUlByJzxZJ34s/Xvt1o++ZSDr0/Ga9WLZm4JpHa6lO8364jPXy/5pIiW0U+aZtmMrphndenTgyf8iUnbzoBFkf6s+7lifQV8/uMe5ZVp4MpIp9Lq+bw3vzNnE+A88tnMabHUOZtDSBDRlDSfVERHUMNtLS10dbMQ1WlBGzMMdfVQbthfib7lr1Bry7tlMfmOMbPOUhEec2Nq7719Qn8/M5jyvletOnwPK98689dH8MozSZu+3JmDhx4bZleo5i6/JiynkGc/xo+ebwH3RvWJ6YhU/n+YBT5Dcd0EMsfHULXGV+y6efneKGrN21Enkfe+pHoqur/40q0qPehe3hjyiBl+XvSa9Tn/Hg0AWVxRIEOsvLF4b+Wp2Eaygfbg8isCGHVlDH4tnudLbE519qC1Itsfm4qbVu1asg7cd6phtXUVldw+MdHGH99HW07M3D2UgJ+0w7dW0JMEEmJRTT36Er7tnYY6F8gOCyJ7Fuj8GhVOo8YgI7+SVZvi6Ls+tXvO1BRUUVD8f1rG2DmJNqeV6fxuGsxWTmBXArOUuZ6ON0jCFdB1dQFB029hoqgoqKGasLHTFg5g91FLrwzJZeKdw7xkoaW4mKPJEnSf0d9ED/PmstHO/eTUa4MgcP2sGjcFFaEFFFdL1rF6w2jqipqXq40vamlVFHMVvzfnSiTG/5zPU99AZfXf803Hy/CP+b6rd9E4s5+xowv1uIffacxIPXU19ZSu30hMzb6U1N3I2RpSK9T/F1bRlbAal56dy/hN2bXUVtXp+g/3CSeq1c3sv5ogAhs6kkPOcXKX/ZyKrSooYzXynptavhsir8l6b6kcmjxDIa396Tr0ws5Udqduc+MxMfNVByLGex/70Xm/7CLrMLrvbpQgne8wsj3D1FeJQI7EYCvfGwgX2wJUAbANVSXnuTQ6pk8973/HYLiHIJPrGLemwvYl3RtbDJZkZxd8AHffb+VkMJ4oo5c5PzVXK7VKlFf4s7y7TdrOBGdToXib1E/ag8s570vT3OqQDEqoI7AbV/x9qoYUXdu3+LdlZPkv4MlM2ex68L1x55zyIpYyVffLmTNcdGzzb/CmuVr+el4jPJqc72ou4r6q/jXtb8V5alrGIoiUuov8uXEV/jo1DkqFZmEqxuX8EtSPbVVpzm+MFjsQaWKQhKPrGPe9/u4vzg8kZigRBKLPXHzcKanTwesbZ05FxxGctbNQ1KuUWk/mhfaG5H84wZOFZfd54VbTQxNXPHu5CY+S8MneqjdPQhXGcCHgz5nqmcTgoJFI5+fQpnz23w+8jUcjDrhbqaOal4MIb9tqSVJkh569cFXOV6YT27TCSzYcohzly7xw1O+GOtEEZ9sxfhll1j8iEZDRDrhhyACfvmI938+xadDQd/SkZdWXebozo8YaK1cYQMdnDpO5LXPPuOJ9tC052N8tfs4y997hFYFVzlxIRB/rbZMnLeKYxdCObX9Eya3d8T4bBAhGXkUKNdyu1a8tmiHaMdDWPuEkzJNSQTjVekpJJjZM/TD3Vw6toOl03tg6OxKz8mT6WmhzCdOFa49h/P1njP4bfqcST1sSc8rEIGRGh0mfcq82ePoJFbd6ekv2XJyD++NaYP1tcuYkvQ7FFfCtdDW1UVXRxuttL18Mm8Juy4nUxp0gDWXM8l0Gsh7K47jHxDK4VXP09NIB/Udpzmr6EyeWsHngSpod57MioOhBF29wPrPhtNcBH2lBy9y6+MX9TnZJIWHcNGkOf2mLeaQqLs7vvuIIc0hNz+D/EITOo6dwtf79nDC/xKXDixiSmc3DOMyyBTrvPGQIWoM+WAZZy4HcvhDX4x01QlKSL6l8/o78lKIOnuEnUVOdH76U3aeDuXCkZXMHe+NXYQIdkPjSRbtTFpxIVq+z/DVhuNcWvsufdvY02TcJEZ1dMfqlnpWf/EceyorqfaawdZLAYSEHmDZEy3RED1jdW13nl22VOxb8bn8jrPzm8m4lVdRFZXK/TwvWp8QS1BiPMVuDjhZmaBq50QbUwvs/Q5x/EocKbc9vG7DiImjMDY6waoNEZRV3ufT6aJTU6d4CEfRwb9+IeIhdfcg3LE93gaWmKb+wIcXXqfTmk/ZlZGKmQjEjz75OmN09CA7mEtiZ8kwXJKk/5Kc7AwqKysgfgtzJ49mQJ8+zN7iD1p65ORkiBPxg20Vi4vyKSkuwNrVm3Yt3bDUB9OmbjiYmt/HGNAmOHR0QEX1DiczNTU0bZxompvC7rcH01YE2s9+64eJsSnONjcicMEJW5vuuLqYYGhogpGRqTJdkv4sxZjwz9l06gpXjm7mu8fb4VawU3Q04wiJTqdK1LMmbfvj42qMjujXWrdph6Om5o3gJTU1XoTxKrTsMZ4O9uKQFvPs27QXa72zivJS8vKyoCCC48tmMVrU3Sfe+oIzqRXU1FRRWlxHRUYS2757lQkjetFn7BzWXoqlWLn8r/rSwdsdHW11bO1dUFVVU6bfv4qKcnJzMzG0cMS7fSeaimqlZ2WDvaMLRso8GJthb2BM1ZGlzBjXg7aPfsDx0Dya2FljoHt7TzczI1n0rWvw6NoOe3U1sWfs8JnxKiPtRP2vNCLr6g7efLIHffoPY8Kc9X/gVYR1JMSGkhQfQdqJlbz+aE/ath3Pe3sukkIil4OjyMoruz0ebDua6R1NSFy2nmOF5WIt91ZfV05eZjiXxPevp6OPg/XN7dDD5+5BeG011YpbHPbdeMXFg7bsYOaB1fgXF2Fr7ICaOODOp5zAUktLuYAkSdLDqJbK0kJys7PIyhJTQSlGVvYYauui6jSCt5esYeuuXexqmPbx7cTmaKvf/eqNYihIaUF2w5sSKu9xRqqtKqcoN4eC4nJ0TCwwNTEnOzySoNAwEkQ5Ii9e4nB6Blk6WmiKk+09xhbeVX29KirVJliraWNoZomlpSMerScw9YV5jPVUZvoDqsoKycvJpbi8+g+/TUb6r1LUryLyFPWrpo6CenVq6jRRV1fFyt4JAx1d4vzOE5iYSJo47kOOnmBXZSX1+jooBsPaNxX1TYR+QYcOEyTmp6em4n/iFEdEp1NDBKkibv8NHT0DLEX91TRyp/vkD1lzo+7uYdWHL9BX+zIr1v/M/sTmTJuzgl2r5jGurQui3/sn1VNXWyHqtLIdycmjQkULKxsHyjMyCBT1OUqkx4v6fSoigghNDTTFpFKji0GdPqZ6RphaKOpoG/o/9jkzhvngYqxc9U2snVzRU9cg4uhxAtLTycwK5MD7H7M5qZbyM/OZ8uMJDJt/xK5tG1g2bywuyuV+V20SsaEJxMVpoy86BpaWirIoJlMMtDRIuRJMVGYu5bfVe2uGThyPpelxVq8OFR2d2xuG+roq5X5JIzH8JNsWLWVzggWW1r54N1Nmekjdvd1OOcuJ7EjiKjwZPOAYl15OJXXK63TRUaWoOIG00hI69g0lfvgU1B7y2wWSJP2XpXFk6Rs8PrAHPXqIafYKLuk0ZaCLM44Ze5j7+Ah8FekN07OsCS++81tNVFTR1jekvjiVn6cPYNzUrzl52ysFQE1dE109XdIubufdJ8cza9E+Ioyb0NajBd7lAfwybyqDxLZGTvmSgNhK2j42gC5NbDBULv9H1FVXkBx2nHCrLkz7bj1btqxh6aKn6d1S89p42/ukITokujqaBK5/n6fHPs3XByPIufvrECTpJhmcXPUuTw5S1J8RvLkhkFzN/nT0sse0UzsGOTnjkL6LtyYMp4847se/spEqFSN6vPYonTTUUenoyyQrMzRCvudRMb+372Be+ewMZs5N6f3MUFoqt3KDqSUurdrRSzWNs8tnM/xG3R3L64q6VqGFvq4OeeE7eePFMfR55G22BiZQ9v/0cn+jiryUw3wwVrm90VOYfSQbh9Yd8FXPbnjAeYRIHzzuVTYeSsG9Tye6d/fCMD2UwKxCbEfPYMHKjaKOLmTO020xFxX+juPP23RlnL0lZgk/8cwAX3r2mMzbJ3PQVxdNkI4+xhrVnFk3g559hzBp3jZSb+2l3EVNUjxhCdEktBrKK4u2curUKeX0C3MHt8Uu7QoBkZnk3x6Fg/ezfPyoLemxEdQpx6n/SnFR4iyfjVfslz4MGvsay/2zcW7TjF4TfPFQ5npYqdGLecp/3yKJ82mx5FZqYqmlQllVPjlloYREb+arw5P5JlYXGwtD6rKPsCQmWA5JkaS/UwlYp1gzbtw4ZYL051WTnxBFXGoBtbqmmJoqJ3cf+nfohq+vN1p1quKkU4WeoaFyvjOdhvSlubkmeWEHCcwxos2AiXSwUYz8UMXa1pCy7FSKtRxx7D6aQb7OmCu3dp2uvjaGenUUFxRTa9kW73596dyyKS3c3LE0M6SwuBI1HR2xreb0GDmDmY/3xO2OA7DziDweTJa2Gz3Hd8JBU3FrWnH1O4uQgyEUW3njO8Ybi8IcQrft4oj/SaLCgjl+7AQnT0dRbWiNs70+ZRmJxISXYOLVjg4+zhiV5xATG0+Kii1d2nvRzEac2M0MxL4ooqC0Hg23vvQe2pHm1vrI+6TS3Yn6lRxDXFIO1Tq/1q/m3Yfz1KvPMai1A0bq5rTwaYZWjSp5FdXKetaOEc9+xNyxrmhpKCJjOzr1a0VFZhn5IsAzNTXHxsGXJ6a/w4u+lmJ+DWX5qURdzkDDoy2de3uJ+tIEF1cbSvIrqNHUVG7bBg/vDrTt3p5WRqqUFxZTrqYrytOdHs2M0VKzpVVvH9xt6knxCyW9zp6OIzrSRDE+PTeSo8GZ6Hn24rGODqjeMvSrVsRP8Zcvi+78r5/T1MYR97Z9GSO25+ph21CWag0NMc8Fr66TePGpR+nd3BDVumpyr17lzKH9XAm5zBX/8xzYc5qw9FqsHWwxMagg4XyYKI8dPqI8TY2c6dDDkvqiJNERNsTYxIdOM57kZR87VG0ccK/IIqygHktbUX+H9MPbqJJ6E2+6D3BDKyeF6IAcdJq1pVN3N0yU5VfIir/M1YArmDfrT79unRDVXskEzZpIEsU+LjbxwsfDgsr4IGILrGk72IcmxrqI+F98J2YkXkykysAIly4jGOBpSH1dMfEXzpNU/+t+sbZ2pN/gSbz65rMM8ry1dXy4ZGZmijZ5noyfJelfLx28znuxceNGZYIk/b7KohS2vz2I+Vc7MOTlx+llLk74aVfYuWoHRfaP8cZXM+h685lYkqRGVEvMga/46rvdpLuNZrhva5x0C7i0/xf2Hq+l/7sf8+zAlljKny//VwoKCvq/hhFKkiRJ/3qKh+qLqVOxRaP0KpvefZEXX3yFeZ+uI7bMkaauzbCVAbgk/Y3KRRiug7ZGPfGHl/P5LEUdfYt1h5LRMPPC3cEYXRmA/6vdYziKJEn/GnI4ivSHqaCuYYyzmzv1ZVCvp4ednR1NmngycPijTJw8ABf5mkFJ+htpYm7tgImhGTX1GhiYmTXU0TZtevHES5Pp09oBgz/+UhbpH0IOR5Gkh0U6tL3Ulp07dyoTJEmSJEn6p7pw4YIMwiXpoSCC8E6BnfDz81MmSJIkSZL0T6V4NaYcEy5JkiRJkiRJjUwG4ZIkSZIkSZLUyGQQLkmSJEmSJEmNTAbhkiRJkiRJktTIZBAuSZIkSZIkSY1MBuGSJEmSJEmS1MhkEC5JkiRJkiRJjUwG4ZIkSZIkSZLUyGQQLkmSJEmSJEmNTAbhkiRJkiRJktTIZBAuSZIkSZIkSY1MBuGSJEmSJEmS1MhkEC5JkiRJkiRJjUwG4ZIkSX+JdPy/m82wYSMYO34ZgZnK5H+VfKJOruTNYc/z/uKTJCtTJenPS+fCL/OZPmwWi3cHka1MlW6VypmfPuGlYa+z7FAYucrUv5ao9ydWyHrfCH4/CLd5moUjtnP4iXV83dIecw1luiRJ0kOtiKDt85kxfhKfbLhAcrky+X75r+aZz5axZ88e9h3YT3CZMv1vVlvjx5f9BjFizA8EKNPurpKC1HD89pzgUkgqJcpU6WGWw/Evn+GRof3o1+/6NI3p88+SWFOnzPMglJIReYXTe84QHJ9DhTK18ZSRcG4t7z/xCLO/2klYkTL5AampOsd8Uc9Gjlt6H/XsXkpJD/Pn5J5zhCbl3WE/5XBy4Qs8Nuzm70sxfc7p0kr+v2/sQdb7IH6aOI6hojynSv7f8vyOomROrFnC0+PH3/j8Tz01hx2n4ymqVOYR3byjXzzFuCG/3U/Tv9zEhZS/pFT35XeCcGdGtXiM4Z5D6dtkNE/5vEgHHWNkHC5J0sOvmoKkMPxPnyUkIYeyGmXyfbq4czEBqUV4z1jH4QMf0NMon4Mf9mDQqMdYEaTMdAc5YYf4dnoPJs35muOJysQHqL4uh7AjRzlxKpp8ZdqfFX9oPq9O7MGrS48SnadMlP6lKsgIO8/p40c4cuT6tJpVC55ljAjE6+qV2f71ainJSSD47GkuhyVTUK1MfkDq67JFPTvGyQdYz+6skszwC5z5zfelmELJfKCdpv9XAbFnT3H8SAiZ1bU88MMn5QzbP53N3Lkfs2Hnzhuff8OGH5n13EzmbYggpViRsZKMUD9O3bKfVn05h6fnbia1YWWN795BuM0IJjo3QzPpS36MSafS/FmeamKKobpyviRJknRH+XkZoALevUfStUtLrDSqyYw4zbmL/iQVKjPdQVVxFnHBp7kSGkvOH736fh/UNLrzzoWzHDv4Cu2UaX9WaVYMIf6nCY7PpvQBBzPS38WdKd/t5vi5C2x/czh1BdFcPhxIyoMPox5K6po9RD07w9EDLz+wenZvbkxeuJ2jZy9w4YJimkcffa1/wJhjb17ceYCTF97H10D7AZenSHSi9rNu+24u1rjxxEcrOa747Pt/4eNhDtSlHGDFz+u5mpJNlXIJ8ODpJXs5IY7rC9vn4FmYQtjWNRxNUc5uZPfYHy6MbTmENmYqBMTsZbHfOoIr1ejrPgRdTV1lHkmSpP+orGAOvj2bfp064eXlhdejb/BDSBGVdalseq4T0zaJaLS+np0zOtK27eNMfqY3c/eJgDU7iSVTOtJ/9Lsc/M048XKSLq5n4Vtv8Ys/xJ7awOyRfXnuo80ENQTtBVw+tJQnR/te257XMIY/u5pDkXe6Ra1wmW8G9MLn7WUc/uBp2nm3YdIvSdTVBLLimeeZ/uomIhTZKvJJ2zKbcQ3rvD51Y/TUrziV07CiBsVR/mx4dRIDxfz+j77AmjMhFIsy+a95mw8WbOF8Ilz4+Q3G9xnBh9sDyWj88QXSA6WLrUcb2nXwwculAjVVEXzbWmLZMK+emqoYls+dqDxeOuDT7WXe+PEqvx7SFaRGH+a950Yo8/Smz6jP+OFgnDhq7iIvmrNffsC4Hj2uLTN6Gp+fSSZXGUFd3v0GL/XoQLuG9Ynp8fc4laC42ltPdcUx3mnfke6f/MyBJY/xiJjfsUdf3ly+/6Yy/RH5nN/9DY8N66Us/0hGT9vIKdGDvhHQXVnCLN8utL9enobpCdYmQ211ACufeYGXX9tMpCJvTQWF/rv5aty4hnxd+47jy3WhDavJSbzIireGMfT6OvqOZfZPx+7ZWb+dLjbuXrQV35ePj2JqgqmaKskbnqaNWGf7j89BXTXFIct5rH1XBszaSXp1GfkXdjJ/7NiG7Xbr/yhfbwhTru9maZxb8R6PeT3K3GVnrl01jjvABy+OxOvpBRwMvdZQZB9fx7xhfenS8DnGsXBTCkXlUWx74zVeeuYn/MviWP+MT0N5PjrbsAg15YXse8uLzr0HsfiySKguJddvO5+PGXNtX3QfwLjPN3P2ToPhi+IJuBTMlbimjHzqBV54bhQ9FJ+972iefnsG/VvYUnsxiLj8opvaSHFce3rTXrGfvJwxVBVhcIkJRtcO7EZ39yDcoBO9bJpglbuXH5ITCE3cw+mcAlRcpjLd0hC9v797JUmS9DcJ5udXXmP2d0s5cekSQUFBBO1cwjtDJ/NzSA4ZMSHE5167YpibGEKoSj31cWEki+ijtrqKzNgQwqOSKfzNVeM6KktzSE9OJqdUhDBFuSRGhhOXmktZbSFXNizgszfmsmnvqWvbCzrEwbWzmPLhKi7G3OmGdynp4WGEfPcWT369gasBgcTmVIp+QREpQcGEhqVTWltG1tWVPDttKbsb1nl9CiUqLp3iG0Nw4rl0bgWLlm/hmJh/fOcaFvywheOheZTkJJOSLv5bKc5looMRHRZFSl4Z1fKC6b9cOD881Yt2LTzp+85BStxfYfcnA9BSUaGuNp4Vj/fjzW+3KY+Xy/j7rWDJ/Gk8LwJxxa3/9OB9fPf8k3yz9oAyz2lO7/uCuZ9+wtJD8dc28RvRbP90Hq9/8hW7z527tszelXz+2DP8cCKW/OrLHPl0O1vOXeZqw/rEtPUbJry2miSxdH1dEclXLuE3fw5PvbODXWK+/7mTrFz0Od8e+KNhuAjAf/qAj978gB2HzijLv5+9K19hwgcbCVOMb0jfw6yXv2HlqQtcuV6ehikWUc0a6lmysp6ViP2Rl7qbuaOf4+PduxvynT95go1rN3M8O5fUwENs+/4Qh66v4+Qeli5cwk8HA7n/oeoR/PhsXzq09MTT05NxS4Ioq6rDeuBTDFUPJmDhRD44EcPJZW9yMC4e926dqE/cydxxz/Ppnj0N2/U7foyN67dy8ranZKsozkomJiialKyia52QigJSE6IIikujoFw0ZKHreePzL1gYp4K+syiDXg6HoxMoriwgI0K0Q0FJFNZa0NxVneCQYBbuOC1WUktVxRl2fR9FbJwrTZqXibZzO3PHv8jne/de2xd+x9n9+Tt8MOfb2wPx3AziMzNIsnTAtXlTHA2VV9rVdTBs3gIPExP0KxJISiuj4kbPKYzFk7rjLY5rz77v4SdmeM15gb6aytmN7K6hdHfPoXQ2cyI6aQcJJenU1F7m64AT5NS68EL7cehraCtzSpIk/ccEnWVzeARhtuNYcuQSUfHxbJjandrsI/hHWfHY6jB+flwDRMDyxIpYovZ8w1dr/VkwAgwsnZixKQy/g/MZYq1cXwNdnDtPZs7XX/NUR3DzfYLvj5znl48m4l1wkb37D7Mn35Gx763hXLAIivd9xOMtdCjbdpzzCZl3v7pYZMsTn2wlOjaOLU85KxOVaqoojbnK6VpThi48R3zgKTa+2RfDJu70emoqfSyU+cRp175TTz7afoZLu77miU5GhMYmEZehQqenv+LTtx6jqwt0fWERey8d4ZNH2mIjTxH/cpXkJscSHRVJXGYJdRE/89wrG0mor6f2xPe8sSeFCq+JrDsdT3T4ZTZ+1BP7uGgi1p/gamEakUc28H2QOI7Hvce+S/EE+23kg8dc0fW7QsBp0UlVbuWGqAAOhQRw0diXt9ceJUzUqR1vjMe88iKB0QWUVYpjdPaHbA4JI1rMiz/1MV0oI22fqH/KVSjuPGnU1zLyu8MEBZ5j+TPuZGamcy78D77fI+Y0W/af4Ei5G5M/28rF0Hgu7JrLGGcVCtcfwS9DdDpF5/pIcha2L/yCf2gM8b9MRU9bg7Zvf86UW6oZleUUnNnHipwazIZ9gV98BJcPfstz7Q0pqdHEsXVv5m7YIdLF5xLB/qJne2IYLv4dlcr9P2IhAv2UOGLE9xUZGUliXnnD+H0N4468PvsxanMT+fKxvjy1tgLtxxbyQS91is4eYKUIbG1GfSm2HY7//m+Y2laUqVa5yj9CEWzn5lGook3PJybz+YZV/PRSe6x+M35Zg2ZDRtEOFQp+2iHanVoqz+xhbbUOuiMH06u+hJxzB1idr4bDuK84L/aH/94NPNOyjvjYS8RnKFdzXV2tiE3FpK6OmrrabwNakaahqiLSqqmpqROdNGX6Tcd1ZFwm7q8vYfcb7dFTzm1sdw3CLwa+xIAfHeh34jARpYpvpIrCiFfotMQNt70/k11145FTSZKk/5SMhBjyS4upjdnI6+MH0b1zZ15ceYzC8lLCY1LRs7THykClIa+hlRNONuaYWztgLlp6FXUNjK2dsLczR+83z9eooKFtiIm5OYYigNXUMcTCzgErMwPKc1JJz0jDomVvBvXvi08LZ9r260N7RwcMy6uoqqnl7ufNFniP7YZLExdsDG95rF5NHU0be5zyUtj33gg69xvDC9+dRt/QEHd3N3TUlPloSlO3EfTo1YZWzTxwsrMWJ786FM99aRuaY2ZqgI5YtbahBbYOdpjpa6F+7eNL/1otRWfxMtHJ6aRf2MznHSvJ3j+LRUfrSQi9RGGtJh3HvsqYzs64enjQZchAPOrqqCuroEjUjeS4CNTMXek1bAL92jrTokN7OrZvh22VCIoUk3Ir1+WkJZGdn0tN8n6+fHEcvUWdenrhRuJzC4hJFAF/pTX6ZdH8+O5QevfoTOcxn+NfWUN9ZdVN69JEW/sxRozujGvTJni38BBxeT3VNX/sqeq8jCQysjKxaTuIoX170K6ZM+0H9qOttZUoQwWV4tivs7bDXUOD+BXTGNSnG51fXi86CtW0btf+tufmFHe/kqJDqTM0wmfIEDo4u9O6x2gef/15+lvpo1GjTdyZH3jxMfG5+j7Bu6tOkiGCyzox3X883Jzpay8Qqfi+0tPZ/0pb9DQVIZ46hqNe57229RSLz1RU3Ylxw0ZioFpJcnQYGJvgM3iwKJMHXr3G8PisZ+j7/wzNaDWZ12cMY3T1Bb5/9gk6+TzJcv9MSmt/2xCoNxvK2A6iv1S0jO1Hqzm1ZxW12lqMHuKLWmUFyTERlJVlEL7tbYaJY2Dw48+w8kI8hUUFJGfcND7uZinZ5Gbm0/D85XXis6aUlYlumgO2NrpoaSnTxXH92tYAYs9t4TkjfaK+n8PXF/++xuquQXhlVQE5pRnkVokD/PptxdoikZZJhjjR1IkDW5Ik6b/I0soOLW0dcJ/Ed/vPEBQWRkxSGjm5uRyc4SUC0rs2rf8XI2NTDI1MSY1IICYlgzJxzsiNDOVgjjjRKPPcnTpqmjei6VuIIFytKe51tZQXZovAoxwN87G8/Ppinmt382cQ61ATgbW6KqqqqqioPNjPJ/0TqaNnYomVtTXW7b1Fx1BEltXFlFaBo5NrQ4AYePQCGeLQqqkoJ+LyefYpl1TUDStRRwqz8wgLjCBPHC4lmelcEAGWYtjvnZiaWaKvbwhOI3hn1QEuizoVLYLvrJxcTrw/GJeobxnz/ndEqc3k+OmrhB2aRydtDcWzzzdREcemDlrieFekq6nd7bi/NxNTcwwMjEkKjiE2M5tysbKs0ED25eeRpcyDmjMeaKFSItIyM8jI8+Cx987yzaDbbwGpic6urZ0zFSWlBJ+7QiaVFCZc4NCyNRwPC+XwL+8zZ0cJg6dsJezidr58ti+2ymXvn4b4vixE2yS+L/GdmemLfXN955z+mS+DVGjXzpuq8ktsX7GRdHUNbOycKC8qIfj8VfG5KsmP9ePgT+vuMBzluhxyRUepoFC0P6LtKSq8aRichi7dx3/J6ktRHNn4sth+KB+/+xNXMgv4zag7NQ9emTNZxJCl/LjtJ/asrENb6xHRkdFEQ0MTaztH0LWh5aNfc0IcAxFRMSRlZBF5bB2v9jBTrkTJxZU2YmpZe4mft25n7bmUa4F4VggrFnzJ1uAICvp3oaONKUY3DhSxn0zFcd1uBK/M6yyC3WK+/+zH2+/MNBLZkkqSJN1TPJveHUMbKz309MQ04mOOG3gwRJyoLSKW8VR3L1zs7bFvmIazJKSk4Qrx3RSnx/Jxf3Pc2z/P1nu8Fyt8/1Ke8HZl6MvL8TfzpEMTd5rH7eDDRztgJcrh1P4Z9pyOxe3JYfTxcMZUudwfUVNZQtjJ1fg1Gc/PkaWUlmYRH/ozM8e7ovV/xC8nvnqSzi7eTF91gZS/4M0uUmMK4ouh7lgZiWPeoBWvHC2mum4yQ/upoD5gOE/UVpK79wU8xbFoZO7AkOc3oG5jTtfpj+FjYoZ9h670zQvj4KcjcRZ5rFx78973pzDv5k2Pwd1wVW7lOtUWXvSwd6RJ3BbeHtsN9xt1agCfHo4jv7yCkvJKLm+eQatmTbHvMoez5VUP4F0tGZxaNRNfB2X97vkCizMM6eLgjGvUel4f6oWFSG/S+WVOBqTg+cI4fB2tKTy7is2l9kzbF0NWoaLunGXFW51EZ+W33YIGOjoY9+zHqNIMQlY8jqueGXatxvLOzmiqRWemuqqc5PCTfDzdF/tm/XjpuwP30bm+VTALRrXA1lj5OfR6sCCwlNr6I7w8bAmVKlOZe3gx73kVknfiXZZf1sO0uy/DS1K4+uNEmooyObR5hHl7RJlu26nGmNmaYW6fzP5vptLFRg+H/q+z+fyvY+0z9r/L4MkvMnnGOyze4UdOURkV4vupue2CrSpaw8bwZF0dpT/NYqWKJtqPDcFXcfdAXx/zrr0ZVppK4OrnaX/jGGjNkKe+4Wz+LftW1Y3ug/rQsZcllaeW8I6vOF4Vn925A89/dYLY3D689+ooWrmZ3tJZE1TV8Zz2GpM1Nag+uYF9ccr0RiaDcEmSpHuqp7a6UpxQyihT3N6srKYWH2avXcZrE0air6Z6Lb1hqhCBimKJ22nq6ouA+j3Gt6mnWlWDulY9sLVTzryJbfP2jHniUTo71lBp6oBe82YYm7kzetYHvDNvOm4mxpSLbZVXONHriTWsnzuZLi56t59k7oO6lj7Ne0yma9xmXm5vzYAB/enffxiPTvmM3ZfTlbl+X8v+45kwogPORmI/ObbFwt1KEXdI/2p1VFeWNxxrZWXltHn8Y3aELmOYhgpqWsP5MWg7T7T1Us6vQ8d4JG98cZCfJjqjqmJK8+7PM3/jV/Ru4nzteC03xNVnDl9/uIBpPS3vEBS1ZspnC5gz40ls9XRuqlPlVNXWUd/1SZZO6YOFropYVxktxj3Kk13VxbaUy//fRP2uqbqpfleKILQ5j3/wBW+9/iyOBvrK+taEgc9uZftbY2llo4NDlyd5RC+F74e4M6RvL1F3+uHb53kW7r0xQv0mOli6jGPRsdcZ0bxKrE8NTXtffF9+hKFernQf/SSv9WwigvEKDF2a0H9YB9o7Khe9bzd/X4qpgpq6eg5OH873FdV0mS+2LTpTL858gtKsbJZN+YRY9/EsOjyTYc0qxXLqaDn1pd+0cQz+zbMqCsa0H/oIL70ykNbWYl9ZtmLQm2/wWP9OXH9sxLpNB1oaXeDI9u9ZvOQQ1jb9WPHVNLpYmXDL6BxQG8yYqeK/NbVoanfh/el9lcGoPg7NJ/PNgR8Z4ul202cpp6Ky6g7vqFfBotuzfLZ4Az9M74KrkfLzlzvi0vs1Fu77gZd6tMTsxi2B31JRH8DMz7qKY+gcr8w/oExtXCrMewAdSUmS/l4iXuoU2Ak/Pz9lgiT9voqCFNa94MbMs4N5cfnHPOFYQUrkAb5663OSrJ7h83Vf3PLwqCRJisD9zIdtmfAVIrhdxKxOFuirx/Hti2P54UQbvo4+x8tNlVkl6S527dolr4RLkiT9N9VSW5NMaiKUpO7gkwHNaNbMm/6j3uJwtAmmpk2xlwG4JN1BGmnJIhSvDWHTMz3o0EpRd4aw9FQNmjptaSYDcOk+qdGLecp/S5L0b1UC9pn2TJ2quMcnSfdDFU1NS1q2aUlWVCZJxcXo6upiaenM+MkzeeeT52ijr8wqSdJNDGnR1pvqjFKis3JR19RsqDtdu05h0a6F9DeT1zel36d4laQcjiJJD4N06BjQkTNnzigTJEmSJEn6p9q3b58MwiXpoSCCcK/zXmzcuFGZIEmSJEnSP5XiF0HlPRNJkiRJkiRJamQyCJckSZIkSZKkRiaDcEmSJEmSJElqZDIIlyRJkiRJkqRGJoNwSZIkSZIkSWpkMgiXJEmSJEmSpEYmg3BJkiRJkiRJamQyCJckSZIkSZKkRiaDcEmSJEmSJElqZDIIlyRJkiRJkqRGJoNwSZIkSZIkSWpkMgiXJEmSJEmSpEYmg3BJkiRJkiRJamRq9GKe8t93ptOZCe0m86iVLmH56ZTUVCtnSJL0j1EC1inWjBs3Tpkg/f0KiDu8nZ+2H+aSfwW2ni4YaStn/WuUkhF+nr2rjhJVpo1lEwt0lXMk6c/LJ/rkYXZvuUKengkW1oZoKudIN8sj4ugBdm8LosjYDAsLg79wP5WRGXWBfSsOE16shaWrpazzf5HMzMz7CMINRjDX9zWmmOazNuYSWZXlyhmSJP1jyCD8L1BO0qWD7Np6lIQ6ESBYmaKrppx1P+L2MPeD79h6+CwhYXW0Hj0AN0PlvL9RXW00+z5bzu7Lldh1aoKxMv3Oioi/sJeVn+0h0ciVdr3cMVXOkR5mRYTsWsG6nYc4dvI0p08rpljiivVwdDVDR0WZ7U/L5PLmtaz8KYD6Vq1o1dIWfeWcxlFJZsQ5DmzaRWCuJmZ2NhhoKGf9afXUVEay94sV7A+sxtbHGSPlnD8unQu/rGblqlA02nnR0sMaPeWca4oI3bOaDTsDqLBzw9ZQC7X/+zsqIsl/Pys/2UmsXhPa+3pippzzxyVzaulqNh/KxKitM+aa6jywQ+e68jwiL55jx449HDh6tOFYDQ1Npk7XEhNjfTQa2uxiwvatEfvnAEdPXD+eTxNbqIauqR2muioPvlz3QRGEy+EokiRJd1RBZvhZ9m/axqngFIr+4E3AmOO/cDQqG+fB03jrzeE01S0lcNv7fLbgW04mKTPdQXFqEAdWvs/i9fsIy1EmPkD1dcmcW72G9Rv9yVCm/VlZQbtZ/d37rD4SQoboEEr/dqXEndnBprWrWb36+rSMH7+bz8d7opV5HgbV5CcGcHzrZo5ciCKnSpn8QIggvCqRs6t/YeOWK6K78VcqI/7cTvF97SEgvYzqOmXy3y6LgO1bWL/6FPHl1TzwYuVFc2X7Cn745luWrVhx41j96aelfP3lj6w/lUxOmSJjKQnndrP5N8fzapZ9v5D5q8+SU1ffsLq/gwzCJUmS/gLpqbGgokKr/pMZP7YXLloVJPitZ8vO3YRkKTPdQXluAleOrmffSX+SipSJD5CqWjNGf/IR780dTBNl2p9VmHCJ43vWczwwifwKZaL0ELDF95m3eP+jT5g1wpPCxDPs3RNErnKudC8qaGi3ZOwnHzD3jQG4KFP/W5zp+9oc3vvkEbz0tR5wwFlOSsgpdogO1IkkFdqOnMq7n3zCJ2+9zBgvXdIDdrF60yFCMwpEV+s6G3pNeZ33xPH8yezRmGVEcGbLNvyz/75ey32MCfdhXIvueNYEsCzSTw5HkaR/Ijkc5S9QQVrgWc5fTsPAqwc+rZ0xuXkgZmESAdt3sWz9Rnbv38+h0Gywc8PRoJgLP37IT4fDSSmopyo/nSC/CMIjtnHgVBxpBTXkpSQQE5WLcYuWWN8YJ15FTowfe1b9zP7ADLLzikmNiiOnUhNLZweMNEqJCzrJujW/sGnbHg4dusLV+FoMbM0xNdAUjfmt4tj30UJ+TqvFMuIAX63cRKS2Nx0ccjizYi9Xsg1p1tsD0+pS8i9tZMnCNWw9dEisVzGdJjCuDFN3e+oSAzh3KJ5ac3PUcy6x55dNnApLBGNLLM3VSTq1lU2b93AhtpC8nGxiA2OpNLPH1soY7T8yfEf6Bykh8vBOzsQa0Gf6a0zo0w6bvONsOB1LrecQXhrohib1VFelcWzTzyxZtUUcM8c5cSaFzHpjHF3Ed9+wHnFMpwaxc/1qVm3YIfL4cT6okGoDU6yt9NCggNhzfly8WoZ97860UwxHKU4jXNSnlWs3sH3fPg4FpVJp7oy9kQ6aIoqLvbSKLUvWs3HfQQ4qjtXIQhybtsBct46q8iA2vfstW4vBMGEn65duZffZi2SrGOHgbK0s081E+WKvcvFsGDVOPnTq1BKr32QS++HiQVavWsvWnXtF+QMJSlXFzMkcYx2Na0Fl7H5WLFzB+r37r5WnYYpCr50PtuoJnF11gMB8Izx7uGFaW0lJ7BX2r9zA8m3bOH0xjHJ1e9wdDCnMiuTs9mVsWL2TnYp1XAglp94IW0sLdDUUY+fPcim4Gud+XfC+bThKCVFHd3EmWo0WQ4fS1i6DQx98zU+ZohuVt49N325i8+EjxJXr4eLpcG2Md201ZfEBHBRl+XHrVk6dD6ZY1QFPJw2yYwM5eyAG1eYd6OZrTd7pPaz99gAxojx2rqI8WUHs2LiG5X5ZmFraYGusTVHYOfasWMU60SbuOxREpa4r9lYlhOw4wLnIepy6WxK3+nO+37CPQoe+NLdQoa6miqBNb/DNpvNUO/bEzaiK0rgrHFixgWVi/xw6dYHAAnVM7Ryx0Gr4oL8qT+HiwT1sP1KA86AJTH1+HP192tDC0wN3O1WSw8MJC6/Hs09b8bc6icf2iP2jTbfnXuGxvj54WedzbMsZkgsc6PvCQNy1G/+a9P2NCZdBuCT988kg/C9wryA8iWOLFrN80y6OXr5KWGQkUdFRRAXnYN7WmbRfPmVjaLUIU6AgLYbYamOMsg5zLgZx4qkmNzmB7GJDvAb74nZjEGwV2dF+7Fu/iQvp4q/SAtITMlG1cMfLpwll/tv5ZdlPbDt8gaCQcKKiooiODiWkyoiWTeyxFIH4b8Ww+93v2HIliPDL5zntH0hVy0cY3TKFDa8u4mCaLb2f6oBBzEG++WAJ285eIUSsU7HeqKhkiuut8PL1RjdVEYRfIKogiYggf/yvBhEm8qTXmeDgYk/FFUXQcJG4QijLSycxrgCL9l1p42aNgbqyKNK/zPUgPJOUhHAunjjEMT9/EvT68/acsbS31BMxXBpHFs7l243HOH8lWHncRBKZkkqBqTvdXHTJjbvAjsULWLXrNJcDQ5V5RIe0oBoj2yZ4WlXfEoRD8KoV/CSC+oP+lwmJiBD5o4kKycLQsyXO5mkc/OAr1og6cCVC1DnF+qKjiSl1okd3J9TLA9nw+rfsFvUx3P88Zy4EEyLqZWJWCdouHWn9a49X6V5BuNgHh35hxU9r2HX8IiFhyrJEhRJaZ0UnDzuMyq7y82ffsebAmV/L01CmGrweGY2npijP7MUcy7Kn15Pt0M84z9q3RflPnOFSSIjIm0xRrRluPs6UBR1g7Vcr2XcltKF+NbQnogNtZO+Cq0Md8X8oCE9n3zuL2BoY0lD3T/kFESTWFxOXQLVzHzo7alKSe4m1b85nlSjLxYayJJFfaYx7Jw9UUm4Owq3IPSEC+Z8vUtakBW07umCUGcCWLZvZEqOFT9vWIj4MYvlPP7PmQhoVtTXUpqeQbNQCn2bFnJq/lK0XVWk/uQfGV1ezYONZwk17M6mjBTVVwax/bT67ou1EW9QHq+ILrH1rAasVn7WhTKKNi0ggv0QThxYevw3Ec6M5efwoh5NN6DlqKAM7Ol/bJ+pa6FmoknLmsmiXC7Ht0Z3WzjqknlQE4WkkJ0bif+owB4+eIzg+E4thL/PSIFf0VRt/VLgcEy5JkvT/SLjKrvMXuaTSkqfe+5zvly5lZjc7MgN2cTHOgG6vLGJaT0UEqkKvl39g8ccv8fyrXzKlI+gYWTBs1rd89t5k2ptcW901mlh69Gb0U0/h6w62rXvx7LzPmTGxBy5lEZw+eph9MXW0HjGNzxYuZf474+hkmk/sjlMEJOdSqlzLbdJqaDJkGt8v/oHX+1gpE5VqqiiJ9edgSi0tn/6UpV9/zKwxXuhY2dLS15dWN54kK0XHwZaBL87lk7eeootjPVfDYolNr8W97xQeH9tdBFTgOWAqc+d/wMSuTTCVr7l4CBQRe+kERw8f4nR4LnW5QRzaE0R2fR3VQTv5Zps/6WadmfnJUr5f9Bkvj7VHNeQi53deJqEkm1i/ffxyLg39tmN5RwRjCz99mdFt1ck/eQ5//1iylVu5ITWMoxdF8FzlzMhX5/GtqFdvDPCkIuow/tEFVFSr0rzbKKYtXMRiMW/pR4/hWpTKlV0XSVSuAhEEquRn4zhqDp8t+IhnepqLjmEU58L/4BMQaYEcOHiEoynadJvwOl8uWsrnbw6mtUYqIRtPEphTTKXIszswAe2Br/HVd0tY+kof1NVUaDp+Mr0slOu5rqqc/MATrAtJo977MT5bKtqANx6no3k1OZUqmNg0ZfCzs/hQ8bm+fpsp3Z2pCAwnQgSOon/7/0mNRr/Py2JbS5k3xoXcpEj2X0mC6gqKg46xJjCJypbjxfzv+OLtKXS1qCarUrnsH1GcSlhcPCno037YCKa/+xpPD2yCse7NIaYOHr160lRNjZRtRwmtr6c29Di7szTQ7NKXzgblFAQeZ21QCrVejzSUecHc1+htmE3w5TPE3Hqw1FRTUVVFhbZYXkuT3zxPq6WFttiOGhVUVtZSd2O0STHxl09xTBzPh06Hoj/0Kd5/oROWf0MAfp0MwiVJkv6g/KRYMspKqcoP49j2jaxZuZIDQQlU1BQQm1SEdatutLQVDbv4n12rHvTw9sDDqzOelqCmpYNzm+506nDLlR1xytAxtqNJM0/sRPCra2pLc5/OtHa3RS0/haTUVNSdfOg7aBiD+/Vk4Kj++DjaYJBXRHFl9U3jHm/lTqdxQ+jZqxfe9jrKNCVVVdT0DTEsLybm1BZWrt/Kfv9k9I1NcG/ZErMbgbQ1Tm796D9iAP26d8DT0YLKqmoqa1QwtvfEvYkNJmLVJo7Nade5A+42hmjJs8tDwIkRcxbyw08rWPH5LB63SeLSlvnsCK4nI/wiSRVaNO83iUeG9KSPbx8GDO5Ok+oaanIKyS0tJC0+khJ9ZzoOHMeogT3pN7gvPdo1x7KknPKiMm69r16UlkR6oQi2C6Px27eVX0S92ucfSWFFAQmp2VRVW2NjpkLU5U38smYlK7eeJ0txu+k369JER683gx4ZQp+e3ejh5UJtbR1llX8suizOiCMxPRtdjx4MGjyYAX17MmjMQNpZmqKbU0BhdS21egaYqaiSF7Cf9WtWs/JwOGJTNO/aE7tbqlptVSWZcREUGRjTync4g3v6MmDEOMZOGEQrY130tE1BdLaP7RWfa/1uToemiDJXUS3qdo1yHX9cNwY+OpRePXsypEszRNxLcVlFw924zJhwCvUMRWdbUZY+9B8+lnGThuF979cl3ZljD4YP7UgXYjmzfiVfLdpGRF4FtWLf3EzHXRwnrmqopG/jaFA9wcd3kKOpQTffrhiIgDozNoLsmjLyok6xWXz3G3bsJSA1h5KyfNKz79IVySumOL+EhucvrxPHUK74visww8REC40bEboDQ2fOZ/FnbzDYUI/CKycJzlEMrPr7yGZSkiTpD9IXJy81dXUwa8PgiU/xwrRpvPX5Ilat/oU3B9ij+f+/H+yOtLR10BbBe1FOCUWl5dSqifN1TjahoiOQp8xzd7poK15QfqciqaijqeWAS3UF2dGX8bsYRmpFS4aNeYGhnjdfytZBS8sEXR0N1NWvTdJ/gR4OLdrTqVNnOg/shYuxCBmKE0grACNjU+pExJmZmEOl6EzW1oggKj2VYOWSimNETwSpFaUV5GUXUS0OmcqSIuLzc7nby4F0dPTR1BTHnXEzeo+ZxHOiXs355Ct+Wrmad0c1xzRpHx+v3kxQRmumPPU8057oic1tx7XoWKpaYmSohYqKiji+bx8Jfj+ulUWLwkzRyRUBdJ346KWZ6QRWVlCszIOoO66q6lQmh3Dxgh9+Ybr0mvA50zrevk1VVTUMRABeLQLrrJQMSkRoXZGXTMzVEBJTk7h8dAPLj6Rg5TqSaVMfoW8b5wfwukbFa/qu9Qa0tX9927eK6HwbGJpQowh8k9NFWWqpKEgl9nIQ8Xe9pVZMSWmRmMS/igspK73pNUh6VnQf9hLvfLGAlx9rKz7fWRYv20dETrFY80203Xnksd5i+1lsOXqQEzty0VTviW9Xo2v7x1D0ADT0MG/enyfFdz9j9ht89v1yvv9oNkOb3fK2cgsrnG1sca6M4ujZMxwJzbkWiBcmcWL7Nk7GxFPk1ZJmVsYY3Ih09bBr1g6f/mN5YmILqjNjWbnmEOny7SiSJEn/VJmcXfcprzwxrmHM/biPNxFm6ISPoRFG2ZfY+uMi5n/2GZ81TJsIF+emez1rX56XwcZ3J/L8q99z7h6vmUi5fJCvZjzLBz8eIt7YCQ87B2wST7Hq45eZKMrx5EtfcjwoGQtfH1rbWWKgXO6PqK2qICn0DHFW3XhlyWY2K97Z/OO7PDWyLZb/xy90BO/4mtnPvMLSow/6dW/S3yOeTe89w8RHxHH/+Ex+ClE859CXDt6q6Pp0o2dNBWlHvmCqOB4fnfA07y48TIW5Cc0Gd8Xd2AQbz5a0yI3h1Iq3eVLkefzpOazcFYBWK1datvXE+tpGbtBw9cDL3BLLvCD2/7KEBTfq1XquZJZTXZxOZEoWEX47+WrBfD5beogUxeXdPy2fwIM/8uYUZR2fu5Rj5ca0srTGJOYA37/1PBNE+pSXv+NSfDZ2Q7vjZWZIcdgJLlRaM/LDn1i7UVF/FjH3hQE43eGF4Cra2ph4tcenNIuQbR/y1LjHmPTC+yw7GEZReRkFOamEhQdxYPNyPlu4gj0XY/gLXo7UQEV0Loy8feikeMf2ro9FWR5l0rPvsGRfMAW33VLTRd/EAEOLLPz3fMts0Q5OevMHjoX8Oj6k4OpGFvy0mfVHLhKeLjplNaVkpuVQUl1zy1VmLSwHDqAfKmRtmc+2fDXUe/eli2i8VERnSbF/OlWXkBW4k+9vfPff8su2S2TW39Lx13KkjU8H2nhpk3NpC0tnPc3jiu/uyZf4cPlRIjLdGfNIH1q4mHLboymaBrSY9Ai+2lrkn96NX/rf93YUGYRLkiTdUxUFGYlEhQUTHCymhCxKVFsy6fUZjOnsQX5SPCGK9IYplqzy2obbvrdS19Khw9DH6OJURVZqPLFYoHGHk7Wpgytde3eniW4uSTlF5GgZombsTJ/xU5g0tjfaxTmEiW2FR9fRpOM05j47nHYO+nd4O8rvU9XQxLpJO5xF0LPr2w/55ZfVrPh5GcuW7+RizO9fY7/O0bsbvTq6YVCZTEyRGhWK15HJi+UPgXKy4sIJDVEc25EYdHmSd5fMpaeBCppmvsz56nW6WeoQKY7HkNBY8ipa8+gz7zNzeFN01Exw8xnDi69OwEW9inCRJywiDx2bEbz4zHOMbm91+68+ansy6rkXeLRfO6oyUwm9Ua+iySiuorZ5X17p1wq18nTCQkOodGhON88HcdepmpK8VGKv1/HYNHJrXRj21LNMGNSR2pz0hrJExKrTqu+bfPBsP9zNdDB19sFbI5/Tyz5l3epVov78yKL5ih/CSleu9yaqOli49ufVeUNpbZBERHA8SeVWOPTyoV0TO1p16cMgV33Sk6NJLavBzs0GJ3Plsg+aihYmTv2Y+eFI2hkni7LEkVBsgV2fzvjc9mtcBuJ77MGIsd5Yq4h9lF2BYYfutG3hceOHvvQtjFEtOsvBHT+zZsNpdPVbMn3KUFqKjspt7ZJ+D0QcDnkZFKs3Y9Lj3a9d8VfVxqzpEGa+/yJtjNREma5/92FEx2dQctuYHE0s2w5j6sy3mdbfAZ2CyIZ2MTi8hHq7vjzx9iye7NkKS607t4yaJr15fFJzNKov883my8rUxqfCvN8ZDmPyEhvHv8WI8pV02LmA4ML7b5glSWokos33Ou/Fxo0blQnSn1dLRVEe+QUlVNx8T1XHGGtxctFRqaEwv5DCsnJqbzz5I05uttYYaalSkZtARlE9htYuiPO1UE9dZSE5ufmUVqmhoW+Khbm+WOIWddVUlOaL7ZZSUa+NnokJJgbaaIj00qJiCopKqKpVFEgDHX1jTE300FS/UyBSQX5yFoU14uQvzuZ61x8+qi8jR3QkStUMMTGt4+yX4/nsaBP6znqKQXYq5KRcZsfqHZQ5jWPaO1Px0iwkL7sMVUOxLTN9NGrKKcgX5avWENs2wUhHXeyqckoK8ykoqaRa1QATcVI21FKXV3n+tWooyc4gr7Sa2psiBC0DU4yNjNBVdrDqq0rJySmkpGG8tQpq6roYmoo8esprj/W1VJWVkJdfTHm14hKrGprahhibGKDX8P5KcUznieOmsBZtc3EsieNcvbaK4oIicSyVUnOjXmliZGWJsY4KVQW5ZBaWUyd6uloGBmhWF1NcYYi1ixnadaI8idmUqxth6WAi/q6lsiSXtIJqdIzMsTa6tbbVUVVaSH5eASLu/ZW2AeYmxhho1FFcqChLGTUNdU4TXUMTzIx1Gh7ADFk5idmLC2ny3ItMaGWGlmo62xd+zIkUH+asX8RQq1vKU19HTUUBuXmFlFWpio6qLgamhpiKHVpbWUaBKEdRRTVqmppoaaiINFHLDUT9N1anMle0RUV16FqYYiQ6ub8NLcX3lZNJXokIma2sMNKuoSA5k6JaPSydzdBVURHVPoeErBLUDK1wNBUNkihLrWiPcnMLRHukKIuOKIuRKIu62CdF5GWVipWJOi/aKM26KspLRJ0vLKNStFi6+jqoVlVQXqeJqVhGX71atFd5FJVUNTwEqampOA7MxHcs2sjUbIqqRYDtKP5WU20YFVeeGy/aRnHEqOhgZn/TW5TEd1pTUUqe2D+lVddvpamiqSP2kYWJ6Ngpk25SV11JaXG+2Ha5aBcVKRpo6Ij9amiAvo6G8pdDayhV7h/9hv0j2iaRXlOcQUpuOfX6VriY/x+3/v6koKAgGYRL0kNBBuHSH1ZHWX4wK557lO9DRbBvbNBwkqurqaCkSBu3rlN5d/EkWt35QpIk/cdlsWfO43y8P50KXWP0RdAswmZKRSehrHoMS4I/ptdt4yAk6VeKIFxeqJAkSfpPUkVH35VR09+lVxN7inOzyMrKorxSgx6DJzLrjXE0kwG4JN2FOf2efpMRPu2pLykgW9SdrKxcnN2GMX/9m3SRAbh0H37/SriKFnqa2mjUV1FcXUHtA3kIQpKkB0peCZf+T/W11VSUV1J949a/ChoaWmhqaypv5UqSdEeK4S4VlVTW/DqWRU1NAy0dHdTlJU7pd9zflfD6SkorCymoKpcBuCRJ0kNGRQQNOvr6GBoaKicDdHRkAC5Jv0tVDS1d3ZvqjiF6ejIAl+7f718JlyTpny8dOgV2ws/PT5kgSZIkSdI/1a5du+SYcEmSJEmSJElqbDIIlyRJkiRJkqRGJoNwSZIkSZIkSWpkMgiXJEmSJEmSpEYmg3BJkiRJkiRJamQyCJckSZIkSZKkRiaDcEmSJEmSJElqZDIIlyRJkiRJkqRGJoNwSZIkSZIkSWpkMgiXJEmSJEmSpEYmg3BJkiRJkiRJamQyCJckSZIkSZKkRiaDcEmSJEmSJElqZCrMo1757zsyMWhOC6s2NNHXRVMRslemE5l0jPMl5VT/ZkkVbMw608aqOXba4s/6GipLYghMOkNQ5bUckiT9RdKhU2An/Pz8lAnS36+I5DMnORiRjYZGc/qN7oStgXLWv0Y52bHBXDyehEYzb3y6NsVYOUeS/lNywth/JpBUvRaM6OSJhYGmcsY/UToX1h4mrNyZPlO64aQmr7f+E+3atet3gnCtFjzR8TWmthpDB1MjdBTfY1kM50M+4LWjm7hYVUnttZyo6vVkXv8PGd+0Ox56IqG+mrK8c2y/9B7vXjhJ3LVskiT9FWQQ/heoIC3wLH6X0zDw6k6H1s6YaChn3Y+krbw4YTZLziahazCBXwJXM8pFOe9vVFcbz/ElB4jVacXgp7thr0y/swwurvua1yfuRP+Fd5m/eALNlHMk6W9TlMKZE5cJSk6hrr4eFVtbWrX3pYejkTLDX+Dy9/R/5lMO27/C+W+eoaNLuagbhwjIs6HnlJ646WndYWhBHVXlsZz86Rgpxm0Y8HhHbJVz/lrHmWU1mm+zRrKp/EdGaN+54aqrKCLxyj72XslBz8yOtr6j8LJUzqSavIQgLp72I6bQDNe2PnTqouyE58dy6txFEtXd6OHTGieTGhL8DnMuJJm8my66Wli40rSNN62bWqCpLjsCt1IE4ffcK2ZWY3m0xXA6a2ZyKnAZi66eJljNgfY+MxhqpI+GijKjYOcyixdbdcWl7CJrz3/HDxGR5Jn54NtuKt0VV8YlSZL+VUqJOfELX789j5WHQ8mqUCbfp4Q934gAPB6HPlOYPr0bljplhO1bwHdLf8YvVZnpDkrSwzmxaQGrdhwlKk+Z+ADV1YawdvorzJ6znWhl2p+VE36YLT8vYMvpSLLKlImS9FcoCmHHt/N5Z/ZsUa+mX5tmzebdzw+RqMzSOOLY99E7zJ6+gksF5dSIlMTj3/L11ws4En8thyIIryz2Z+X0Wcx9fw+xytR/hhqKs6+w8e2ZDftwxrufs8IvQzlPoYKM0MP8PE+xj2fy0Y87uZqubAQzr7Jl6ce8v+IgYRmKqLuIkF3f8dEbyu9DOb322hu888GnrDmbQkV13bVlpd+4ZxCupmuCsbomGmWBbDr7IQuvnCG7spL6imIKVOp+cwldw8AKM2qpyD/Kt0feYXl4NDX1ddRWFlN0U7AuSZL0XxAZegFUVOj49Od89vGzdNArwX/tLN4WJ6VD97g1WJR0mZ2LZzH/p+0EZikTHyBVNTeGvPUGM2f44qRM+7MyLm9h6eez+GHvVdKKlYmS9MAVErR5AfO+WMqpEjtGTX2dN998izn9O1B++NQD61TeH3u6PzuNmW+NpKWBNmoiJWrH27w+axZbIq7lUIRYmorhK2/NYvrzPXBQpv4jVJeSF3aQjZfLcevWF/e6HC4f9ePmMLyBvjkW9qrkBh/n2LFI8pXJd2ZOu2FTmP76W7z11jR8m1Zzduv3vPfBck6nio7KPQc//zep0Yt5yn/fprTGAG/HzjQzN0Vby4oOzr3oa5jDrgvf8GNMCNm1tTcC8aIacwY274udripaOi70adKdlvWX+fHMYramJVOqzCdJ0l+gRJwSMu2ZOnWqMkH688pJvHCIo2cSMeo0iF4+7phrKWcpFKUQsvcAq7du5+DRo5yIzEHFpil2+sVcXr2A5TuOE5Rah56ONqlB0URG7WLPfj8iRWBdU1lFbkoehp7NsLyxTpEW78/+1cvYcTaClIJ6SnOKKK/TwNzRDkONMhJDz7J102Z27j3EiRNBBCeJ9VubYqKv2RAE/FYChxcsZV1GLRbRx1m8fgcxWq3xtisn+nQYuVoOtOrmikl1GQVXt/Pz0k3sOXFCrFcx+RGaWI6xqxUVkec5vC2SOgcnzOojObZ5J+cik8FInJzN1Enx282WDRs5GpROflk9eYlZ1FvYYm1uhPbthZKk/1/BBRa+9in7E50Z+fGnfPDy0zwyvC++ndtgZ2uOm5c4nhVXn8tTObljHas27RbH8lnO+WeSr2qMnYMhWqKxTA0+ydaNRwkpEumX9rB98wHORSRTb2SGpZkh6optlcYTcHIzG7fsYv+VJIqLkjl85iqpJp2YOqgd9iZVJF4KJ7XCGI8uliRt/o6fdxwlMKW2YYhMRmgCeq3bYKWWTbRfFEV6jrTo1ARjxRXovFiObFvP2q17RfkucCEwlzItY6xt9NGkgNhzh9iy5zwJRUmknN7N9u0HuRiXhaa5JaZGeg3lS4s8xKH1m9ix7whHFHU2PBN9CycsDbRQU03g0JcbuVjqybi5w/BUv70iVpfkcnH1+6xMasIjrz6PZ8xa/NMNaDZwCJ4Nz65UkR19iRNHY9Fxbo2NZirhBQY0b98Gl6po9h8+QbRGKwb36oibRTVRR7dz+HIt3Wd9ypsvPc7IAd1o19SYjICz+F8IoKrdGAY3M0VDTV6VvS4yMvLeQTgqxni7DKC9ZUu8HTrhrR7OVv+FfHTpKk5eL/JkMzcqkoJIqa9DRdWaPi0ewcvEEW/7djiWH2DRme9YlVBO947PMdBSl7y0aHKUq5Yk6QGSQfhf4F5BeAqnvl3Ewq+XsmzbDg4fP85J/xBiE6twbG9D0IeT+fJsZcNFirSQM5xLrKcuZiW7r0JtlVhvwAXCktRpO24kLQyvrVFx+zc1YA8rv/ya/XFQlpdG2KVQSozcaN+jObWBO1i+8AsWLt/A7v1HOHnyAhevhhGrZkEbdwcsRSD+W0Ese/RVFpwLJvHkDpZt2kN2y6k82T6SL/tNY1mAOQNn9cYs9iCLXp/L/J+3su/kSbFexXSFpCJj2g7rgl68Igg/Q1Sx6HSc3cf2bXs44R9IproNrh525Bz8niWrDxKcLWKk5HAu+8Vj6NObji0cMPojY+gl6fdEbmfu4qMkG45i4Q+TaW+m2XA7X0XXVBmA11NVlsSR7+by/tc/iSB3nziWz3DmXCAhGYWoOnrS0aGWyOPr+PL1b9gZ6I///u1s2iY6tf4BZKpZ08S9OQ6G+QRs+YlvPv+KpaLeHDwbQHhcIgmJGZQ79lQG4TGsmjKbBVtLaT+tDXGfPMdXp0upqYN0EeSf8SukzdNP0ELlBF8Om8OGGGv6vdwTs+xw9nz7Hh8vWsmGHftF+UQn4UIQoXlVGDi542VTypXNP/Hlxz9zMMCPs3t2sGXnYU5fCSZXvwnN3Vyx1MviyDefsODLH9lw4BjHFHXWX9TzSid8OjbBTCeFw/cMwmsoyfFn1fvLSXB6nNnPdUU36RDrgoowbjaAQc0UjZIyCN8ZhFbrvnRsX0fIsSjU7bxEGfM4cccgvBiXQaPp3twWA3UtjJyaYp56mB3+kdQ2f5QnutihpS6D8OsUQfg9hqN4MMj7Cfrb2pOXGUBGZTE1avrU11eRQSuGd5zBLG9fbFUVq+jMM31foKNOLREJ58hD7GSRV/H2lCq9Xkzq8hJPurYRFUSSJOkhkHSOFZu2siPPikdmv8uXX3/NtNZaXN2wkH2hOnR87nOe7ao48anQ7bmvWPDZNF588UMmtgNtQxH8Tv+CeW9MoM1vXjWiiYVrd4Y9/jg9m4J1i248+eb7vDCuK85l4RzasoaVJ1Jw7v0k7332NR/OHkgrtSAOL93BuZgs7joUOzSRGu/H+GLBV7zS00KZqFRTQUHIAZaey8Hpiff4+tN3mD68BTqW1jTr2YvmN97mkketkTqtR7/AnNcep61pAYdP+3M1rgrXXhN5ZERn3MWq3X0nMeuDNxnfyRljGYBLD1phPpl1ddRam2KseodgrraKkqtb+PCbTYRpevHye18z/9M3edJXncwjW9nyy3nRfVbKS6e0qI4mo2fzxswnaGdWyJFT/lyJzYfMEPbsPsDOGB28R73KB2+8wuhWZhipK0Z+34kpXZ77hGe6aaEoVpfnFrJg/kt0MVPOvq6yiDS/jcz/6QAZFl157f2v+fzD6YxtX0H87m3s2iViLWVWshIorjLC+/E3mTN9NE0109lz/CqRqUViZjnmNm0Y/uo7fCjanq/nTcZHNYvjojMcUig6AtfWcHei3heHH2F/iiFuvfrQztEcj679cUhLwf/AfsIUm7iZkQvdevrSwTiNo8ePE5hSrpzxewxxaGKDxh2uxEvX3D0IN+3Jo56D6cgVll/4iFdO7iRUvQVDOr3DOz0n0cdQG/XcSC7X11NvO5G3WvXGOu8XZh1/j7cu+lNhPYSnerzPbJ+BtFEtp7ggkRvDpCRJkv7FCiJDiCwqpKwyn5S4mIYrGkm5xdTWZxIeU0HLkS8yorU48YgTstfIl5k+vj99xzxLfw8Rausb02ncSzz9RD/c9ZUrbKCBsUMbug0YgLc9mLl4MXjSVEb3aYVBTiQhETGUO/Vk/NRXmfXqDGa+8TSDmzthnJhBZnGZOC3fjRejZr3KKzNmMN77lhcMivKpaGiiWVNFUVoskVGxJGWVYGhlQ7vevXFRvOmqgRVubcfwzOszeW3qWLq2tKW4rIKSChXsvQfg270Vjibg0H4QE5+dhG8LGwwa7ulL0l8gMZNsEYzfqr62mnT/Q1wuNqTNmNd4c9YMXn1tGs9O7o97STnlien8+piFJW7eY5jacEyPo3srO4rLy8UxXSEC9BzSiovId+7MiEnPM1PUt1lP9MfZ6sZtq1sY0nLE8wz30mwIwluNeIWXp4+l9S0va6ktLyb56inC62zpPP415swU5Zv5ApNHd8eloJji1GzR3b3OgdY9HuXZ2a8xc8pwvF0tKCwtE21OlZhng6tnEwz1c0hOjCQyJo3Cymrqswspqqnl9x6BrC4vJfTwViIrC4g/8j2zZ7zFF+suUFKSTtKVIxyNuDUK18KqVXd8+7hSfek4J05Hkaucc295RIUmUFVVg5WFudg3d+g4/cfdPQg3sMRCUwdtzTL0KwM4EvgZs07uIFkE4lPaiZOHhhYRCXtJr6sVAbuzOFzqUdEuRLvgBKv83mPuBX90rXoypXUXDMSJKiLt1O8M6JckSfp30BTtn6riLqCuNe5ebfHx8WHktLdZvHQZ03tYoPGAL/yoq2uISZ3KMhXqxXlMTVOcSMtKia8SwbMyz90ZY2hvpHhG9HYqGmgaNMWjvIjIo7/ww4ptnIhzYOjo5xjRQleZSUGsw8AJUxNttLQUk44yXZIakUdzOio6jdkH+PzLw1xNvfZcWn1GEKu/+IIT2SpoaWtTL6LQsiIV0eFVvA2ohvySYm68sOQGYwz0nTC7fkxr3+GYrhJBr2YV1Rrin1WV1CninT9BRVRCTbEtUSQqykS3W3Ry66qryS4tJVmZ51dmGBvZY2SohbaOLlqaN71mLukSqzauZfPRHKztW+Dj7YqF7rWhOb+vRmw7hMNbY6gpK7xW739YwYZd50lSDEFJj+XC+fDb2xVDF3r09sXbNJXDh48RnPB7T/rlEb3rZ77bG01RRQe6dzQTbZgMwm919+8sJ5a48kJK9Lswpcc3/Dz4Laa4tsRCQx0DLf2Gg8m06eus7NgX1ZTLBIpVaZiO5v2hq/ip33MMsrFFV0UVPU09NLTt8Gn+Km8281auXJIk6d8ii3Mb5zPr6YlMnCimz7cSa+qGj5EJhiVJBJw9ydEjRzjSMMVSoy+C13tc8SnPz2TrB4o3CCzl/D1eQZhy9RCLZr3Epz8fJdmsCc0cXDCJPMLyD6czWZRjynOfsOtqAoa929PSzoLfXFS/T7XVlaSF+ZNq1YWXFq1l7drVrFg+n9lPD6fZrbfS70Po7u9468VZ/HQimlzFBTtJepCs+vDmS30x1E/mxA/v8epzjzNxgqiTz7zCp98eJLJCHdNOPegoYpewLe/xlKgnT0x6gXkL95FrbY5nHx+clau6JzsHPMwssIk/w+oPZjFFrOepDzcQllyozHBvR7+YyKTJH3HklrcbqerpY922I60LUriwem5D+SZNmcGXK05Q2sSe5p1bY6fMe095kfgFBnPlchCnT5zgyOkg0kp+/d2We6qpoizoAFvSjbEb/a6o84p6r5h+5Is54/HITif2gh/ht31UTSxaD2H0yNZoFwQSE5OpTL9ZGocXz2Xak4q28mlenPsth6MLsR0xlcFNRCx4f72E/5S775LSoyy+8COrItMwsOzHiBYTmOBuj1ruKX45Npl3/E5TYTWK8U7uqBSuZNqhpRxK16CFm8jXcgzDHNRIi1vHt0deYHFUDpYOw+hj2TivqZckSXpwSkgMOMmezetYt05Mx4NJV/fmhTdmMM7LlKtH9rFBkd4wHSRURJ91d3gVl7qWNu2HPEJHm2KCT+9hb1QFZXe4+Gbq4ErnXt2wqYnmjN9FLmZXUWnmweCJz/LMMG8Kgv3YLLa1bX8S5i2nMm/2RHo0NePmF7fcLxU1dQwtXLAoSSbw2B5CQq5yye8gO7ft45JibOx9cmzThR4+rqLncJb9F2KJraylVg4DlR44S7ymvsP8t55liG0E5/ZvYP36dWwQAWHTqS8wwFoDA7fRfPjJS7RRy2KnqCcbt4g6mebOxBffY/YEL0yVa7onw5aMfmoCU/oaUXD5INtPhFLs04dOtvb3fLbNa8gT9GumSswJUaaAMkpuDOdSUjfAzvsR5r4xCefyBLaL8m3adpqU8vZMnfY6zw/15L5+bsi5A+N7tcesMpYDe7ZyNq0aB0d1dO6jEaipqiTgwEay9I0YNHE6EyaImK1hmsyEsaPp2TyblNgLXAwvUC5xEwNbug4cSo9mLmiX32kAXCFRfgfYvlHRFu4gptiOZ+d9wpL3h+Kuf79X6v9b7v2LmRoWOBk1wdXQBG01RYtaTnlZNgl5ERSot6CFlQ0GZeHsT0sALUdamDXFSU9xC7NenISKKSpKJ7EojXrdNngaa1JSEMaFvL/gxbeS9F8nfzHzL1BFXkI4kTEpv/kVOCzc6djcCXP1MmIj44jLyKaq5vqjUEZ4dO1IEyMNckP3czGxHmefwbRQPA9ZX0t1YZwIdKNIK9FCz7Y5Xq1tbz+p15SQnx5NREwaeXVm2Lh54OFogl5VKemJiUQnplFcqSiQHub27jRzs8JQ904Rbx4Rxy6TUC4ClwEtsVZXUwwBp74uk+D9V0jXdKZ1J3OufDSYV1do4TPraUY11SYnJYA9G4+g6T2VOR89hVt5PBFXM1FzcqNZS1v0xTkgOiqSqFIDmnm40cRctPlVOaTERRKTXECppgPurd1wMtHhn/zD3tK/V1luMgkxoSTmKl4HKAIZU1OcXL1EPRPHYn2dqGcZop7FkVaouJyrjpauNU2beeBirRjSUUlhWjzhVzNQcxTHdCs7cUznEBMdSWSxHp4e7jRVrKcqVxzTEcpj2hxHdzvUEhJI17ClXXMHjHVLiDp5lfgSE1r6tsRGWwPVskRCAkW58upRNWtBh05OGFelE3I4mFw9Z7x7eWBaVyPKn0ZYeAKZxYqX6muia2iHq2dTHCwUUXQ5OfExRIYVoOfugbubJbol6YRGRJNQY04bzybYGatQmBhDcGwqheXVGFhbY1STR2a+Gc26t8ROr5jII6LuV1rRdlBrrG56iLWupor0kMOE5OjSpG1v3G7qlVSV5JAYdkEsZ4GzZwts6jOICk2l3soNz+Y2osURqvNJCI8kNjkXNVsPWrg5Y6FfS1ZEAOFJOZRUN6yqgaGhDU1aNMHaxAg1OR78Nr//s/WSJP07yCBc+sPqKM25yqJRPrzrb45Dc1cRSNRRWZZLYnQxTj1m8t2OWXSSkbQkSdID97s/Wy9JkiQ9rFTQ1ndiyHPv0MPBiPgr5zh37jwR0Xm09X2c19+cSEsZgEuSJP1l5JVwSXoYyCvh0v+jvo6a0nwSEzPIK7v2pnE1NQ2MTW2wsrNCT77rW5Ik6S8hh6NI0sNCBOHeF73Ztm2bMkGSJEmSpH8qf39/GYRL0kNBBOFe573YuHGjMkGSJEmSpH+qoKAgOSZckiRJkiRJkhqbDMIlSZIkSZIkqZHJIFySJEmSJEmSGpkMwiVJkiRJkiSpkckgXJIkSZIkSZIamQzCJUmSJEmSJKmRySBckiRJkiRJkhqZDMIlSZIkSZIkqZHJIFySJEmSJEmSGpkMwiVJkiRJkiSpkckgXJIkSZIkSZIamQzCJUmSJEmSJKmR/X4Qrm6Nu1U7Olo4oqumrky8iYYTbew70cnMUpkgSZIkQSVFydEEBAQSFJRKcZUy+V+lhrL8NGICwolLyadCmSpJklJJOqEhQQQkFVBXX69M/GeqrysgSbRHIaFplCjTpL/X7wfhBmP4cOQuTg56jqb6hsrEm5i8xIanznG6z3BlgiRJ0sOghuLMOMKvBhKbXkBFrTL5fhUGsvGT13j00ceYPGUpl7OU6X+z+voC4i9e4vKVJIqUaXdXQOzZdXzw6Gt8/tNZUpWpkvTPU09dWT5xoaFcvHiRi/7+XImOIa3kL+79hm3kxamTeXTxOcqr6kRCIQli+5f8E8W/7qaGiqJ0oi4GEBadRZky9a9VT1X5RRY/OompL64nTJl6m7pqSnMziAgKurYfxXT1aghJaaITXqPMo2gbM+IIu3pt/vUpOCqBrKIqahS7QbovcjiKJEnSHRUTcXAZH06fxeLdAaT/wcvA+SdWsuB4NEZN29G5iwkqGtVkRZ7G74I/SXc/O1NVnEVc0Gkuh8aS8xecnetqrrB80hSee2k94cq0P6ssK5pg/9MEJ2RT+q+84i/929WVJOO/Yw0fzpzJpEmTmDRlCs+88zHLD4SLmtyYglghtv/U06sJFX/V1d6p3peRHr6HBZNm8MHCoyQqU/921WUUxfpzcOVi5kyffm0/iun551/hy283cjIwg/yGdrCY8ANLRdt4bf716eW3P2Xp7kBSRSAu4/D7I4NwSZKkv0BI4GlQUaHd1K9Y/O2rdNEvwm/5M0yf/Ra7o5WZ7qAg/jwb5j/De9+uxT9DmfgAqahY0My3Dz27u2GiTPuzUs+v4au5z/DV1ksk/f7ldUl6sOpLiT+6hHc//IFLxdq07eKLb7eueKvWEr3nPHHKbI3DDE9fX3r38sBU/FVbcad6r46uiRNevt1o39oOA2Xq36uOiuwITq+ezzcr95Gja0N38Tl8e3bFwxqu7F/JgiVbORldxI0L4uhg7dqGzj0V+9sLjWR/Ni5fz7n4bCpkFH5f1OjFPOW/70zHh3EtuuNZE8CySD+yKsuVM5T0+jGtfRdMc3bzYdgVZaIkSY2qBKxTrBk3bpwyQfrzKkgLPMv5y2kYePXAp7UzJprKWQoVBaSHReAfFExEVBQx2WWoGJphpFVJiv8Jjh3bj39SPXZurdEsyCYrM5ALJ48TmqWBobk9WlVlaFtaYXDjUZtaynKTCT5zmNOXgkivMkJfxwAtDTX0TIzQVqsmLyOeoIAAgkMjiIlJJ72gDk1DPXS11O5wRSWPqBPnuFxUj15ONGevhJCjboO9sSaqagZYe7jRtIk5urVVlKcGc/HcVUJjYsR6FVMimfnV6JjrUhIXwLlD8ag4u+JkXk5iQDAJ2YWgrYeeniqFCaFcOnmQcyEplGtaoVsPWkZGGOppoy4v80iNoL40gB9mf8aZcle6PfMmc2c8xxOj+9PTuyn6uto4tmyCsahf5cVZRARd5UpQmDjGk0nOKKdGUwcDA00RDJWRFR1GQFQqxRW55ESHEhwcQXJ+OZoGBqKOaVyrYxUZxIX5i3WEE5lRCkVRbDseQrmLL8/1dkVTXdRFVWX9ctYi7dwRjt1S73UU9V5DHS09M+zcXXCwMUJLhLYl+WmEBl4lIDhclC+F1OxqEYPpoKerIcpXQlpIEFcTcqgsTyctLES0A5GkFYl6amyIjlifiiheXmoAoRcDCY6MJlpRl3MqMTa1RE+0XbXVcZz48TAJ+l4MmtIFO8Xnua62hJTQ46z++SAp5t0YN2M2b748mVH9RNtnr0ZRSgj+kaWYNXWjdUsT8gPOcP5KIc0encXsWS8ysac5af5BREdW4Ozbk1aOpujI+n9PmZmZMgiXpIeCDML/AvcKwvOJObiLDUt+5ttf1rFz3z4O+seQLQJnZ1dtLn48lW/8qlA8ppV0+RBH/LPJjljFvgCoqSwj5uJxLodV4trfFzf9a2tUPMiZFnyAX775DhHzUpKdRMCZS2SqWOPZzh3NDH/2rV/Ooh9WsnHrLg4e9ON8SBqFhpa42ptjKALx3wph1ZOzmR+YQuX5bSxYsYEEh1GMahHJtyNeZamfFp2f7oR5RhAHFn/GpwtXs+XgQbFexXSasDR13Hp6oytO6ucOBZNRVUDc+T1sXLORw/4hFOla4+RsStqBpfy0/gihOZAbH8g5EZCouLenpav1TR0MSfrr1Edt56PlV6i2e5SPF46hmY5IVFVD29QGj+sBeEEi5/eu4rvFP/Lzum3iGD/JyQsxpNZqY+Vkh51BLhfWLuPrpTu5HHOB89s28svGXZwMiqXGsilN7a3R1ygU9X4dPy7+hh9+2cGeC1FkFeUTG5tGjWtfZRB+le+HvcQ3x9Ro/6Q9/m8/z7Jb6n3T/p3QidvNoue/5WSBJW2HNEM7K5JTO1bw7eLlrN64Q5TvDGcuJ5AhOswOjtZY6qVzbNFCvt5wjIjo0xxdv4F1W/dwNjwZNccWuNmYoq2ex/El8/jm61Ws27Of/Yq6fFU0JqZeeDczQfVeQbjoeMSe38vqw0U07fUoLzzbFStFuroOhtaGou+RTMiZVAyae9GmrS1lwYogPJYiTT0ozyU5MoDzF0IpMOnMiPHd8LDUQ1b/e1ME4bKfIkmS9EflBbJx9To2x1bQ0ncgY0Tnp5dhDqd+WMC+KHDqPppuTa81r67dxzF28lAG9RyOjyNo6OjTovdohg7ogIMiWLhBDX0LV1p37IibBRjauNJ54FB6tGuKWVUyfrvWs3bvFdTs2zF05DiG9XfBOP8km3/ew5X4XO46FPvKJQJVXRk1eix93G658V1TSX7EQb7fF4dWxyGMGzmY3q1t0TAwwsbNDVttZT6yyatMB3svevbtiGVtCoeOi/XGV2Dh7kO71k2wEqu28uxEv2EDaedihu6tfQJJ+ovU52SRpKKCioN5wxCQ21QVk3J5Hz//tI24OgdxjI5j1FAfPI1i8Nu+hb0nY34dN54cTkxcGZotfOnToxWaeaFsPxpIQlaZqPcBbFi1jyNxunh0Hsqozh5o56VC7a8DNG6mqm6Cx+/We0EEwJGnd7By3SFydN0ZOHwcIwa3xlE1kKMbt3PMP/nXhzdjrxKWpIKZz0B8u7hTnXyJ9YfDyClStABZ1BRZ4jZoOKNEmzRucFssUi6zYsn+3x93Xl1FRVEBWbpaaFkY/XaIjOJqvJ4u+pRQWlZK2Y1rsblc3beCL999gzc+XkmgigX9pgygg60JN5oO6Z5kEC5JkvQHlUWHE1pSRImWCXYurnh4euJoZoiaahpxSWp0mDSXx31EFCoCg46T3mfeM6MYOeUNxniBloEpfZ5+l1nTR9HSSLnCBpqYNelE/7Fj6OwMlh4+PPLy6zw5vAMWBVEER8SSZd6e4U/N5N33P2Te208zqJkdhorb1oXixKhcy+2aMebVObz/4Qc809lMmXZdPfXi5FulpoGhbVM83ZriaKGPgbUN3r6+uN84Exvi4j2IZ9+Zx7xXJtKrlRWFpWUUlavi0mUMIwa2p4lYdZPu43nxjVcY3s4BIw3lopLUGOrFsZwr6qTyz5vVluSRHHyewBo72o96kbffE/XnvVd5YkAbbLPyyU/OFOHkdea09h3PK+++z3vPD6elkzE5hcWUV4ogNzWZiPIySl17MeXlN3n/gw9554nOGOjc6WBXQV3Thm6/W+9F/JufRmxIANEabvR4ZDpz533I+++8xPhuzbBMySY7M48CZV7R1cVn5JPMfO8D3pvaD2dLPTILiqiqUXQEbGnXtxsde7agWXNPPJtYo6sYo5KUfdPn+x1V1VQXlf32daRVVVRWVoo0bbS0RJB+446gPs7evRk+fDA+1uaYGFvg5mCBrpa8Bn6/ZBAuSZL0B9XV1ohzfr04e5aQl5lBWmoq6u6dePTxyXR21EBVceJ7gOrr6qirr0VdwxhjQ310tETjraFBqaoa1co8d2eBiYup6A/coVCq6mgaOdKkNJ+g7Yv4cP4PbL5YT9v2fejkcvO1MDOMjdywNNdFW1sXHR09Zbok/f1U7B1xr6+jOuEc2w5Fkq6IxOtqKEuP4cLJM8SV1lNbW4uqmjZ6+mYY6YtDX03UHVGHbu+82onj3EUc71oir4EIOu9wTVddEy1jVVREP1tdXQScf7K+19fVU1cnyqeuh4GBMfq6YpVivZViumUAsOCMjZUD+noaDXnVRVluyIzjwNH97Nx5jsSEJFIzC+5+h+xW4nPqmVtiX55HStRVTkXlXdt2VQlpYQH4h0aSZWaLjb0tFjd2iQmtfB/jxVlzeH5oezTjzvHLjotE55bxR9/o+l8lg3BJkqR7KiLmwn42/PQDP/wgpr3+FJg64apngI6aFroGBhgaGiqnprRsaoraPaLwqtIiLu1czi+bjhN7j1/MyE8M5fCGNew5FUahsR2Oljaox/qzf+NPLBHlWLJ4I0djUlFp5oK9icH/dftX0ZkoSEun3NAV38ef5/nnn+eFF6fz9MRxtLVWZvoDUgOOsGX1Bk6FZ1Jy5zv0kvTAqTTpwwsD3Kmq9GfjV9/y/WJFXV3C4u+XsHzVfmLr9LFq6oFlbir+e1Yq688qth0PJN/GHFtnW265OH1nFlY4a2ujE3uKDWt+amgPFu/wp/TXF2jf1b3qvaaxCbaOTTASnYYzO1Y0lO+HxWvZfTGSMicb7Gwt7u8NKsnn2HjqMglp6ujpifZIX5v7HhWmbYxts470aaZKSvQRfvn2+2vlEPvx+6Xr2O+fj6WPDx06ON++r/Qs8Rrdi7bOlmScOUFgUg7lMgq/LzIIlyRJuqdCIs/uZNXihSxcKKYd50nU8GDMiKF0NS/m0NqfWaRIb5jWczGjklrFE5m3UFXXxNmrI866BZzf/iMrDkaQrpx3Mz1TK9w83dHKDWTv1s3sDUqlwNiFrr0HMai5IVHHtrFYbOvHXy5Sa9iJCZOH4ONk9q9WM7gAACwQSURBVP+NwWwop/g/FRU0tbSws7PEWL+MtLgI4rJKG7LcDzNHNzybWFEYso+1mw9zPr1Q/rqm1GhUVF3o+/J0Jg7ywaVcdAR/FnVx8VJ+uRKHTquOuJkZ49CmHxN9W0HMKX4U9Wfx8l1EZNowcMxohtzv6zqtvRk7oiddzLPwW7uc79fuJcTIDVc1xdtL7uy+6r2eFZ4dBzCuszNFAYdYKsq3ZMVh0spdGfHoCHy9He4vCLdrRt/mDhTFHhGdjG9ZfyEDY8s7NEZ3pI2pow9DnnmS4a2Nqbq0tmE/LVy8ngNBNdh2GMfkUQPp4Hzn7opek64M7NIC69pw9vtFkfPv/IngRiffjiJJDwP5dpS/gApq6rrixOSBV4cudOminDr50MHdDfcW7tg7NaVp85b4dOqknN8Zn/bNsNFTQ11TByt3xd9tcTC8dvvbxNYFe3sXmrXtLoLqnrRzM+XWgR2aOvqY2zjj1LQZrTv1olsXbzxszLC2dsChqSsu7s1o26GD2FZvBgwdyeAu7ljc8TUkogza5jRt34527VwwUVNtuGuuoqKGho4VHl188GpmRu6F7ZzwL0a9iSO2+qoUZEdz9tARYgv1cBSf0UxHR5S7KS07tsLN0RRtVVXU9S1w8WiFT3MXrAy10DGywMrWSaS1oV2PvnTr4Ia9gZZ8O4LUSFRQNXGmtYcLTZo449lG1MVu3eg+oD+D+nanmakOOvpWODVzw9HZjZZt24r605Pe/YYypG9nPG0UXVhFfdfHsokHrXya4WRpgKaoK5rGtni28BJ13g4jHWOsmzpg7+iEa4v2+PQazMgxA+gg6qZnO2+8nRV3wUT90hb1q6sP7do4YHTHem+GgZoWBhbONO/UhmZNbbEwscHR3V3Uew9at2vXUD7fgcMY0ssbFwuthvKpaxhh49GCNj4e2JnooqEYTmbqQGsvb9o3tUTXzJomNrZYuyrapM70GzKE3u2a4eHlQ/u2jhipKF6LaINnlw60aXX7+8lVtfQwt/egubszTd3EfminaNN60tN3AIOH96JjC3uMGiq12N+ibTRz8BD7shUu1opXqOphZm2KqZMj1o6utHYyR1dTPp19L4q3o6iIEPze3SSTl9g4/i1GlK+kw84FBBfmKWcoWX5BxPOzaBr+LBqblysTJUlqVOngdd6LjRs3KhMk6ffUU1EQzbpXR7EwyF6cmL1poldLWVEaYVcSMGw5mbe/fZZ2t77JQZIkSfrTgoKC5HAUSZKk/yp1LUNadB2Jm0ElQYd3sGPHbk6ejcK0aU9GjOpNExmAS5Ik/WV+/0q4pic9XVrjWBPDnuRQ8qsqlTOUtNszyqMFBoV+rE6IUiZKktSo5JVw6f9RX0dVfhoBAVGkFhY2JKmra2Nj745rs6YY/18DzSVJkqTfo7gS/vtBuCRJ/3wiCO9wpQNHjhxRJkiSJEmS9E917NgxGYRL0kNBBOGdAjvh5+enTJAkSZIk6Z9q165dcky4JEmSJEmSJDU2GYRLkiRJkiRJUiOTQbgkSZIkSZIkNTIZhEuSJEmSJElSI5NBuCRJkiRJkiQ1MhmES5IkSZIkSVIjk0G4JEmSJEmSJDUyGYRLkiRJkiRJUiOTQbgkSZIkSZIkNTIZhEuSJEmSJElSI5NBuCRJkiRJkiQ1MhmES5IkSZIkSVIju0cQroq6mg56mvoYaBqISQ9ddXVUlHMlSZKkP6a+vpqK4hJKS6uoVab93errqin/Q2Wqp66mivKyEoqLy6iorBWfSzlLkqS7ExWltqqc4pJSyqr+KS3A3YiyVldSVlxKeWUNdcpU6cG6RxDuyeDu67nyShZFbxaJKYpjw56kuZERqioyFJck6WFXR3V5MQW52WRn/zrlFRZTXlWnDDyrKcvPIye7iIpakdaw3N1UUZCynimGdrTo+Cnnlal/rwpyE37hSUMHWnf7govK1HuqzSF815dM6OSBoWFvZnxyguRi5TxJ+reoF/W7ooyCvLxrdTs3l/zScqpq/8IeZWk6gUsfx9C1A0O/uywS6qipKqUwO4+C4gpqruW6g1oqSwrJyy6gtKK6kQLidM6vmcMAQx8mzNlGtDJVerDuEYSb426iT2VNLilFmeRWWdK+1TIO9hqJk7aWvCIuSdJDLh+/H19maEtLLC1/nTqOfJ6vdoWTXlIrgm5/vvL1wd1yKusScqlULvln1FaJwCA7hcycAsrvflamulQEDxkp5BSVU92Il6lqYi+wcfNGdkcXYWopYhnDCorK8xvKkl1YRvU//QKfJNXXUJERwf5v36eft/e1ut2qFb3mfMneiKxGvEuVS+j+Lxhr2YExL60nQqTUVpaQnyXqf14hFTfqfzTb5jxOV8sRzNt8mUxlqvTvd48g/BRfbu9L668dcPi6JxP8gkirrMPOqTfe6jqoK3NJkiQ93DTQN7XBwaUpTZ1tyLmwhXff/JID4amU12tjYu+Ic1MrDDTUHsjFicyr23h/nAO+U+ayJ0aZeAfhm2YwpqsDjy84RFSuMrERJMWHEh8ThGP/51l88DBLZw6Bw3OY0NOBxz7dRWiOMqMk/SPVUZ0bwq7FbzL9zUWEF9fg4CzqtpYGWeuPcehAAMnKnH89NTT1TLBp6oitpQGaIiXFbxVvjHRg4Aufczj+Wq6GNshctEFN7TAz0Jbx10PkPh/MTOB85iWKq8uorioRJ556jAw8aGbRAift+1yFJEnSv5IDw2Yv43BgDDF+y3imsxuGMQGEJOZTXOXB+K+Xsm7n6/SzNmw4iVKaQWJ4GKGhoTem8PBE8qsaVtagrraa0sxkYsW8iMho0nKLUYy6rCrNIzM1ldxSqCjOIyU6isT0fMp/c2muhtKcFFIzCyirhpLsZGIiY0gvrKBGOUSmMDuFyIhw5fbjiEstpvJ+77LX11Ittp0WE3NteVG+OLGt0po6KoqyyEjLorAc9FSqKMrKIDo6ksSMfEoqxUcX5YoVZUnLF+cKOYhU+ieqKybqwgE2rD5Anosvj324g5NXRd0OPMO6L56kq4e+CHkVaigpyCROHN/X6pHIk5Qn6rziDphCGVkxUYSniPqQm9BQ58NEvvi0XH6t6vXUVWSTEieWD48gMjmbQlFnf2WES8cJfLjzRz58tTdWxTlkpqUjqo+oa9kki/UnibpXUWtPj+fmsnjnJ0zp5YFJw7I1FOemER0ZoSxfLLHJok0Q9fRa+UrJEG1AmChPSW488SJPWFhYQ129XgRFO1SQKZZrWF5MEVHEpefddAVe+qv9bgRtpO9GC6sRPOPRBiOVPC6F7+VKVRkDe5/A/7kQfvTURlWOTZEk6aFVRX5aLKGBV7gSHEtmcQUa5i1wdzBCVyuQpeMG0aXlTLYl51NZlUvs+jd4xNuLVi1b0rJhak3bjs+yJVW5OhFsl2WHs3X2kwwU8zt09+XVhesJLSwi8eJavpozhzX+EHtyPa8N783UDzYSWKhctEE+fstn8u5Xu7mcDGeXTGdk9xF8vDuM7Mpq8hPP8sN7T9G5g7dy+8MZ8cIy9sTnK5e/l1oq8+K4uGw+0/r3v7Z8J19GzFnCDvHZL+1ZxGfvf8XuUAjZuYhnhw1h6NC+PPflZs4nwvmfZjO25zDe3xZIxoMYmyNJD1pJJsnhQfinNaXnwCf+1959QEdR/AEc/6Zceu89pAHppAEhNAk19KpSFBBBpUhRQUARFEFBBUEFpUhROhJ6V0noTWooKaSQ3nu7y38v3B8Vg4Aggs7nvX0vmZ2dmcvezP52d3bDmyNDcDGR0o0ceWboiwzsEoa9MsDNuMDmrybRJTxU1Y/a02HAHJYfjie/9qHKs3zZrS1Nh01hwQfP0i/oVp/vMXImUZm3vvyKqiyubH6P4V2k7QNCCBs2g+W/5NeuuyWXqwe/YJhPR156+zt2/fQ1c96ZycZzcGX3EkZGtGXknG3EFCWwc+ZIuvq8yNxt58hSnmjfPMnKOWMIbxGial8EnYcuYN351NrnU6TeyOymIfiN/IDls3vSQ8rj6x9A/4nzOJ6jPE1QUJQdw7dvRdSOQ7VlNG5B9wkLOBBTcDtQF/5e9wzCWwQvIvLFVUxy1OHc5feZcjKK3MpKsvNOc/zmUWJKpJ39Nz7HIAiC8M9KYfeC1+ndIoig9q+zIbGC0Nf70sbNFkNVjtsS1jL0rU1csfaiSdNQQhtag5oaRk4uWGmr8lBMQfFOdp3Nx1w6cNtq5LBr3QqW7stAx8gGZ3d3bI1A19SG+o2C8HKxxvB3959lGNt74OZkiZEOmDg0wD/YHxdLfWQll1j2xgjmrDuDWT3f2jYEeOWRvOMN+oyNJO9eY7U8j9jjK3nrrfkcqNAiKDSUIEcDcjYvYMHsZVxUOFHP1QlLAzCwdMSzbWtat25FsLM1xlJblO3yC26Eq/LWurhJKjyJykrJz84k2cwAAwcL1VXlO5QlsueL6Xy8YDMF2g4ENZb6gS+UnP2U8e+u5PSNvF/nje9ZwvztpUidEH8XYy5Efsb4Zddr7yiVp21lwsBF7E+3x9vbF/eqBE4cuNsj2eromTrg7CaNFdLAom9uT8OAQBrWs0T/zvknJbFs/OBN5iw/gJq5OyFNQgn0KSM7agbDJq4nPq/817BsyzxmbldHv2lTfOy0OLHpc95bEy+tqKCy+BJJZ7Qwlvp5aJMgfK3UiNuxlvnfHiT91tbC3+yew2RZdQVyRTr7fxzIsH1L+Km0uPYMaXdUF9osb8bY6+WP6UldQRCEf4Iu1q5+UkAbQgMzYxxDwhnQ3g8Hk9tR9a9ys0mpUWDfcTTvfzCTmS+GoK6pSbM3p9HdTpUHTUztg5m4ZheHdqzhwwFeFJWVk5hZjGNQX16bNo1nA8A1rDcfrNnK/Ld64i0F5b8yIWTQB0we2RF/qcwmQz/iu53fM6FDAwwvRPLdmWwqGvVnzqo9HIo+wo5Vo2ilp4X6tmiO3uOKiaKggNQzxzmia4Fbi0G8PXMmk14dSpiLOrkFORj6DWHsxNfo0BA8I0Ywf+E3LF68mg9GdyfECYIHzmDF9jVM7OqDdR1/HkF4YlRWIy+vrPOKb9X1o+w9cZl4m3BGzfmevT8dYc/G6TzvbY9R9Dku5hVRosoLVjz/2Sp+jDrM9ndbo6mhzoUbyVIQrqDqxGF2y3Qxaz9G6qNHiNrzA/OH+qm2u5M+rs1fYPTkCXT3AY/wF/h43RbmjOpIfemk97cqL+7nh9OJZLt3Z+pXWzh46Ai71kykq70pOvtPcrqs4jefy5aXvt3K4cNRbHijMdVyBVeS06R06WTeMoihs6YwY740Vk2fyKt9mmBZWEZZUia5tzYW/mb3DMJj037kYNx+zhUX3/+cQkEQhH8NW9q8/CEr1q9lVp+WaPz8PXNXHuZyZh0XIGzrE6yuybWvX6Zd2za0eTsaJ88WdPCzVWVQ0kNPty2NfKzQ0tbGwtJGlf7wigrzkcursXZpgpeDHjINKWR3dkWmfn+XpaurqyiWyqA8l8QTm/ni449ZuvUAxba+BHu7YaBWqsopCE8pLW30jIwxy8/kxi9nORGbS4lydkZVKZkJ17iemEpGgRTvlJdjautJg3o2GOuCgY0dOrp6dTx83YbGAfXQ1FTHzt75j+vVNdC0dMHRGjQ0NDA0Us59eTglxYVUVVZg7tiIhk6mSOfYGNk7oSWrfSrlDhGENbavbZet1L7bpGC8NCWFXZuXMfudyXz8yZes2nmWx/iMtyC558hcXnCYTReks6giBeU10oiu4mjTgS71uxNq/GjeCCAIgvBEM3Gl9csdCPSy4eLWrRyPT0U5G++3SrNKqVEY49W6C926dad79xG8PWsVrwSoMjyAwowETh3Yw5FzN373UOedMq+e4MfdBzmfUoCBuw9OevokHdzM+q2b+SEyktVfrmVnRRXGUhBtfY/RWkvfAPv63lhrm2DfqCMvvPIKr9Qur/Na/960aGCsylm3rNjT/CS15Vxi7h0PkwrCE8LUFq/GrejiVsGpn1Yxa+pX0gl2JJHrV/H59BksXHuQLNN6OFpaU3g2ih2R69ko9aM1S9YTmZxOtasDlno6qoc3/4wa6lbWOFaVU3RqHYukMn7YupMdR5QvIry3gpvXOH5gL8cvJd/xMKf0EVzq42RsRtaRPWyJ3Mhmqezvvl7HttwCZPWdsZJp3ju4qygkNWoR7268gK51T155eRC9nvGue3qO8Le5534K8XmfRb22MNu7LVbSGeT/tWr8Lev6beE9F23llEdBEIR/PdPgzvQN9ccp/xTbD18j846jY0nGVeKlINyvUz9GjR7N6NHtcNe5SWxGsSrHvekameFQz4myyzv5+M3Xmbn2GDfqCMKNbZ1xtjfh2g8fMnrUDFafTaHQoyVD27UhsPo47w9/gd49ejD83UPYNAjn1VkDCbzXWK1vhlPTLrwUYE3WgYUMkbbvUbu8yKRPt3CpUJXvDsY2jlJbzIjfPpdxo6fx7Ykk8kQQLjyRTHAP6swLb71ImGOJ9J2dyshB0nf85XF8dSIdDRM7TF196di6HW1N0lg/azzPSX1gyIS15Kt78vwbz9HK0QJdVWl3pa6OdlB3JoQ3wPTqJqb07svAyZ+yPdsMe1WWuuibWuLoZE/B2U3MnDCBOT+cIfnO/u8aQt/wcMK0Yvhq4iv0ldo3bNIONC1CGPJOf0JN9O79GkNNGXr2HngZl7N35UT6vjiKTyLPUf27qW/C302D1ryn+rlOejp2yKpSuZR8gCO5SZQqbo2sBnrOaFZc5eSNSI7ki9FWEP5RUoznkOHAsGHDVAnCw1NQVlhApcyShqHN8fewwVDTBBtrDSr0NCk39qCVjzXq+ZVo12tEqy5BmGadJXrDUc4X56JRlk983Fm2rtrA2Qw9vBr7YKJRSl66AuuQMFqHe2KuqKJc+e/fdZwIbdaMpq4m6BoaYGllgYGhOY6N2tI6oi1NGphzx7RQTCwtMTPWx9CiHh4tetI5IpgG5g74NfHFwtgKQxs7vH198ffvwAApMB7f2aGO/3Zcg7y6lPyMGmykNrVq44uTiTOeQZ4Y6plh6+Ymbe8vLYE0kdoXEuiBibyAkipNbL1b08S/AVb6UhBuYYGpsQGG5s64N+9Op86N8bTUu/XKRkF40uiaYefqQ6CHORaWFjh6SN/x5s1p/8IgBnQKo4GJOU6eDXFwcMDI3AZ3T0+pDzxDrxffYEzvQOxMld/scvKSS9BxC+SZrkE46MpQL8shocQQ3+Yd6NnIBg2ZLY1aOGKgpYW5W2Oa9R7MiOHd8KzUxjmsBc3djaksLaG03ADXsFAaBztjY2QktckMQ6kPOwW1p03nZwh206cmuxSMnAlsK/UtJ1e8/b2xsbLF0NKWBt7eUvva0m/424zt3hBjXeWsBeV/wy3G0DuU9j0CsZG6fk1pthTQmxPUvC0d/W3RsXKggaEOapYuNA4Lo3PPCJp52FPPTxqLGjuhU1RKhcKU+i1CCfSz/+OD6MJDuXr1KmpSCC5megvC0y4Nmp5rytGjR1UJwuNXzNZXGjDoWy18hw6mo71MGmAz2L1sIaez+7Asbh3PWaiyCoIgCP9pW7duvfd0FEEQBOF+VGJZvx1ednKOLprOO1OnMHXq58RX+NLl+X4EigBcEARB+A1xJVwQ/g3ElfAnQ24s2zYdJPp6LIqaW0Ori2sz2vbrSX3z2l8FQRAEofZKuAjCBeHfQArCg08Hs3v3blWCIAiCIAhPqkOHDokgXBD+FaQg3P+YP+vWrVMlCIIgCILwpDp//ryYEy4IgiAIgiAIj5sIwgVBEARBEAThMRNBuCAIgiAIgiA8ZiIIFwRBEARBEITHTAThgiAIgiAIgvCYiSBcEARBEARBEB4zEYQLgiAIgiAIwmMmgnBBEARBEARBeMxEEC4IgiAIgiAIj5kIwgVBEARBEAThMRNBuCAIgiAIgiA8ZiIIFwRBEARBEITHTAThTxPzzozt8jOJg77mZdeGqkRBEARBEAThaSOC8AfiTI/mq4ju+yld7JxUaY+Pj4UnLRzCqKpIIb84VpUqCMLToYqizN1MC+tA74HLuKBK/WdVkp+6g3fDOtJv8AouqlL/XBEpR9YwbUhPwsJGMHfJGTJLVKsEQRCE+yaC8PsU4vsh37YfTmtTE/JLjGgR+Akbe06nqZWdKsffzYsG5o3xtkrkcvp1rmdVq9IflgZ6Wm34vO858iZmkTJmB3MCfVTrwNi0CaO7R/Fzjwm0VKUJwn9DPmfWTmdYxxBCQn5d+r0+kw0n0imsUOa5wLKBPQkPmczWlDwppP1zCkUFxTk55OWXSSH5k6CGGnkFRTm5UptK769NNy+yc8dWNp+4Qk5OHMml2RTUqNYJwlOkOO4Qiyf2qO3Xg6Z8RXSyasVfcoJPWregSchMjqhSBOFeHlMQboCL7XDWjk7h1LPvEK5KfZpk55wiRT+CHp4RdAoazHh3V7TybpBfVqrK8Tcz98DN1hfLlEPsSYrm3CM66GloaNOi1ef0d7jIW1+EMjnBmb7BL9NNuVLfm+CAT3nbuoADv8wnunYLQfivqEFeWU5pcRFFRb8uF/Z9z/SZS4hKyKQCOZUlxVK6FFQrpIBWteXDyLywg4+H+tNr9IfsS1Al1uHalikM6ezPq1/+SFyeKvExSLlxmbhrv2DRbCCz165l7si28NMMhnfzZ/j83VzJUWUUhCdaJtfORBO17Wptvz51JZYLCUmqdX+FnIraMaKcR3WJ7J+Qe+1nFozwp+uwt9l2XZUo/G3uHoQ7T2XniAwU0xR/WA42ccZUU5XvPqmhgUxDBy0NzV8rNW0rDdwX6qzjUo8xRJip8v0laug22l1n2XljTjDXVZXtPtXUKKQDrDoaauqoq2ugqa4m/S6lKY+6rh9xZHRunXXtCTBCpnarjIfha+5CUytrrmf8wrWsZGpsh7FgYEKddR5r0xpPPdWG90FdXVP6XAqKKos5mZOOnswFN2tnQjym8ZWPjO3H32TGjWrp00pM2zHirvtsNB0fap8JwpPIkc7jv2LnqRhiDi1iaIgrulePcTY2h8KKRryyeS/HYz6lt5MZ2qotHkqNnOqqCiqrqpH/SVRfo6iiqrKCqmrl2PT41EiDnnKxMDfH0sJCGtelEV1R/WtbHmdjBOGvykgl9tplEgNb0+v5PrTMSyDhYgJ//WJ4KJNPneVSzIyn+q6xMta5n/FHeDTuHoQrDwTKgVUuDfR3LNX3PcqqSQGeTAq8taSBWgMpbkVNTRmMa0lpMjSl3xXKA0mddUiBnaqUv6zmLu2XPpdcleV+2Vg1wL18PT/EbGfbyaXMjU1G3aIB5vr6tX8r+V0+x6P4EqvpNSfEuRctDWK5mHmVy8r5l9LfR363/fOAV+QUCjmKGnUMtPQINrelrCqLGvVOTGzsR/zZaQw/F6PKqSTtl7vUW6V4vMGAIDweUn+SvtvV1dVUy5V9pQY1dUdsbfTQ0f6FRb3a08RzPJuScqlQHsCiZzO4kQ+eDRvSsHbxwj/oJdanqIqTVOanEzV7FF2l9cEt2vPOir2kK0pJPL6auW++xcqTEPvT94yNaMnQaWs5l6/asFYuR78ey5S5WzklRQzRX46kS2hn3t96mayKGhTyFH5Y8Dqhwf6q+vvQd9Jurlbc36hXU5ZHyp5VTI2IuLV9aHv6zdnMkawCLu+ax4fvzmXrRbiwZR4vtQunXbsWDPl4PUdvwNFvxtOzeSembfyFtHJVgYLwxKkhPTWBazE3qOfQlKYhbphZxBCXcJEbSaqjmNSXM6M3M6t3R0K9vPDy7Mx7i86Tka8gZfsixrVqRkBtem8WRkp9v+ooHwYH4O35LoeU28srKdw5iT63xwHl0ojWXSazK72QhOPfMKJ1BP1mf8SSiR1pL60P6/Qs87YdJae2Ccn8uPBNevYdwZR5k3i/f3PCpDztX3iDLQe28/V7/WgdoiyzC68tvcLNIuVGNciTjrJ+xEsE+vjcqrPfZJbHVteOWxUle5nkH0DT6YuI/KwnPaT1AU1b8ebi7aQqykk9v5l5415l8RGksWgbk7qF0f+NpZx8jHfa/mvuHoQnzaLbN/Zof6D9h6X9iSTy7uN+i65ePQZ0jqViag5XXlpADyNzfNynsGNqBRVjDvONezVLtgfWWYd/5EJ256oKug8aGvoYahthpFoMNNUpO9elzrItFzZjYrxqw/t07NxHPL/rO37OL8XOqJzo06/TdeNkjmTchITJtPjCus66In4ppOqhIlM1bM1cCLT1hOzL/JJ1EalGSF/G2O896qyz+U8/c+U+Z8nI5RVEHRrL96Vd+GTUST5yljr+2aM4tP8Az7ItfHksuvbvaSgF6Drq0tcl7wDfbA+os95GW79gzwPsM0F4OqSwc95IujX1xfeZkaw4m4TjwE40d7LBUJXjtpRNvDJhPacVWugbGGCgI6tN1tDS/s0dsWJycjaxdN0RUvX1qM5PYffaFaz8MRM1DRlaOjrINKTBWVOGjp4y0Jeh8bu7aWpSeTroaGmivAit/FlPKkdbGvPUFDeJnPwKnyw/QKlcs7YNerrSifuWsXSfdoDqe41FNYUknt/Ae2Nn8UNyau32+uVZxHz7CQtmL+d0oRba2lpIVUnt00LXzQknRzustaQ23tGWux9cBOEfVpNJasIVYhKdcPDypqV/Q1zd/YiJi+dyQpIUsEp5Yncyf/k3rCixwafL8wwIdyFbnkvBycWM/2IVu0xDCO/dn4EtLTifl1Z7Eeq3quJWMnR8JDHaehjo66Onram8Cin1Ean//L8/p8dzYdVKFuzLIkdPh6LkC2xYs5kdp35zIL3wM1uW7mTzlTLKpPHk5qntTBo9kYVbYimS66KtEc+Pcz7nYGIaJfITzBv2FrOiTlKjrY2B1H91YyL5qEt/Vieqyqsoo2DtfN5ZmUiK1FdrSrI4sG4JX+9NR101/mgpxx8NTbT19NHV0bpj/BEepbuPkxp6GOuYY6ln+YfFRDpC3M8+Ud7WqKjMJas0m9zy4ltXieSlFJRmSWl50hcI6UBiWmcdZtq6aD3Ajg9oupfkCVIHmVRQu5xu2QQ1TeM6y7bQNUVf+pI9uBtsOvQswWtHEXnzhipNIp0AmOha1FmX8e3e9hep2eBuFkQjKzVis85xNUt1OU1dRzrAm9VZp4nszoP2n5FTWrGP0YuNMZ5tieOysSwzGEA/rWg2nEyk48DzpIxN5OrQHcz19ZE6vNYj22eC8HRQR0vXAGNjI/RlmtTrNIiJ/ZvhblnH5JP0m1xVyKk/7Ct27d7L3pmdpWBVk+BxU+hpr8ojjZ7Gdm68vmIXR/esZ+ZzHhSVlXMjowSn4GcZ8/4Mng8E1+Z9mb1xN19O7o2PsWrTWqY0Hjybd8ZEECCVGTrsE9bv38BbEQ0xi9nJ6rM55Ll3Zsby/Rw9fort3wwlVFeG+pZDHL7XvaqiQjLPnyFa3wH/vjNYu3cvaxbOopefLgVF+ZgHvcqEKWOI8ALvLq/xxaLlLF22jtlje9LYCRq/+CHf7dnE5B5+WOuoyhSEJ4wiM52EmAsk2JjhaG+GQtcQO0s7PC6f4vTRM1xWPmksHeu0dbTRVpPjFhTAc5Pf4eNhzXG3NZZObKVgVVGF9zOtGPL+LOYP9EJf+/fhlCI1mWvSMbHJ2JXs3bGZb8c/g66FtdRfX6WdtSqTNLY4+DVn2tq9RG1ayKiOTuQUFpGa89tbX5o06v0y3+z8mfXv96KxsxTIuzXntTnrOLB1NeP9PTBXSyEto4KKY8fZUyYF6/UH8fnm7eyR+u+H3f2lEec8cYn/vxOmhq6JLSOW7eDowW3MG9xQigEqiUsrwMa7K6/N+owhTcAxuBPTpXYt/WAQgSaqTYVH7u5BuMN41gyOIfPNzD8sPwQ6YHIfc8LLyxJZvycAqzkuhKx8ix2FecTEz6XvHCusFndgTLwmL3Y8VGcd0RHDaWuqKug+VFZKZ7ZFN0kpTKldMiqq0PFZX2fZsS/vZXo91YaPgvO77Bp2vc66NvgaPtSccHU9V1ytg2iAdIaeGcOl/78KzHogs/qcqbPOPS2aU19Xle++SR1b5kBA/eks8TNgz4UVRNk/R4TaQcZ+14HRNzRo6z2YXg6tGNwxqs56ozq9TPgD7DNBeDrY0+7Vuazd+D3vtgmmaudyvtxyjvg8+R9DWltn/NQ1uPLli7Ro3oxmE3agZ2SBn+vtCFyiLx3EOxLgZ42WljaWj/ANSznZ6VRVVeLSqC1BLga1V7Ss/QKx1bi/h3gqqypqy6AklYuRHzK0Vy+GT5nNz2nV0sm3BqUlBaqcgvC0UpCZdoOYi2fIvbCfz0dG0KxZHyYs3sVVMrgad4WE5HxqXNszcEgfXnAsJPrzGfTsMJjpG85w0+U53hjVme5a8Xw3dRxtWw/h8+hUSqp/Pw1U3d4Nn4pSjnzUh2atO/LsR4cwMbWkodPtCFxihblZazzrm6OnZ4iZmaUq/be8cK0XjJ2NAaYW9ujpm+Lk05yQhlIc5mCJjad0oqB6BiwrM41qeRXErWPioOfoJfXfj6S2WdvYkJ8j9etaWtK405mQAFtkMi1pnYMqXfgn3D0Ir8ojrSCB2NzYPyw3y1UP6T0seRkFJcl11pFUnE/pA1Ry/mRPvBY44/iZY+3S8vApaipS6yw7viCF7Ef5frCqHFIK4uusK7XyYeZJa2Br6kKQXX3k2Zc4k36eVNUaqgvJLkqss85k6Uy48gErVVczwM1qNJ+39SPh9FTGXo7DxcCIsupsMotVmZQUpdI+S6qz3qSSfEoedLK9IDwtzNxpMaAZHh6mnNy1n/MpGZTf0c+qyw0xr9HB1NYRJycnnJ3bMmTSakYFqzI8gKqyYrJTb5KZW0zFn4yF5YVZpKakkVtSiZmDK8baOsQfjuZU7HUSkpI4tWsf26urkJkaoSudbP8ZLR1dbBxc0NWzwTNiHAtWrmRl7bKar957na6+f35JrLwwm/SbqeQWV4iHuoQnkzyLtBuXuXBRBwNz29p+emuxw9JYn7xrcVyJTya3tBCjeh0Z9OFy5n32Gr71y4lcu4szV69i6DuU1xd/z4JZz2FhmsLyhVtIKKv43bFeORZYqutgZqcs25WG3r146fVPGPjrG4AfOWtnd4xl2qjV68m0r5aw4nb/XcsH3X57IeDeqstLyElLISO78E/HH+Hh3D0IT/2Cl9Y0wWOBxx+WgeduUvBA7+BRUFWdS3LOFeIKMrn9fx0KD7P2QESddXTct4Kffvcw0oOqoTxmSJ1lB67oyeyHeRPRnZI/pu/KoDrrGnyp+N7zMO9GzRpX0yACzQs5lfwjPyfdDsGlU971TI9sVWedfY4eI65Mle8+KB+WtTD345U2g9C59iljovdQUlnCpcwbqMncCHKqh61WFfnluRTkHWbNXfZZp30rOSQulAn/YmaNw+lQ3x3btLMcu5RGftnvzzpzrv3IUbktXd+ex5Kly1i6dALdA2UUlN7/Wb9yXrWBkSGZZ7bywSsvMHnRXq7X8c9wtPSMMNTX5tya9xg+YDSLoxLIcw+mq7srjhnbmTywN53at+fFiduR6dvR9s1nCbnXXTl9Y6wbNSPCqILrkTN5Ttq+fe3yLONmb+D8Xfq3lp4BhgY6XNz4Ia8OGsUXB6+Rfa+XpgvCP0CencmNy+e47BxC73e/Ze/evarlO2a91J6G+de4fjWeK8ci+fiT9xg7dQYLv99HRoEcS3MTKn9Zwbj3pjNp2gwW/3CCSoU2NpYmaCmfmbqthsxL+zit7cmA979k2bLFLPhsGG28NCgq/xtfYOjblN6uztikbmJsn250vN1/xxH5m/Dhz2jItKTxx4jcyweZ89oAJny2jUtFqpXCI6dBa95T/fw3qqKw9BK7zy9j3fWTD/EKoP8WbUN/qdO+RB/jVHZfWs2azAzVmkdLQ9OAIL+5DDA5zdf7p7Nf+VaD6gooKcTMIoyODVviVH2YZWeWsjFDRNlPpGKwSbGhb9++qgTh4VWTnxxHcqYc20ah+NW3w0hmhrVJEUkF6VyT29PS24Siy4nkyOrRtFsILprlJGzbx77TUSTHx3LsWBS7thwmTc2CBtL2mlWZXD+WRE29QFp28saiupz8tHgu5ungGdiUFu5m6OnrYGygRllxGWp2wQS2bUMTL4s/PARqamGEtqKY4koZep7tCe8cTEMLJwIae6FdrUGhAkzMzLC0DKHHq+8zuYcT6mp3RuE1VJVnEntCGpVdA2nRoREups408HWmvLAauba2tL2ltNjj7hNIUFBDDEsSSUpJQ9OhiTRueGFjINVjbogOpVJbNNCtH07riMZ4Wes/mlc2CsIjVJh1g0tnDqFp17T2JNX59vMWhsgU2eSWSiez+h4E+XtgVBNP3LV4MjOrcXMLY+iw/oQH2VKUfpq42DRychT4+3di5JgB+FqVERcVQ4GpL+HPhmBbksWlTbs4eOE4yXFXORx9iP37fqFAywo3F3MUhWkkXMxDzyuQps3dMa0sJDUliRuVFlI/C6SRo4ychCRuZmri3CwI3wbWyPISuZacI/W9IML8XLE0kJN17RLJxcY0bNkSbzs3Qlp4o1kmfc4aMFO+RrS2/7oT1i0cd91srkXFUekYwDPd/LGSV1KcHsfZTA3qB4bRpoE5OrramBrLKC8upsaqEX7h7Qjzt8ZI9VcSHp2MjAzUpBBc3DR8Iung7TqU6RGf4ZuzgPf3vsFq8U8whLtJA/9j/qxbt06VIDx+lRya2Y7x6wwIHjmCrk4y1Eln65dzOJr6DNN3fUF3K1VWQRD+vWrK2flmAG/t86b9+JdoZyWnpOAa279dTaJWd6Yun0a4uSqv8J91/vz5P5mOIvzDTNFCn4KiLexMiOasCMAF4QlXCDIXLAyy+XneRCaMG8e4cR9xKsOaBn7N8BABuCD8R+RLY4EHprIb7JylHAfe4N0ZS7la6EBDr0CcRQAuqIgr4YLwbyCuhD8Zsq+wYfVODsRcRa56b7BH/WfoMrg/XnW9+EAQhH8ledo5Vi3fweGEhNrfZTJdvP3a0aFfV9zFf5YWJMor4SIIF4R/AxGEC4IgCMJT4/z58/wPgZvno0oyU+YAAAAASUVORK5CYII=;" vertex="1" parent="1">
                    <mxGeometry x="57" y="50" width="737" height="415" as="geometry"/>
                </mxCell>
                <mxCell id="6" value="Credits: GeeksforGeeks" style="text;strokeColor=none;align=center;fillColor=none;html=1;verticalAlign=middle;whiteSpace=wrap;rounded=0;" vertex="1" parent="1">
                    <mxGeometry x="310" y="490" width="230" height="30" as="geometry"/>
                </mxCell>
            </root>
        </mxGraphModel>
    </diagram>
</mxfile>